{
.appVersion = "1141";
DisplayStrings = (
"-",
"/emdash.case",
"/hyphen.case",
"/figuredash",
"/horizontalbar",
"/hyphentwo",
"H/hyphen.case",
"/endash",
"/endash.case",
"/emdash",
"/hyphen.case",
"",
"/guilsinglleft.case",
"/guilsinglright.case",
"/guilsinglleft.case H",
"/guilsinglleft.case",
"/hyphen.case",
"/guilsinglleft.case",
"",
"/guilsinglleft.case",
"/guillemetright.case/guillemetright.case",
"/guillemetleft.case",
"/guillemetright.case",
"/guilsinglleft.case H",
"/parenleft.case H(H",
"/periodcentered.loclCAT.case",
"./periodcentered.case",
"/periodcentered.loclCAT.case",
"//",
"/slash.case",
"/backslash",
"/backslash.case",
"/backslash",
"/slash.case",
"/backslash.case",
"/periodcentered.loclCAT.case",
"/periodcentered.loclCAT",
"/dcaron",
"/caroncomb.alt",
"/Lcaron",
"/lcaron",
"/tcaron"
);
classes = (
{
automatic = 1;

glyphs = (
{
color = 4;
glyphname = A;
lastChange = "2018-05-17 03:53:43 +0000";
layers = (
{
anchors = (
{
name = btm;
position = "{299, 0}";
},
{
name = top;
position = "{297, 850}";
}
);
layerId = "B61D43DE-5272-4FF4-A680-608B6BF5ED9E";
paths = (
{
closed = 1;
nodes = (
"135 0 LINE",
"276 383 LINE",
"309 499 LINE",
"274 499 LINE",
"309 383 LINE",
"455 0 LINE",
"594 0 LINE",
"293 724 LINE",
"-7 0 LINE"
);
},
{
closed = 1;
nodes = (
"449 104 LINE",
"444 198 LINE",
"145 198 LINE",
"141 104 LINE"
);
}
);
width = 586;
}
);
leftKerningGroup = A;
rightKerningGroup = A;
unicode = 0041;
userData = {
com.typemytype.robofont.mark = (
0.656,
1,
0.6,
1
);
};
},
{
color = 4;
glyphname = Aogonek;
lastChange = "2018-05-17 02:33:02 +0000";
layers = (
{
components = (
{
name = A;
}
);
layerId = "B61D43DE-5272-4FF4-A680-608B6BF5ED9E";
paths = (
{
closed = 1;
nodes = (
"341 -198 OFFCURVE",
"396 -250 OFFCURVE",
"501 -250 CURVE SMOOTH",
"557 -250 OFFCURVE",
"599 -234 OFFCURVE",
"611 -213 CURVE",
"585 -288 LINE",
"585 -68 LINE",
"631 -99 LINE",
"595 -140 OFFCURVE",
"550 -149 OFFCURVE",
"517 -149 CURVE SMOOTH",
"478 -149 OFFCURVE",
"455 -135 OFFCURVE",
"455 -101 CURVE SMOOTH",
"455 -58 OFFCURVE",
"515 -17 OFFCURVE",
"585 0 CURVE",
"532 33 LINE",
"475 6 LINE",
"380 -18 OFFCURVE",
"343 -77 OFFCURVE",
"342 -126 CURVE"
);
}
);
width = 586;
}
);
leftKerningGroup = A;
rightKerningGroup = A;
unicode = 0104;
userData = {
com.typemytype.robofont.mark = (
0.6,
0.986,
1,
1
);
};
},
{
color = 4;
glyphname = Aring;
lastChange = "2018-05-17 03:53:43 +0000";
layers = (
{
components = (
{
name = A;
}
);
layerId = "B61D43DE-5272-4FF4-A680-608B6BF5ED9E";
paths = (
{
closed = 1;
nodes = (
"374 666 OFFCURVE",
"440 722 OFFCURVE",
"440 802 CURVE SMOOTH",
"440 881 OFFCURVE",
"374 938 OFFCURVE",
"297 938 CURVE SMOOTH",
"220 938 OFFCURVE",
"154 883 OFFCURVE",
"154 802 CURVE SMOOTH",
"154 722 OFFCURVE",
"220 666 OFFCURVE",
"297 666 CURVE SMOOTH"
);
},
{
closed = 1;
nodes = (
"262 732 OFFCURVE",
"230 755 OFFCURVE",
"230 803 CURVE SMOOTH",
"230 854 OFFCURVE",
"262 873 OFFCURVE",
"297 873 CURVE SMOOTH",
"332 873 OFFCURVE",
"364 853 OFFCURVE",
"364 803 CURVE SMOOTH",
"364 755 OFFCURVE",
"332 732 OFFCURVE",
"297 732 CURVE SMOOTH"
);
}
);
width = 586;
}
);
leftKerningGroup = A;
rightKerningGroup = A;
unicode = 00C5;
userData = {
com.typemytype.robofont.mark = (
0.656,
1,
0.6,
1
);
};
},
{
color = 4;
glyphname = Aringacute;
lastChange = "2018-05-17 02:33:02 +0000";
layers = (
{
anchors = (
{
name = _top;
position = "{297, 850}";
},
{
name = top;
position = "{317, 1023}";
}
);
components = (
{
name = A;
}
);
layerId = "B61D43DE-5272-4FF4-A680-608B6BF5ED9E";
paths = (
{
closed = 1;
nodes = (
"374 666 OFFCURVE",
"440 722 OFFCURVE",
"440 802 CURVE SMOOTH",
"440 881 OFFCURVE",
"374 938 OFFCURVE",
"297 938 CURVE SMOOTH",
"220 938 OFFCURVE",
"154 883 OFFCURVE",
"154 802 CURVE SMOOTH",
"154 722 OFFCURVE",
"220 666 OFFCURVE",
"297 666 CURVE SMOOTH"
);
},
{
closed = 1;
nodes = (
"262 732 OFFCURVE",
"230 755 OFFCURVE",
"230 803 CURVE SMOOTH",
"230 854 OFFCURVE",
"262 873 OFFCURVE",
"297 873 CURVE SMOOTH",
"332 873 OFFCURVE",
"364 853 OFFCURVE",
"364 803 CURVE SMOOTH",
"364 755 OFFCURVE",
"332 732 OFFCURVE",
"297 732 CURVE SMOOTH"
);
},
{
closed = 1;
nodes = (
"346 895 LINE",
"471 1096 LINE",
"348 1096 LINE",
"250 895 LINE"
);
}
);
width = 586;
}
);
leftKerningGroup = A;
rightKerningGroup = A;
unicode = 01FA;
userData = {
com.typemytype.robofont.mark = (
0.6,
0.609,
1,
1
);
};
},
{
color = 0;
glyphname = AE;
lastChange = "2018-05-18 14:51:45 +0000";
layers = (
{
anchors = (
{
name = top;
position = "{538, 830}";
}
);
layerId = "B61D43DE-5272-4FF4-A680-608B6BF5ED9E";
paths = (
{
closed = 1;
nodes = (
"147 0 LINE",
"417 513 LINE",
"431 697 LINE",
"394 697 LINE",
"5 0 LINE"
);
},
{
closed = 1;
nodes = (
"801 0 LINE",
"801 110 LINE",
"530 110 LINE",
"546 91 LINE",
"546 330 LINE",
"528 313 LINE",
"746 313 LINE",
"746 419 LINE",
"528 419 LINE",
"546 403 LINE",
"546 610 LINE",
"530 596 LINE",
"781 596 LINE",
"781 697 LINE",
"414 697 LINE",
"414 0 LINE"
);
},
{
closed = 1;
nodes = (
"487 115 LINE",
"487 208 LINE",
"146 208 LINE",
"146 115 LINE"
);
}
);
width = 841;
}
);
leftKerningGroup = A;
rightKerningGroup = E;
unicode = 00C6;
userData = {
com.typemytype.robofont.mark = (
0.656,
1,
0.6,
1
);
};
},
{
color = 4;
glyphname = B;
lastChange = "2018-05-18 14:51:49 +0000";
layers = (
{
anchors = (
{
name = top;
position = "{307, 830}";
}
);
layerId = "B61D43DE-5272-4FF4-A680-608B6BF5ED9E";
paths = (
{
closed = 1;
nodes = (
"278 0 LINE",
"453 0 OFFCURVE",
"539 78 OFFCURVE",
"539 201 CURVE SMOOTH",
"539 309 OFFCURVE",
"484 375 OFFCURVE",
"364 375 CURVE",
"352 354 LINE",
"462 354 OFFCURVE",
"504 441 OFFCURVE",
"504 511 CURVE SMOOTH",
"504 629 OFFCURVE",
"419 697 OFFCURVE",
"269 697 CURVE",
"83 697 LINE",
"83 0 LINE"
);
},
{
closed = 1;
nodes = (
"209 614 LINE",
"191 598 LINE",
"269 598 LINE SMOOTH",
"326 598 OFFCURVE",
"380 579 OFFCURVE",
"380 507 CURVE SMOOTH",
"380 463 OFFCURVE",
"358 405 OFFCURVE",
"290 405 CURVE",
"190 405 LINE",
"209 387 LINE"
);
},
{
closed = 1;
nodes = (
"209 83 LINE",
"209 324 LINE",
"190 312 LINE",
"290 312 LINE SMOOTH",
"352 312 OFFCURVE",
"407 299 OFFCURVE",
"407 208 CURVE SMOOTH",
"407 118 OFFCURVE",
"356 101 OFFCURVE",
"296 101 CURVE",
"191 101 LINE"
);
}
);
width = 565;
}
);
leftKerningGroup = H;
leftMetricsKey = H;
rightKerningGroup = B;
unicode = 0042;
userData = {
com.typemytype.robofont.mark = (
0.656,
1,
0.6,
1
);
};
},
{
color = 4;
glyphname = C;
lastChange = "2018-05-17 03:53:43 +0000";
layers = (
{
anchors = (
{
name = btm;
position = "{318, 0}";
},
{
name = top;
position = "{319, 830}";
}
);
layerId = "B61D43DE-5272-4FF4-A680-608B6BF5ED9E";
paths = (
{
closed = 1;
nodes = (
"167 710 OFFCURVE",
"37 586 OFFCURVE",
"37 358 CURVE SMOOTH",
"37 104 OFFCURVE",
"173 -12 OFFCURVE",
"318 -12 CURVE SMOOTH",
"453 -12 OFFCURVE",
"500 43 OFFCURVE",
"522 60 CURVE",
"535 -4 LINE",
"420 204 LINE",
"467 160 LINE",
"468 157 OFFCURVE",
"415 95 OFFCURVE",
"326 95 CURVE SMOOTH",
"244 95 OFFCURVE",
"176 191 OFFCURVE",
"176 365 CURVE SMOOTH",
"176 498 OFFCURVE",
"223 605 OFFCURVE",
"325 605 CURVE SMOOTH",
"390 605 OFFCURVE",
"435 561 OFFCURVE",
"450 542 CURVE",
"506 644 LINE",
"479 668 OFFCURVE",
"430 710 OFFCURVE",
"322 710 CURVE SMOOTH"
);
}
);
width = 538;
}
);
leftKerningGroup = O;
rightKerningGroup = C;
unicode = 0043;
userData = {
com.typemytype.robofont.mark = (
0.656,
1,
0.6,
1
);
};
},
{
color = 4;
glyphname = D;
lastChange = "2018-05-17 13:08:46 +0000";
layers = (
{
anchors = (
{
name = btm;
position = "{291, 0}";
},
{
name = top;
position = "{323, 830}";
}
);
layerId = "B61D43DE-5272-4FF4-A680-608B6BF5ED9E";
paths = (
{
closed = 1;
nodes = (
"260 0 LINE",
"465 0 OFFCURVE",
"577 139 OFFCURVE",
"577 357 CURVE SMOOTH",
"577 584 OFFCURVE",
"463 697 OFFCURVE",
"261 697 CURVE",
"81 697 LINE",
"81 0 LINE"
);
},
{
closed = 1;
nodes = (
"210 88 LINE",
"210 618 LINE",
"191 597 LINE",
"257 597 LINE",
"401 597 OFFCURVE",
"447 480 OFFCURVE",
"447 354 CURVE SMOOTH",
"447 232 OFFCURVE",
"403 110 OFFCURVE",
"257 110 CURVE",
"193 110 LINE"
);
}
);
width = 601;
}
);
leftKerningGroup = H;
rightKerningGroup = O;
unicode = 0044;
userData = {
com.typemytype.robofont.mark = (
0.656,
1,
0.6,
1
);
};
},
{
color = 4;
glyphname = Eth;
lastChange = "2018-05-17 03:53:43 +0000";
layers = (
{
components = (
{
name = D;
transform = "{1, 0, 0, 1, -5, 0}";
}
);
layerId = "B61D43DE-5272-4FF4-A680-608B6BF5ED9E";
paths = (
{
closed = 1;
nodes = (
"333 316 LINE",
"333 401 LINE",
"16 401 LINE",
"16 316 LINE"
);
}
);
width = 593;
}
);
leftKerningGroup = H;
rightKerningGroup = O;
unicode = 00D0;
userData = {
com.typemytype.robofont.mark = (
0.656,
1,
0.6,
1
);
};
},
{
color = 4;
glyphname = Dcroat;
lastChange = "2018-05-17 02:33:02 +0000";
layers = (
{
components = (
{
name = D;
transform = "{1, 0, 0, 1, -5, 0}";
}
);
layerId = "B61D43DE-5272-4FF4-A680-608B6BF5ED9E";
paths = (
{
closed = 1;
nodes = (
"333 316 LINE",
"333 401 LINE",
"16 401 LINE",
"16 316 LINE"
);
}
);
width = 593;
}
);
leftKerningGroup = D;
rightKerningGroup = O;
unicode = 0110;
userData = {
com.typemytype.robofont.mark = (
0.6,
0.986,
1,
1
);
};
},
{
color = 4;
glyphname = E;
lastChange = "2018-05-17 13:05:42 +0000";
layers = (
{
anchors = (
{
name = btm;
position = "{263, 0}";
},
{
name = top;
position = "{271, 830}";
}
);
layerId = "B61D43DE-5272-4FF4-A680-608B6BF5ED9E";
paths = (
{
closed = 1;
nodes = (
"465 0 LINE",
"465 110 LINE",
"190 110 LINE",
"206 91 LINE",
"206 336 LINE",
"188 319 LINE",
"396 319 LINE",
"396 425 LINE",
"188 425 LINE",
"206 408 LINE",
"206 605 LINE",
"190 591 LINE",
"445 591 LINE",
"445 697 LINE",
"81 697 LINE",
"81 0 LINE"
);
}
);
width = 506;
}
);
leftKerningGroup = H;
rightKerningGroup = E;
unicode = 0045;
userData = {
com.typemytype.robofont.mark = (
0.656,
1,
0.6,
1
);
};
},
{
color = 5;
glyphname = Eogonek;
lastChange = "2018-05-17 02:33:02 +0000";
layers = (
{
components = (
{
name = E;
transform = "{1, 0, 0, 1, -5, 0}";
}
);
layerId = "B61D43DE-5272-4FF4-A680-608B6BF5ED9E";
paths = (
{
closed = 1;
nodes = (
"216 -198 OFFCURVE",
"271 -250 OFFCURVE",
"376 -250 CURVE SMOOTH",
"432 -250 OFFCURVE",
"474 -234 OFFCURVE",
"486 -213 CURVE",
"460 -288 LINE",
"460 -68 LINE",
"506 -99 LINE",
"470 -140 OFFCURVE",
"425 -149 OFFCURVE",
"392 -149 CURVE SMOOTH",
"353 -149 OFFCURVE",
"330 -135 OFFCURVE",
"330 -101 CURVE SMOOTH",
"330 -59 OFFCURVE",
"389 -18 OFFCURVE",
"460 0 CURVE",
"407 33 LINE",
"350 6 LINE",
"255 -18 OFFCURVE",
"218 -77 OFFCURVE",
"217 -126 CURVE"
);
}
);
width = 500;
}
);
leftKerningGroup = H;
rightKerningGroup = E;
unicode = 0118;
userData = {
com.typemytype.robofont.mark = (
0.6,
0.986,
1,
1
);
};
},
{
color = 4;
glyphname = F;
lastChange = "2018-05-18 14:51:54 +0000";
layers = (
{
anchors = (
{
name = top;
position = "{263, 830}";
}
);
layerId = "B61D43DE-5272-4FF4-A680-608B6BF5ED9E";
paths = (
{
closed = 1;
nodes = (
"211 0 LINE",
"211 313 LINE",
"193 298 LINE",
"417 298 LINE",
"417 404 LINE",
"193 404 LINE",
"211 386 LINE",
"211 609 LINE",
"195 591 LINE",
"447 591 LINE",
"447 697 LINE",
"83 697 LINE",
"83 0 LINE"
);
}
);
width = 463;
}
);
leftKerningGroup = H;
leftMetricsKey = H;
rightKerningGroup = F;
unicode = 0046;
userData = {
com.typemytype.robofont.mark = (
0.656,
1,
0.6,
1
);
};
},
{
color = 4;
glyphname = G;
lastChange = "2018-05-17 04:00:35 +0000";
layers = (
{
anchors = (
{
name = btm;
position = "{331, 0}";
},
{
name = top;
position = "{342, 830}";
}
);
layerId = "B61D43DE-5272-4FF4-A680-608B6BF5ED9E";
paths = (
{
closed = 1;
nodes = (
"173 714 OFFCURVE",
"37 580 OFFCURVE",
"37 360 CURVE SMOOTH",
"37 151 OFFCURVE",
"127 -18 OFFCURVE",
"330 -18 CURVE SMOOTH",
"535 -18 OFFCURVE",
"583 121 OFFCURVE",
"583 243 CURVE",
"583 374 LINE",
"329 374 LINE",
"329 264 LINE",
"512 264 LINE",
"458 297 LINE",
"458 288 OFFCURVE",
"459 230 OFFCURVE",
"459 222 CURVE SMOOTH",
"459 129 OFFCURVE",
"423 90 OFFCURVE",
"333 90 CURVE SMOOTH",
"234 90 OFFCURVE",
"173 200 OFFCURVE",
"173 360 CURVE SMOOTH",
"173 486 OFFCURVE",
"231 604 OFFCURVE",
"345 604 CURVE SMOOTH",
"448 604 OFFCURVE",
"478 561 OFFCURVE",
"493 541 CURVE",
"549 647 LINE",
"523 672 OFFCURVE",
"478 714 OFFCURVE",
"346 714 CURVE SMOOTH"
);
}
);
width = 618;
}
);
leftKerningGroup = O;
rightKerningGroup = G;
unicode = 0047;
userData = {
com.typemytype.robofont.mark = (
0.656,
1,
0.6,
1
);
};
},
{
color = 4;
glyphname = H;
lastChange = "2018-05-18 14:44:48 +0000";
layers = (
{
anchors = (
{
name = btm;
position = "{325, 0}";
},
{
name = top;
position = "{327, 830}";
}
);
layerId = "B61D43DE-5272-4FF4-A680-608B6BF5ED9E";
paths = (
{
closed = 1;
nodes = (
"212 0 LINE",
"212 310 LINE",
"195 296 LINE",
"458 296 LINE",
"442 310 LINE",
"442 0 LINE",
"572 0 LINE",
"572 697 LINE",
"442 697 LINE",
"442 385 LINE",
"457 403 LINE",
"195 403 LINE",
"212 386 LINE",
"212 697 LINE",
"83 697 LINE",
"83 0 LINE"
);
}
);
width = 655;
}
);
leftKerningGroup = H;
rightKerningGroup = H;
unicode = 0048;
userData = {
com.typemytype.robofont.mark = (
0.656,
1,
0.6,
1
);
};
},
{
color = 4;
glyphname = Hbar;
lastChange = "2018-05-17 02:33:02 +0000";
layers = (
{
layerId = "B61D43DE-5272-4FF4-A680-608B6BF5ED9E";
paths = (
{
closed = 1;
nodes = (
"215 0 LINE",
"215 280 LINE",
"198 266 LINE",
"447 266 LINE",
"431 280 LINE",
"431 0 LINE",
"570 0 LINE",
"570 697 LINE",
"431 697 LINE",
"431 343 LINE",
"446 360 LINE",
"198 360 LINE",
"215 344 LINE",
"215 697 LINE",
"76 697 LINE",
"76 0 LINE"
);
},
{
closed = 1;
nodes = (
"631 499 LINE",
"631 583 LINE",
"14 583 LINE",
"14 499 LINE"
);
}
);
width = 646;
}
);
leftKerningGroup = H;
rightKerningGroup = H;
unicode = 0126;
userData = {
com.typemytype.robofont.mark = (
0.6,
0.986,
1,
1
);
};
},
{
color = 4;
glyphname = I;
lastChange = "2018-05-17 03:53:43 +0000";
layers = (
{
anchors = (
{
name = btm;
position = "{143, 0}";
},
{
name = top;
position = "{144, 830}";
}
);
layerId = "B61D43DE-5272-4FF4-A680-608B6BF5ED9E";
paths = (
{
closed = 1;
nodes = (
"208 0 LINE",
"208 697 LINE",
"78 697 LINE",
"78 0 LINE"
);
}
);
width = 286;
}
);
leftKerningGroup = I;
rightKerningGroup = I;
unicode = 0049;
userData = {
com.typemytype.robofont.mark = (
0.656,
1,
0.6,
1
);
};
},
{
color = 5;
glyphname = Iogonek;
lastChange = "2018-05-17 02:33:02 +0000";
layers = (
{
components = (
{
name = I;
}
);
layerId = "B61D43DE-5272-4FF4-A680-608B6BF5ED9E";
paths = (
{
closed = 1;
nodes = (
"-3 -198 OFFCURVE",
"52 -250 OFFCURVE",
"157 -250 CURVE SMOOTH",
"213 -250 OFFCURVE",
"255 -234 OFFCURVE",
"267 -213 CURVE",
"241 -288 LINE",
"241 -68 LINE",
"287 -99 LINE",
"251 -140 OFFCURVE",
"206 -149 OFFCURVE",
"173 -149 CURVE SMOOTH",
"134 -149 OFFCURVE",
"111 -135 OFFCURVE",
"111 -101 CURVE SMOOTH",
"111 -59 OFFCURVE",
"132 -18 OFFCURVE",
"203 0 CURVE",
"150 33 LINE",
"93 6 LINE",
"14 -31 OFFCURVE",
"-1 -77 OFFCURVE",
"-2 -126 CURVE"
);
}
);
width = 286;
}
);
leftKerningGroup = I;
rightKerningGroup = I;
unicode = 012E;
userData = {
com.typemytype.robofont.mark = (
0.6,
0.986,
1,
1
);
};
},
{
color = 4;
glyphname = J;
lastChange = "2018-05-17 03:53:43 +0000";
layers = (
{
anchors = (
{
name = top;
position = "{262, 830}";
}
);
layerId = "B61D43DE-5272-4FF4-A680-608B6BF5ED9E";
paths = (
{
closed = 1;
nodes = (
"17 0 OFFCURVE",
"83 -15 OFFCURVE",
"119 -15 CURVE SMOOTH",
"277 -15 OFFCURVE",
"327 85 OFFCURVE",
"327 209 CURVE SMOOTH",
"327 697 LINE",
"197 697 LINE",
"197 197 LINE SMOOTH",
"197 102 OFFCURVE",
"152 96 OFFCURVE",
"113 96 CURVE SMOOTH",
"87 96 OFFCURVE",
"58 111 OFFCURVE",
"41 136 CURVE",
"-7 17 LINE"
);
}
);
width = 400;
}
);
leftKerningGroup = J;
rightKerningGroup = U;
unicode = 004A;
userData = {
com.typemytype.robofont.mark = (
0.656,
1,
0.6,
1
);
};
},
{
color = 4;
glyphname = K;
lastChange = "2018-05-18 14:45:02 +0000";
layers = (
{
anchors = (
{
name = btm;
position = "{310, 0}";
},
{
name = top;
position = "{304, 830}";
}
);
layerId = "B61D43DE-5272-4FF4-A680-608B6BF5ED9E";
paths = (
{
closed = 1;
nodes = (
"435 0 LINE",
"595 0 LINE",
"324 375 LINE",
"327 330 LINE",
"579 697 LINE",
"432 697 LINE",
"203 342 LINE"
);
},
{
closed = 1;
nodes = (
"212 0 LINE",
"212 697 LINE",
"83 697 LINE",
"83 0 LINE"
);
}
);
width = 595;
}
);
leftKerningGroup = H;
leftMetricsKey = H;
rightKerningGroup = K;
unicode = 004B;
userData = {
com.typemytype.robofont.mark = (
0.656,
1,
0.6,
1
);
};
},
{
color = 4;
glyphname = L;
lastChange = "2018-05-18 14:44:57 +0000";
layers = (
{
anchors = (
{
name = btm;
position = "{240, 0}";
},
{
name = car;
position = "{331, 830}";
},
{
name = top;
position = "{152, 830}";
}
);
layerId = "B61D43DE-5272-4FF4-A680-608B6BF5ED9E";
paths = (
{
closed = 1;
nodes = (
"418 0 LINE",
"418 110 LINE",
"197 110 LINE",
"212 87 LINE",
"212 697 LINE",
"83 697 LINE",
"83 0 LINE"
);
}
);
width = 444;
}
);
leftKerningGroup = H;
leftMetricsKey = H;
rightKerningGroup = L;
unicode = 004C;
userData = {
com.typemytype.robofont.mark = (
0.656,
1,
0.6,
1
);
};
},
{
color = 4;
glyphname = Lslash;
lastChange = "2018-05-17 02:33:02 +0000";
layers = (
{
components = (
{
name = L;
transform = "{1, 0, 0, 1, -5, 0}";
}
);
layerId = "B61D43DE-5272-4FF4-A680-608B6BF5ED9E";
paths = (
{
closed = 1;
nodes = (
"350 417 LINE",
"350 509 LINE",
"0 364 LINE",
"0 272 LINE"
);
}
);
width = 428;
}
);
leftKerningGroup = H;
rightKerningGroup = L;
unicode = 0141;
userData = {
com.typemytype.robofont.mark = (
0.6,
0.986,
1,
1
);
};
},
{
color = 4;
glyphname = M;
lastChange = "2018-05-18 14:45:22 +0000";
layers = (
{
anchors = (
{
name = btm;
position = "{374, 0}";
},
{
name = top;
position = "{374, 830}";
}
);
layerId = "B61D43DE-5272-4FF4-A680-608B6BF5ED9E";
paths = (
{
closed = 1;
nodes = (
"209 0 LINE",
"209 299 LINE",
"200 500 LINE",
"183 441 LINE",
"237 363 LINE",
"374 202 LINE",
"511 363 LINE",
"565 440 LINE",
"548 500 LINE",
"540 299 LINE",
"540 0 LINE",
"666 0 LINE",
"666 717 LINE",
"360 359 LINE",
"390 359 LINE",
"83 717 LINE",
"83 0 LINE"
);
}
);
width = 749;
}
);
leftKerningGroup = M;
leftMetricsKey = H;
rightKerningGroup = M;
rightMetricsKey = H;
unicode = 004D;
userData = {
com.typemytype.robofont.guides = (
{
angle = 0;
isGlobal = 0;
magnetic = 5;
x = 0;
y = 729;
},
{
angle = 90;
isGlobal = 0;
magnetic = 5;
x = 764;
y = 0;
}
);
com.typemytype.robofont.mark = (
0.656,
1,
0.6,
1
);
};
},
{
color = 4;
glyphname = N;
lastChange = "2018-05-18 14:45:46 +0000";
layers = (
{
anchors = (
{
name = btm;
position = "{347, 0}";
},
{
name = top;
position = "{318, 830}";
}
);
layerId = "B61D43DE-5272-4FF4-A680-608B6BF5ED9E";
paths = (
{
closed = 1;
nodes = (
"206 0 LINE",
"206 321 LINE",
"196 504 LINE",
"130 486 LINE",
"232 365 LINE",
"576 -20 LINE",
"576 697 LINE",
"453 697 LINE",
"453 356 LINE",
"463 189 LINE",
"523 205 LINE",
"423 325 LINE",
"83 715 LINE",
"83 0 LINE"
);
}
);
width = 659;
}
);
leftKerningGroup = H;
leftMetricsKey = H;
rightKerningGroup = H;
rightMetricsKey = H;
unicode = 004E;
userData = {
com.typemytype.robofont.mark = (
0.656,
1,
0.6,
1
);
};
},
{
color = 4;
glyphname = Eng;
lastChange = "2018-05-17 02:33:02 +0000";
layers = (
{
layerId = "B61D43DE-5272-4FF4-A680-608B6BF5ED9E";
paths = (
{
closed = 1;
nodes = (
"203 0 LINE",
"203 504 LINE",
"124 476 LINE",
"569 -44 LINE",
"569 697 LINE",
"441 697 LINE",
"441 189 LINE",
"516 186 LINE",
"76 715 LINE",
"76 0 LINE"
);
},
{
closed = 1;
nodes = (
"441 -39 LINE",
"441 -123 OFFCURVE",
"412 -145 OFFCURVE",
"367 -145 CURVE SMOOTH",
"325 -145 OFFCURVE",
"252 -114 OFFCURVE",
"240 -88 CURVE",
"289 -55 LINE",
"211 -282 LINE",
"203 -196 LINE",
"217 -226 OFFCURVE",
"281 -255 OFFCURVE",
"389 -255 CURVE SMOOTH",
"488 -255 OFFCURVE",
"569 -196 OFFCURVE",
"569 -44 CURVE",
"534 62 LINE",
"441 107 LINE"
);
}
);
width = 645;
}
);
leftKerningGroup = Eng;
rightKerningGroup = Eng;
unicode = 014A;
userData = {
com.typemytype.robofont.mark = (
0.6,
0.986,
1,
1
);
};
},
{
color = 4;
glyphname = O;
lastChange = "2018-05-17 03:53:43 +0000";
layers = (
{
anchors = (
{
name = btm;
position = "{330, 0}";
},
{
name = top;
position = "{329, 830}";
}
);
layerId = "B61D43DE-5272-4FF4-A680-608B6BF5ED9E";
paths = (
{
closed = 1;
nodes = (
"39 129 OFFCURVE",
"141 -13 OFFCURVE",
"330 -13 CURVE SMOOTH",
"516 -13 OFFCURVE",
"619 129 OFFCURVE",
"619 348 CURVE SMOOTH",
"619 562 OFFCURVE",
"522 709 OFFCURVE",
"327 709 CURVE SMOOTH",
"140 709 OFFCURVE",
"39 565 OFFCURVE",
"39 348 CURVE SMOOTH"
);
},
{
closed = 1;
nodes = (
"173 518 OFFCURVE",
"230 607 OFFCURVE",
"327 607 CURVE SMOOTH",
"426 607 OFFCURVE",
"486 518 OFFCURVE",
"486 351 CURVE SMOOTH",
"486 177 OFFCURVE",
"417 92 OFFCURVE",
"330 92 CURVE SMOOTH",
"236 92 OFFCURVE",
"173 176 OFFCURVE",
"173 350 CURVE SMOOTH"
);
}
);
width = 658;
}
);
leftKerningGroup = O;
rightKerningGroup = O;
unicode = 004F;
userData = {
com.typemytype.robofont.mark = (
0.656,
1,
0.6,
1
);
};
},
{
color = 4;
glyphname = Ohorn;
lastChange = "2018-05-17 02:33:02 +0000";
layers = (
{
anchors = (
{
name = btm;
position = "{330, 0}";
},
{
name = top;
position = "{329, 830}";
}
);
layerId = "B61D43DE-5272-4FF4-A680-608B6BF5ED9E";
paths = (
{
closed = 1;
nodes = (
"39 129 OFFCURVE",
"141 -13 OFFCURVE",
"330 -13 CURVE SMOOTH",
"516 -13 OFFCURVE",
"609 129 OFFCURVE",
"619 348 CURVE SMOOTH",
"629 562 OFFCURVE",
"522 709 OFFCURVE",
"327 709 CURVE SMOOTH",
"140 709 OFFCURVE",
"39 565 OFFCURVE",
"39 348 CURVE SMOOTH"
);
},
{
closed = 1;
nodes = (
"173 518 OFFCURVE",
"230 607 OFFCURVE",
"327 607 CURVE SMOOTH",
"426 607 OFFCURVE",
"486 518 OFFCURVE",
"486 351 CURVE SMOOTH",
"486 177 OFFCURVE",
"417 92 OFFCURVE",
"330 92 CURVE SMOOTH",
"236 92 OFFCURVE",
"173 176 OFFCURVE",
"173 350 CURVE SMOOTH"
);
},
{
closed = 1;
nodes = (
"516 618 LINE",
"573 618 OFFCURVE",
"642 681 OFFCURVE",
"642 763 CURVE SMOOTH",
"642 804 OFFCURVE",
"640 819 OFFCURVE",
"635 835 CURVE",
"531 835 LINE",
"537 819 OFFCURVE",
"539 805 OFFCURVE",
"539 778 CURVE SMOOTH",
"539 721 OFFCURVE",
"505 683 OFFCURVE",
"452 683 CURVE"
);
}
);
width = 658;
}
);
leftKerningGroup = O;
rightKerningGroup = O;
unicode = 01A0;
userData = {
com.typemytype.robofont.mark = (
0.6,
0.609,
1,
1
);
};
},
{
color = 4;
glyphname = Oogonek;
lastChange = "2018-05-17 13:11:57 +0000";
layers = (
{
components = (
{
name = O;
}
);
layerId = "B61D43DE-5272-4FF4-A680-608B6BF5ED9E";
paths = (
{
closed = 1;
nodes = (
"197 -198 OFFCURVE",
"252 -250 OFFCURVE",
"357 -250 CURVE SMOOTH",
"413 -250 OFFCURVE",
"455 -234 OFFCURVE",
"467 -213 CURVE",
"441 -288 LINE",
"441 -68 LINE",
"487 -99 LINE",
"451 -140 OFFCURVE",
"406 -149 OFFCURVE",
"373 -149 CURVE SMOOTH",
"334 -149 OFFCURVE",
"311 -135 OFFCURVE",
"311 -101 CURVE SMOOTH",
"311 -58 OFFCURVE",
"351 -17 OFFCURVE",
"421 0 CURVE",
"368 33 LINE",
"311 6 LINE",
"216 -18 OFFCURVE",
"199 -77 OFFCURVE",
"198 -126 CURVE"
);
}
);
width = 658;
}
);
unicode = 01EA;
},
{
color = 0;
glyphname = Oslash;
lastChange = "2018-05-17 03:53:43 +0000";
layers = (
{
anchors = (
{
name = btm;
position = "{325.089, 0}";
},
{
name = top;
position = "{324.102, 830.078}";
}
);
layerId = "B61D43DE-5272-4FF4-A680-608B6BF5ED9E";
paths = (
{
closed = 1;
nodes = (
"127 -60 LINE",
"199 62 LINE",
"212 88 LINE",
"477 600 LINE",
"498 618 LINE",
"560 729 LINE",
"500 765 LINE",
"440 661 LINE",
"425 619 LINE",
"173 123 LINE",
"152 119 LINE",
"68 -22 LINE"
);
},
{
closed = 1;
nodes = (
"34 129 OFFCURVE",
"136 -13 OFFCURVE",
"325 -13 CURVE SMOOTH",
"511 -13 OFFCURVE",
"614 129 OFFCURVE",
"614 348 CURVE SMOOTH",
"614 562 OFFCURVE",
"517 709 OFFCURVE",
"322 709 CURVE SMOOTH",
"135 709 OFFCURVE",
"34 565 OFFCURVE",
"34 348 CURVE SMOOTH"
);
},
{
closed = 1;
nodes = (
"168 518 OFFCURVE",
"225 607 OFFCURVE",
"322 607 CURVE SMOOTH",
"421 607 OFFCURVE",
"481 518 OFFCURVE",
"481 351 CURVE SMOOTH",
"481 177 OFFCURVE",
"412 92 OFFCURVE",
"325 92 CURVE SMOOTH",
"231 92 OFFCURVE",
"168 176 OFFCURVE",
"168 350 CURVE SMOOTH"
);
}
);
width = 648;
}
);
leftKerningGroup = O;
rightKerningGroup = O;
unicode = 00D8;
userData = {
com.typemytype.robofont.mark = (
0.656,
1,
0.6,
1
);
};
},
{
color = 0;
glyphname = OE;
lastChange = "2018-05-18 14:52:01 +0000";
layers = (
{
anchors = (
{
name = btm;
position = "{1289, 0}";
},
{
name = top;
position = "{1288, 830}";
}
);
layerId = "B61D43DE-5272-4FF4-A680-608B6BF5ED9E";
paths = (
{
closed = 1;
nodes = (
"39 129 OFFCURVE",
"141 -13 OFFCURVE",
"330 -13 CURVE SMOOTH",
"516 -13 OFFCURVE",
"569 99 OFFCURVE",
"569 348 CURVE SMOOTH",
"569 592 OFFCURVE",
"522 709 OFFCURVE",
"327 709 CURVE SMOOTH",
"140 709 OFFCURVE",
"39 565 OFFCURVE",
"39 348 CURVE SMOOTH"
);
},
{
closed = 1;
nodes = (
"173 518 OFFCURVE",
"230 607 OFFCURVE",
"327 607 CURVE SMOOTH",
"426 607 OFFCURVE",
"486 518 OFFCURVE",
"486 351 CURVE SMOOTH",
"486 177 OFFCURVE",
"417 92 OFFCURVE",
"330 92 CURVE SMOOTH",
"236 92 OFFCURVE",
"173 176 OFFCURVE",
"173 350 CURVE SMOOTH"
);
},
{
closed = 1;
nodes = (
"918 0 LINE",
"918 110 LINE",
"647 110 LINE",
"663 91 LINE",
"663 336 LINE",
"645 319 LINE",
"849 319 LINE",
"849 425 LINE",
"645 425 LINE",
"663 408 LINE",
"663 605 LINE",
"647 591 LINE",
"898 591 LINE",
"898 697 LINE",
"534 697 LINE",
"534 0 LINE"
);
}
);
width = 959;
}
);
leftKerningGroup = O;
leftMetricsKey = O;
rightKerningGroup = E;
rightMetricsKey = E;
unicode = 0152;
userData = {
com.typemytype.robofont.mark = (
0.656,
1,
0.6,
1
);
};
},
{
color = 4;
glyphname = P;
lastChange = "2018-05-18 14:45:56 +0000";
layers = (
{
anchors = (
{
name = top;
position = "{301, 830}";
}
);
layerId = "B61D43DE-5272-4FF4-A680-608B6BF5ED9E";
paths = (
{
closed = 1;
nodes = (
"212 0 LINE",
"212 226 LINE",
"197 175 LINE",
"274 175 LINE",
"451 175 OFFCURVE",
"526 310 OFFCURVE",
"526 447 CURVE SMOOTH",
"526 636 OFFCURVE",
"412 697 OFFCURVE",
"270 697 CURVE SMOOTH",
"83 697 LINE",
"83 0 LINE"
);
},
{
closed = 1;
nodes = (
"212 265 LINE",
"212 614 LINE",
"197 596 LINE",
"267 596 LINE SMOOTH",
"367 596 OFFCURVE",
"397 542 OFFCURVE",
"397 440 CURVE SMOOTH",
"397 340 OFFCURVE",
"358 277 OFFCURVE",
"270 277 CURVE SMOOTH",
"194 277 LINE"
);
}
);
width = 544;
}
);
leftKerningGroup = H;
leftMetricsKey = H;
rightKerningGroup = P;
unicode = 0050;
userData = {
com.typemytype.robofont.mark = (
0.656,
1,
0.6,
1
);
};
},
{
color = 4;
glyphname = Thorn;
lastChange = "2018-05-18 14:46:05 +0000";
layers = (
{
layerId = "B61D43DE-5272-4FF4-A680-608B6BF5ED9E";
paths = (
{
closed = 1;
nodes = (
"212 0 LINE",
"212 167 LINE",
"151 106 LINE",
"259 106 LINE SMOOTH",
"463 106 OFFCURVE",
"539 220 OFFCURVE",
"539 348 CURVE SMOOTH",
"539 528 OFFCURVE",
"426 588 OFFCURVE",
"269 588 CURVE SMOOTH",
"151 588 LINE",
"212 527 LINE",
"212 697 LINE",
"83 697 LINE",
"83 0 LINE"
);
},
{
closed = 1;
nodes = (
"212 548 LINE",
"151 487 LINE",
"267 487 LINE SMOOTH",
"379 487 OFFCURVE",
"410 430 OFFCURVE",
"410 341 CURVE SMOOTH",
"410 254 OFFCURVE",
"374 208 OFFCURVE",
"262 208 CURVE SMOOTH",
"151 208 LINE",
"212 147 LINE"
);
}
);
width = 557;
}
);
leftKerningGroup = H;
leftMetricsKey = H;
rightKerningGroup = Thorn;
rightMetricsKey = P;
unicode = 00DE;
userData = {
com.typemytype.robofont.mark = (
0.656,
1,
0.6,
1
);
};
},
{
color = 4;
glyphname = Q;
lastChange = "2018-05-17 03:53:43 +0000";
layers = (
{
anchors = (
{
name = top;
position = "{347, 830}";
}
);
components = (
{
name = O;
}
);
layerId = "B61D43DE-5272-4FF4-A680-608B6BF5ED9E";
paths = (
{
closed = 1;
nodes = (
"646 -72 LINE",
"647 50 LINE",
"389 50 LINE",
"362 0 LINE"
);
}
);
width = 658;
}
);
leftKerningGroup = O;
rightKerningGroup = O;
unicode = 0051;
userData = {
com.typemytype.robofont.mark = (
0.656,
1,
0.6,
1
);
};
},
{
color = 4;
glyphname = R;
lastChange = "2018-05-18 14:46:13 +0000";
layers = (
{
anchors = (
{
name = btm;
position = "{293, 0}";
},
{
name = top;
position = "{309, 830}";
}
);
layerId = "B61D43DE-5272-4FF4-A680-608B6BF5ED9E";
paths = (
{
closed = 1;
nodes = (
"351 300 OFFCURVE",
"397 360 OFFCURVE",
"397 448 CURVE",
"397 538 OFFCURVE",
"360 597 OFFCURVE",
"260 597 CURVE SMOOTH",
"192 597 LINE",
"210 613 LINE",
"210 289 LINE",
"190 300 LINE",
"263 300 LINE"
);
},
{
closed = 1;
nodes = (
"210 0 LINE",
"83 0 LINE",
"83 697 LINE",
"270 697 LINE SMOOTH",
"412 697 OFFCURVE",
"525 621 OFFCURVE",
"525 454 CURVE SMOOTH",
"525 333 OFFCURVE",
"464 204 OFFCURVE",
"274 215 CURVE",
"348 244 LINE",
"544 0 LINE",
"389 0 LINE",
"205 240 LINE",
"210 249 LINE"
);
}
);
width = 576;
}
);
leftKerningGroup = H;
leftMetricsKey = H;
rightKerningGroup = R;
unicode = 0052;
userData = {
com.typemytype.robofont.mark = (
0.656,
1,
0.6,
1
);
};
},
{
color = 4;
glyphname = S;
lastChange = "2018-05-17 03:53:43 +0000";
layers = (
{
anchors = (
{
name = btm;
position = "{259, 0}";
},
{
name = top;
position = "{269, 830}";
}
);
layerId = "B61D43DE-5272-4FF4-A680-608B6BF5ED9E";
paths = (
{
closed = 1;
nodes = (
"79 29 OFFCURVE",
"157 -11 OFFCURVE",
"251 -11 CURVE SMOOTH",
"384 -11 OFFCURVE",
"465 55 OFFCURVE",
"469 183 CURVE SMOOTH",
"473 301 OFFCURVE",
"389 350 OFFCURVE",
"293 408 CURVE SMOOTH",
"237 444 OFFCURVE",
"191 470 OFFCURVE",
"191 529 CURVE SMOOTH",
"191 566 OFFCURVE",
"220 603 OFFCURVE",
"269 603 CURVE SMOOTH",
"333 603 OFFCURVE",
"374 562 OFFCURVE",
"389 542 CURVE",
"445 644 LINE",
"418 668 OFFCURVE",
"369 709 OFFCURVE",
"261 709 CURVE SMOOTH",
"133 709 OFFCURVE",
"63 624 OFFCURVE",
"61 527 CURVE SMOOTH",
"57 399 OFFCURVE",
"140 352 OFFCURVE",
"230 299 CURVE SMOOTH",
"297 258 OFFCURVE",
"338 233 OFFCURVE",
"338 180 CURVE SMOOTH",
"338 125 OFFCURVE",
"295 97 OFFCURVE",
"248 97 CURVE SMOOTH",
"180 97 OFFCURVE",
"119 141 OFFCURVE",
"96 170 CURVE",
"45 65 LINE"
);
}
);
width = 508;
}
);
leftKerningGroup = S;
rightKerningGroup = S;
unicode = 0053;
userData = {
com.typemytype.robofont.mark = (
0.656,
1,
0.6,
1
);
};
},
{
color = 0;
glyphname = Germandbls;
lastChange = "2018-05-17 12:50:36 +0000";
layers = (
{
layerId = "B61D43DE-5272-4FF4-A680-608B6BF5ED9E";
paths = (
{
closed = 1;
nodes = (
"276 5 OFFCURVE",
"316 -17 OFFCURVE",
"387 -17 CURVE SMOOTH",
"515 -17 OFFCURVE",
"584 85 OFFCURVE",
"584 224 CURVE SMOOTH",
"584 337 OFFCURVE",
"513 356 OFFCURVE",
"393 368 CURVE",
"393 350 LINE",
"470 350 OFFCURVE",
"549 553 OFFCURVE",
"565 610 CURVE",
"565 674 OFFCURVE",
"501 717 OFFCURVE",
"353 717 CURVE SMOOTH",
"258 717 OFFCURVE",
"93 674 OFFCURVE",
"93 508 CURVE SMOOTH",
"93 -83 LINE",
"221 -83 LINE",
"221 519 LINE SMOOTH",
"221 565 OFFCURVE",
"257 619 OFFCURVE",
"317 619 CURVE SMOOTH",
"356 619 OFFCURVE",
"421 632 OFFCURVE",
"448 580 CURVE",
"408 538 OFFCURVE",
"345 381 OFFCURVE",
"303 381 CURVE",
"303 311 LINE",
"401 311 OFFCURVE",
"448 305 OFFCURVE",
"448 222 CURVE SMOOTH",
"448 141 OFFCURVE",
"428 77 OFFCURVE",
"366 77 CURVE SMOOTH",
"331 77 OFFCURVE",
"299 94 OFFCURVE",
"291 102 CURVE",
"257 19 LINE"
);
}
);
width = 590;
}
);
leftKerningGroup = uni1E9E;
rightKerningGroup = uni1E9E;
unicode = 1E9E;
userData = {
com.typemytype.robofont.mark = (
0.6,
0.986,
1,
1
);
};
},
{
color = 0;
glyphname = Schwa;
lastChange = "2018-05-17 12:51:18 +0000";
layers = (
{
anchors = (
{
name = top;
position = "{320, 830}";
}
);
layerId = "B61D43DE-5272-4FF4-A680-608B6BF5ED9E";
paths = (
{
closed = 1;
nodes = (
"383 599 OFFCURVE",
"444 510 OFFCURVE",
"444 360 CURVE SMOOTH",
"444 199 OFFCURVE",
"395 89 OFFCURVE",
"283 89 CURVE SMOOTH",
"201 89 OFFCURVE",
"164 141 OFFCURVE",
"164 237 CURVE SMOOTH",
"164 242 OFFCURVE",
"165 277 OFFCURVE",
"165 283 CURVE",
"110 254 LINE",
"520 254 LINE",
"520 359 LINE",
"39 359 LINE",
"39 290 LINE",
"39 71 OFFCURVE",
"131 -18 OFFCURVE",
"286 -18 CURVE SMOOTH",
"481 -18 OFFCURVE",
"584 131 OFFCURVE",
"584 360 CURVE SMOOTH",
"584 585 OFFCURVE",
"476 714 OFFCURVE",
"295 714 CURVE SMOOTH",
"175 714 OFFCURVE",
"103 668 OFFCURVE",
"72 646 CURVE",
"128 543 LINE",
"183 582 OFFCURVE",
"223 599 OFFCURVE",
"287 599 CURVE SMOOTH"
);
}
);
width = 618;
}
);
leftKerningGroup = uni018F;
rightKerningGroup = uni018F;
unicode = 018F;
userData = {
com.typemytype.robofont.mark = (
0.6,
0.986,
1,
1
);
};
},
{
color = 4;
glyphname = T;
lastChange = "2018-05-17 03:53:43 +0000";
layers = (
{
anchors = (
{
name = btm;
position = "{244, 0}";
},
{
name = top;
position = "{244, 830}";
}
);
layerId = "B61D43DE-5272-4FF4-A680-608B6BF5ED9E";
paths = (
{
closed = 1;
nodes = (
"310 0 LINE",
"310 607 LINE",
"294 584 LINE",
"469 584 LINE",
"469 697 LINE",
"18 697 LINE",
"18 584 LINE",
"193 584 LINE",
"180 607 LINE",
"180 0 LINE"
);
}
);
width = 487;
}
);
leftKerningGroup = T;
rightKerningGroup = T;
unicode = 0054;
userData = {
com.typemytype.robofont.mark = (
0.656,
1,
0.6,
1
);
};
},
{
color = 4;
glyphname = Tbar;
lastChange = "2018-05-17 02:33:02 +0000";
layers = (
{
components = (
{
name = T;
transform = "{1, 0, 0, 1, -2, 0}";
}
);
layerId = "B61D43DE-5272-4FF4-A680-608B6BF5ED9E";
paths = (
{
closed = 1;
nodes = (
"436 316 LINE",
"436 401 LINE",
"69 401 LINE",
"69 316 LINE"
);
}
);
width = 482;
}
);
leftKerningGroup = T;
rightKerningGroup = T;
unicode = 0166;
userData = {
com.typemytype.robofont.mark = (
0.6,
0.986,
1,
1
);
};
},
{
color = 4;
glyphname = U;
lastChange = "2018-05-17 03:53:43 +0000";
layers = (
{
anchors = (
{
name = btm;
position = "{316, 0}";
},
{
name = top;
position = "{314, 830}";
}
);
layerId = "B61D43DE-5272-4FF4-A680-608B6BF5ED9E";
paths = (
{
closed = 1;
nodes = (
"70 49 OFFCURVE",
"181 -18 OFFCURVE",
"318 -18 CURVE SMOOTH",
"451 -18 OFFCURVE",
"559 49 OFFCURVE",
"559 249 CURVE SMOOTH",
"559 697 LINE",
"429 697 LINE",
"429 235 LINE SMOOTH",
"429 116 OFFCURVE",
"365 90 OFFCURVE",
"316 90 CURVE SMOOTH",
"269 90 OFFCURVE",
"200 117 OFFCURVE",
"200 235 CURVE SMOOTH",
"200 697 LINE",
"70 697 LINE",
"70 249 LINE"
);
}
);
width = 629;
}
);
leftKerningGroup = U;
rightKerningGroup = U;
unicode = 0055;
userData = {
com.typemytype.robofont.mark = (
0.656,
1,
0.6,
1
);
};
},
{
color = 4;
glyphname = Uhorn;
lastChange = "2018-05-17 02:33:02 +0000";
layers = (
{
anchors = (
{
name = btm;
position = "{316, 0}";
},
{
name = top;
position = "{314, 830}";
}
);
layerId = "B61D43DE-5272-4FF4-A680-608B6BF5ED9E";
paths = (
{
closed = 1;
nodes = (
"70 49 OFFCURVE",
"181 -18 OFFCURVE",
"318 -18 CURVE SMOOTH",
"451 -18 OFFCURVE",
"559 49 OFFCURVE",
"559 249 CURVE SMOOTH",
"559 697 LINE",
"429 697 LINE",
"429 235 LINE SMOOTH",
"429 116 OFFCURVE",
"365 90 OFFCURVE",
"316 90 CURVE SMOOTH",
"269 90 OFFCURVE",
"200 117 OFFCURVE",
"200 235 CURVE SMOOTH",
"200 697 LINE",
"70 697 LINE",
"70 249 LINE"
);
},
{
closed = 1;
nodes = (
"510 632 LINE",
"567 632 OFFCURVE",
"636 681 OFFCURVE",
"636 763 CURVE SMOOTH",
"636 804 OFFCURVE",
"634 819 OFFCURVE",
"629 835 CURVE",
"525 835 LINE",
"531 819 OFFCURVE",
"533 805 OFFCURVE",
"533 778 CURVE SMOOTH",
"533 721 OFFCURVE",
"499 697 OFFCURVE",
"446 697 CURVE"
);
}
);
width = 629;
}
);
leftKerningGroup = U;
rightKerningGroup = U;
unicode = 01AF;
userData = {
com.typemytype.robofont.mark = (
0.6,
0.609,
1,
1
);
};
},
{
color = 4;
glyphname = Uogonek;
lastChange = "2018-05-17 13:11:44 +0000";
layers = (
{
components = (
{
name = U;
}
);
layerId = "B61D43DE-5272-4FF4-A680-608B6BF5ED9E";
paths = (
{
closed = 1;
nodes = (
"181 -198 OFFCURVE",
"236 -250 OFFCURVE",
"341 -250 CURVE SMOOTH",
"397 -250 OFFCURVE",
"439 -234 OFFCURVE",
"451 -213 CURVE",
"425 -288 LINE",
"425 -68 LINE",
"471 -99 LINE",
"435 -140 OFFCURVE",
"390 -149 OFFCURVE",
"357 -149 CURVE SMOOTH",
"318 -149 OFFCURVE",
"295 -135 OFFCURVE",
"295 -101 CURVE SMOOTH",
"295 -58 OFFCURVE",
"355 -17 OFFCURVE",
"425 0 CURVE",
"372 33 LINE",
"315 6 LINE",
"220 -18 OFFCURVE",
"183 -77 OFFCURVE",
"182 -126 CURVE"
);
}
);
width = 629;
}
);
leftKerningGroup = U;
rightKerningGroup = U;
unicode = 0172;
userData = {
com.typemytype.robofont.mark = (
0.6,
0.986,
1,
1
);
};
},
{
color = 4;
glyphname = V;
lastChange = "2018-05-17 03:53:43 +0000";
layers = (
{
anchors = (
{
name = top;
position = "{274, 830}";
}
);
layerId = "B61D43DE-5272-4FF4-A680-608B6BF5ED9E";
paths = (
{
closed = 1;
nodes = (
"559 697 LINE",
"420 697 LINE",
"258 235 LINE",
"297 235 LINE",
"131 697 LINE",
"-10 697 LINE",
"278 -22 LINE"
);
}
);
width = 549;
}
);
leftKerningGroup = V;
rightKerningGroup = V;
unicode = 0056;
userData = {
com.typemytype.robofont.mark = (
0.656,
1,
0.6,
1
);
};
},
{
color = 4;
glyphname = W;
lastChange = "2018-05-17 03:53:43 +0000";
layers = (
{
anchors = (
{
name = top;
position = "{400, 830}";
}
);
layerId = "B61D43DE-5272-4FF4-A680-608B6BF5ED9E";
paths = (
{
closed = 1;
nodes = (
"274 213 LINE",
"128 697 LINE",
"-10 697 LINE",
"231 -22 LINE",
"418 443 LINE",
"383 443 LINE",
"573 -22 LINE",
"811 697 LINE",
"674 697 LINE",
"534 206 LINE",
"592 206 LINE",
"403 714 LINE",
"225 225 LINE"
);
}
);
width = 801;
}
);
leftKerningGroup = W;
rightKerningGroup = W;
unicode = 0057;
userData = {
com.typemytype.robofont.guides = (
{
angle = 0;
isGlobal = 0;
magnetic = 5;
x = 0;
y = 615;
}
);
com.typemytype.robofont.mark = (
0.656,
1,
0.6,
1
);
};
},
{
color = 4;
glyphname = X;
lastChange = "2018-05-17 03:53:43 +0000";
layers = (
{
anchors = (
{
name = top;
position = "{278, 830}";
}
);
layerId = "B61D43DE-5272-4FF4-A680-608B6BF5ED9E";
paths = (
{
closed = 1;
nodes = (
"161 0 LINE",
"286 295 LINE",
"260 295 LINE",
"395 0 LINE",
"552 0 LINE",
"356 363 LINE",
"357 331 LINE",
"547 697 LINE",
"400 697 LINE",
"267 402 LINE",
"296 402 LINE",
"158 697 LINE",
"8 697 LINE",
"200 337 LINE",
"199 380 LINE",
"5 0 LINE"
);
}
);
width = 556;
}
);
leftKerningGroup = X;
rightKerningGroup = X;
unicode = 0058;
userData = {
com.typemytype.robofont.mark = (
0.656,
1,
0.6,
1
);
};
},
{
color = 4;
glyphname = Y;
lastChange = "2018-05-17 03:53:43 +0000";
layers = (
{
anchors = (
{
name = btm;
position = "{273, 0}";
},
{
name = top;
position = "{283, 830}";
}
);
layerId = "B61D43DE-5272-4FF4-A680-608B6BF5ED9E";
paths = (
{
closed = 1;
nodes = (
"335 0 LINE",
"335 332 LINE",
"203 332 LINE",
"203 0 LINE"
);
},
{
closed = 1;
nodes = (
"554 697 LINE",
"415 697 LINE",
"256 354 LINE",
"294 354 LINE",
"127 697 LINE",
"-15 697 LINE",
"273 155 LINE"
);
}
);
width = 539;
}
);
leftKerningGroup = Y;
rightKerningGroup = Y;
unicode = 0059;
userData = {
com.typemytype.robofont.mark = (
0.656,
1,
0.6,
1
);
};
},
{
color = 4;
glyphname = Z;
lastChange = "2018-05-17 03:53:43 +0000";
layers = (
{
anchors = (
{
name = btm;
position = "{254, 0}";
},
{
name = top;
position = "{280, 830}";
}
);
layerId = "B61D43DE-5272-4FF4-A680-608B6BF5ED9E";
paths = (
{
closed = 1;
nodes = (
"485 0 LINE",
"485 103 LINE",
"158 103 LINE",
"202 44 LINE",
"496 697 LINE",
"63 697 LINE",
"63 594 LINE",
"333 594 LINE",
"328 643 LINE",
"31 0 LINE"
);
}
);
width = 524;
}
);
leftKerningGroup = Z;
rightKerningGroup = Z;
unicode = 005A;
userData = {
com.typemytype.robofont.mark = (
0.656,
1,
0.6,
1
);
};
},
{
color = 4;
glyphname = a;
lastChange = "2018-05-17 03:53:43 +0000";
layers = (
{
anchors = (
{
name = btm;
position = "{288, 0}";
},
{
name = top;
position = "{287, 830}";
}
);
layerId = "B61D43DE-5272-4FF4-A680-608B6BF5ED9E";
paths = (
{
closed = 1;
nodes = (
"46 90 OFFCURVE",
"122 -15 OFFCURVE",
"244 -15 CURVE SMOOTH",
"314 -15 OFFCURVE",
"358 32 OFFCURVE",
"378 107 CURVE",
"378 0 LINE",
"498 0 LINE",
"498 498 LINE",
"378 498 LINE",
"378 492 OFFCURVE",
"378 416 OFFCURVE",
"378 409 CURVE",
"364 472 OFFCURVE",
"314 510 OFFCURVE",
"245 510 CURVE SMOOTH",
"112 510 OFFCURVE",
"46 412 OFFCURVE",
"46 248 CURVE SMOOTH"
);
},
{
closed = 1;
nodes = (
"177 371 OFFCURVE",
"229 409 OFFCURVE",
"276 409 CURVE SMOOTH",
"337 409 OFFCURVE",
"366 350 OFFCURVE",
"366 246 CURVE SMOOTH",
"366 132 OFFCURVE",
"321 85 OFFCURVE",
"273 85 CURVE SMOOTH",
"218 85 OFFCURVE",
"177 138 OFFCURVE",
"177 248 CURVE SMOOTH"
);
}
);
width = 574;
}
);
leftKerningGroup = a;
rightKerningGroup = n;
unicode = 0061;
userData = {
com.typemytype.robofont.mark = (
0.656,
1,
0.6,
1
);
};
},
{
color = 4;
glyphname = aogonek;
lastChange = "2018-05-17 02:33:02 +0000";
layers = (
{
components = (
{
name = a;
}
);
layerId = "B61D43DE-5272-4FF4-A680-608B6BF5ED9E";
paths = (
{
closed = 1;
nodes = (
"254 -198 OFFCURVE",
"309 -250 OFFCURVE",
"414 -250 CURVE SMOOTH",
"470 -250 OFFCURVE",
"512 -234 OFFCURVE",
"524 -213 CURVE",
"498 -288 LINE",
"498 -68 LINE",
"544 -99 LINE",
"508 -140 OFFCURVE",
"463 -149 OFFCURVE",
"430 -149 CURVE SMOOTH",
"391 -149 OFFCURVE",
"368 -135 OFFCURVE",
"368 -101 CURVE SMOOTH",
"368 -58 OFFCURVE",
"428 -17 OFFCURVE",
"498 0 CURVE",
"445 33 LINE",
"408 10 LINE",
"313 -14 OFFCURVE",
"256 -77 OFFCURVE",
"255 -126 CURVE"
);
}
);
width = 574;
}
);
leftKerningGroup = a;
rightKerningGroup = n;
unicode = 0105;
userData = {
com.typemytype.robofont.mark = (
0.6,
0.986,
1,
1
);
};
},
{
color = 4;
glyphname = aringacute;
lastChange = "2018-05-18 04:00:47 +0000";
layers = (
{
components = (
{
name = a;
}
);
layerId = "B61D43DE-5272-4FF4-A680-608B6BF5ED9E";
paths = (
{
closed = 1;
nodes = (
"364 569 OFFCURVE",
"430 625 OFFCURVE",
"430 705 CURVE SMOOTH",
"430 784 OFFCURVE",
"364 841 OFFCURVE",
"287 841 CURVE SMOOTH",
"210 841 OFFCURVE",
"144 786 OFFCURVE",
"144 705 CURVE SMOOTH",
"144 625 OFFCURVE",
"210 569 OFFCURVE",
"287 569 CURVE SMOOTH"
);
},
{
closed = 1;
nodes = (
"252 635 OFFCURVE",
"220 658 OFFCURVE",
"220 706 CURVE SMOOTH",
"220 757 OFFCURVE",
"252 776 OFFCURVE",
"287 776 CURVE SMOOTH",
"322 776 OFFCURVE",
"354 756 OFFCURVE",
"354 706 CURVE SMOOTH",
"354 658 OFFCURVE",
"322 635 OFFCURVE",
"287 635 CURVE SMOOTH"
);
},
{
closed = 1;
nodes = (
"336 798 LINE",
"461 999 LINE",
"338 999 LINE",
"240 798 LINE"
);
}
);
width = 574;
}
);
unicode = 01FB;
},
{
color = 0;
glyphname = ae;
lastChange = "2018-05-17 03:53:43 +0000";
layers = (
{
anchors = (
{
name = top;
position = "{428, 830}";
}
);
layerId = "B61D43DE-5272-4FF4-A680-608B6BF5ED9E";
paths = (
{
closed = 1;
nodes = (
"46 105 OFFCURVE",
"122 -15 OFFCURVE",
"244 -15 CURVE SMOOTH",
"302 -15 OFFCURVE",
"355 25 OFFCURVE",
"375 78 CURVE",
"375 0 LINE",
"486 0 LINE",
"486 498 LINE",
"375 498 LINE",
"376 493 OFFCURVE",
"375 431 OFFCURVE",
"375 425 CURVE",
"355 485 OFFCURVE",
"292 510 OFFCURVE",
"245 510 CURVE SMOOTH",
"112 510 OFFCURVE",
"46 397 OFFCURVE",
"46 248 CURVE SMOOTH"
);
},
{
closed = 1;
nodes = (
"175 366 OFFCURVE",
"229 409 OFFCURVE",
"276 409 CURVE SMOOTH",
"335 409 OFFCURVE",
"370 345 OFFCURVE",
"370 246 CURVE SMOOTH",
"370 137 OFFCURVE",
"319 85 OFFCURVE",
"273 85 CURVE SMOOTH",
"218 85 OFFCURVE",
"175 143 OFFCURVE",
"175 248 CURVE SMOOTH"
);
},
{
closed = 1;
nodes = (
"690 -18 OFFCURVE",
"744 11 OFFCURVE",
"771 29 CURVE",
"724 124 LINE",
"701 98 OFFCURVE",
"654 77 OFFCURVE",
"612 77 CURVE",
"531 77 OFFCURVE",
"494 129 OFFCURVE",
"490 208 CURVE",
"790 208 LINE",
"791 223 OFFCURVE",
"791 241 OFFCURVE",
"791 255 CURVE SMOOTH",
"791 394 OFFCURVE",
"736 510 OFFCURVE",
"587 510 CURVE SMOOTH",
"457 510 OFFCURVE",
"396 388 OFFCURVE",
"396 243 CURVE SMOOTH",
"396 105 OFFCURVE",
"443 -18 OFFCURVE",
"591 -18 CURVE SMOOTH"
);
},
{
closed = 1;
nodes = (
"495 357 OFFCURVE",
"520 415 OFFCURVE",
"587 415 CURVE SMOOTH",
"628 415 OFFCURVE",
"665 381 OFFCURVE",
"665 287 CURVE",
"491 286 LINE"
);
}
);
width = 839;
}
);
leftKerningGroup = a;
rightKerningGroup = e;
unicode = 00E6;
userData = {
com.typemytype.robofont.mark = (
0.656,
1,
0.6,
1
);
};
},
{
color = 4;
glyphname = b;
lastChange = "2018-05-18 14:18:24 +0000";
layers = (
{
anchors = (
{
name = top;
position = "{375, 830}";
}
);
layerId = "B61D43DE-5272-4FF4-A680-608B6BF5ED9E";
paths = (
{
closed = 1;
nodes = (
"194 0 LINE",
"194 38 LINE",
"193 74 LINE",
"215 14 OFFCURVE",
"269 -15 OFFCURVE",
"325 -15 CURVE",
"435 -15 OFFCURVE",
"521 72 OFFCURVE",
"521 251 CURVE SMOOTH",
"521 430 OFFCURVE",
"458 511 OFFCURVE",
"334 511 CURVE SMOOTH",
"280 511 OFFCURVE",
"220 479 OFFCURVE",
"196 429 CURVE",
"199 482 LINE",
"199 760 LINE",
"76 760 LINE",
"76 0 LINE"
);
},
{
closed = 1;
nodes = (
"199 337 OFFCURVE",
"232 409 OFFCURVE",
"294 409 CURVE SMOOTH",
"345 409 OFFCURVE",
"391 363 OFFCURVE",
"391 251 CURVE SMOOTH",
"391 130 OFFCURVE",
"338 85 OFFCURVE",
"289 85 CURVE SMOOTH",
"231 85 OFFCURVE",
"199 149 OFFCURVE",
"199 243 CURVE SMOOTH"
);
}
);
width = 567;
}
);
leftKerningGroup = h;
rightKerningGroup = o;
unicode = 0062;
userData = {
com.typemytype.robofont.mark = (
0.656,
1,
0.6,
1
);
};
},
{
color = 4;
glyphname = c;
lastChange = "2018-05-17 03:53:43 +0000";
layers = (
{
anchors = (
{
name = btm;
position = "{255, 0}";
},
{
name = top;
position = "{271, 830}";
}
);
layerId = "B61D43DE-5272-4FF4-A680-608B6BF5ED9E";
paths = (
{
closed = 1;
nodes = (
"46 108 OFFCURVE",
"114 -18 OFFCURVE",
"273 -18 CURVE SMOOTH",
"354 -18 OFFCURVE",
"411 18 OFFCURVE",
"430 38 CURVE",
"392 125 LINE",
"373 104 OFFCURVE",
"335 86 OFFCURVE",
"287 86 CURVE SMOOTH",
"214 86 OFFCURVE",
"180 145 OFFCURVE",
"180 246 CURVE SMOOTH",
"180 337 OFFCURVE",
"213 403 OFFCURVE",
"287 403 CURVE SMOOTH",
"321 403 OFFCURVE",
"354 384 OFFCURVE",
"383 354 CURVE",
"424 460 LINE",
"380 502 OFFCURVE",
"328 510 OFFCURVE",
"271 510 CURVE SMOOTH",
"121 510 OFFCURVE",
"46 385 OFFCURVE",
"46 247 CURVE SMOOTH"
);
}
);
width = 451;
}
);
leftKerningGroup = o;
rightKerningGroup = c;
unicode = 0063;
userData = {
com.typemytype.robofont.mark = (
0.656,
1,
0.6,
1
);
};
},
{
color = 4;
glyphname = d;
lastChange = "2018-05-17 04:06:51 +0000";
layers = (
{
anchors = (
{
name = btm;
position = "{255, 0}";
},
{
name = top;
position = "{201, 830}";
}
);
layerId = "B61D43DE-5272-4FF4-A680-608B6BF5ED9E";
paths = (
{
closed = 1;
nodes = (
"46 90 OFFCURVE",
"123 -15 OFFCURVE",
"244 -15 CURVE SMOOTH",
"314 -15 OFFCURVE",
"357 25 OFFCURVE",
"379 68 CURVE",
"377 33 LINE",
"377 0 LINE",
"492 0 LINE",
"492 770 LINE",
"369 770 LINE",
"369 485 LINE",
"376 436 LINE",
"357 470 OFFCURVE",
"314 510 OFFCURVE",
"246 510 CURVE SMOOTH",
"113 510 OFFCURVE",
"46 412 OFFCURVE",
"46 248 CURVE SMOOTH"
);
},
{
closed = 1;
nodes = (
"178 370 OFFCURVE",
"230 409 OFFCURVE",
"277 409 CURVE SMOOTH",
"337 409 OFFCURVE",
"365 350 OFFCURVE",
"365 246 CURVE SMOOTH",
"365 132 OFFCURVE",
"322 85 OFFCURVE",
"274 85 CURVE SMOOTH",
"219 85 OFFCURVE",
"178 138 OFFCURVE",
"178 249 CURVE SMOOTH"
);
}
);
width = 568;
}
);
leftKerningGroup = o;
rightKerningGroup = l;
unicode = 0064;
userData = {
com.typemytype.robofont.mark = (
0.656,
1,
0.6,
1
);
};
},
{
color = 0;
glyphname = eth;
lastChange = "2018-05-17 03:53:43 +0000";
layers = (
{
layerId = "B61D43DE-5272-4FF4-A680-608B6BF5ED9E";
paths = (
{
closed = 1;
nodes = (
"297 660 LINE",
"324 692 LINE",
"382 774 LINE",
"312 819 LINE",
"253 738 LINE",
"222 695 LINE",
"156 605 LINE",
"224 562 LINE"
);
},
{
closed = 1;
nodes = (
"49 94 OFFCURVE",
"152 -17 OFFCURVE",
"274 -17 CURVE SMOOTH",
"408 -17 OFFCURVE",
"514 71 OFFCURVE",
"514 296 CURVE SMOOTH",
"514 473 OFFCURVE",
"429 648 OFFCURVE",
"304 721 CURVE SMOOTH",
"291 729 OFFCURVE",
"277 737 OFFCURVE",
"263 744 CURVE SMOOTH",
"221 767 OFFCURVE",
"175 783 OFFCURVE",
"128 785 CURVE",
"106 711 LINE",
"147 708 OFFCURVE",
"187 693 OFFCURVE",
"225 667 CURVE SMOOTH",
"237 661 OFFCURVE",
"247 652 OFFCURVE",
"258 646 CURVE SMOOTH",
"321 605 OFFCURVE",
"370 529 OFFCURVE",
"378 433 CURVE",
"392 449 LINE",
"357 489 OFFCURVE",
"317 511 OFFCURVE",
"263 511 CURVE SMOOTH",
"120 511 OFFCURVE",
"49 395 OFFCURVE",
"49 242 CURVE SMOOTH"
);
},
{
closed = 1;
nodes = (
"183 337 OFFCURVE",
"217 409 OFFCURVE",
"282 409 CURVE SMOOTH",
"337 409 OFFCURVE",
"369 359 OFFCURVE",
"378 315 CURVE",
"381 294 OFFCURVE",
"381 276 OFFCURVE",
"381 251 CURVE SMOOTH",
"381 157 OFFCURVE",
"347 85 OFFCURVE",
"282 85 CURVE SMOOTH",
"224 85 OFFCURVE",
"183 150 OFFCURVE",
"183 248 CURVE SMOOTH"
);
}
);
width = 558;
}
);
leftKerningGroup = eth;
rightKerningGroup = eth;
unicode = 00F0;
userData = {
com.typemytype.robofont.mark = (
0.656,
1,
0.6,
1
);
};
},
{
color = 0;
glyphname = dcroat;
lastChange = "2018-05-17 02:33:02 +0000";
layers = (
{
components = (
{
name = d;
transform = "{1, 0, 0, 1, 9, 0}";
}
);
layerId = "B61D43DE-5272-4FF4-A680-608B6BF5ED9E";
paths = (
{
closed = 1;
nodes = (
"553 618 LINE",
"554 679 LINE",
"308 679 LINE",
"308 618 LINE"
);
}
);
width = 581;
}
);
leftKerningGroup = o;
rightKerningGroup = l;
unicode = 0111;
userData = {
com.typemytype.robofont.mark = (
0.6,
0.986,
1,
1
);
};
},
{
color = 0;
glyphname = dlinebelow;
lastChange = "2018-05-18 14:18:35 +0000";
layers = (
{
anchors = (
{
name = btm;
position = "{255, 0}";
},
{
name = top;
position = "{201, 830}";
}
);
layerId = "B61D43DE-5272-4FF4-A680-608B6BF5ED9E";
paths = (
{
closed = 1;
nodes = (
"46 90 OFFCURVE",
"123 -15 OFFCURVE",
"244 -15 CURVE SMOOTH",
"314 -15 OFFCURVE",
"357 25 OFFCURVE",
"379 68 CURVE",
"377 33 LINE",
"377 0 LINE",
"492 0 LINE",
"492 760 LINE",
"369 760 LINE",
"369 485 LINE",
"376 436 LINE",
"357 470 OFFCURVE",
"314 510 OFFCURVE",
"246 510 CURVE SMOOTH",
"113 510 OFFCURVE",
"46 412 OFFCURVE",
"46 248 CURVE SMOOTH"
);
},
{
closed = 1;
nodes = (
"178 370 OFFCURVE",
"230 409 OFFCURVE",
"277 409 CURVE SMOOTH",
"337 409 OFFCURVE",
"365 350 OFFCURVE",
"365 246 CURVE SMOOTH",
"365 132 OFFCURVE",
"322 85 OFFCURVE",
"274 85 CURVE SMOOTH",
"219 85 OFFCURVE",
"178 138 OFFCURVE",
"178 249 CURVE SMOOTH"
);
}
);
width = 568;
}
);
unicode = 1E0F;
},
{
glyphname = e;
lastChange = "2018-05-17 03:53:43 +0000";
layers = (
{
anchors = (
{
name = btm;
position = "{290, 0}";
},
{
name = top;
position = "{283, 830}";
}
);
layerId = "B61D43DE-5272-4FF4-A680-608B6BF5ED9E";
paths = (
{
closed = 1;
nodes = (
"380 -18 OFFCURVE",
"435 11 OFFCURVE",
"462 29 CURVE",
"422 124 LINE",
"399 98 OFFCURVE",
"344 77 OFFCURVE",
"303 77 CURVE",
"222 77 OFFCURVE",
"183 129 OFFCURVE",
"179 208 CURVE",
"480 208 LINE",
"481 223 OFFCURVE",
"481 241 OFFCURVE",
"481 255 CURVE SMOOTH",
"481 413 OFFCURVE",
"429 510 OFFCURVE",
"280 510 CURVE SMOOTH",
"130 510 OFFCURVE",
"48 388 OFFCURVE",
"48 243 CURVE SMOOTH",
"48 105 OFFCURVE",
"114 -18 OFFCURVE",
"282 -18 CURVE SMOOTH"
);
},
{
closed = 1;
nodes = (
"182 357 OFFCURVE",
"215 415 OFFCURVE",
"283 415 CURVE SMOOTH",
"324 415 OFFCURVE",
"355 392 OFFCURVE",
"355 287 CURVE",
"178 286 LINE"
);
}
);
width = 525;
}
);
leftKerningGroup = o;
rightKerningGroup = e;
unicode = 0065;
userData = {
com.typemytype.robofont.guides = (
{
angle = 0;
isGlobal = 0;
magnetic = 5;
x = 0;
y = 869;
}
);
com.typemytype.robofont.mark = (
0.656,
1,
0.6,
1
);
};
},
{
color = 4;
glyphname = eogonek;
lastChange = "2018-05-17 02:33:02 +0000";
layers = (
{
components = (
{
name = e;
}
);
layerId = "B61D43DE-5272-4FF4-A680-608B6BF5ED9E";
paths = (
{
closed = 1;
nodes = (
"177 -198 OFFCURVE",
"232 -250 OFFCURVE",
"337 -250 CURVE SMOOTH",
"393 -250 OFFCURVE",
"435 -234 OFFCURVE",
"447 -213 CURVE",
"421 -288 LINE",
"421 -68 LINE",
"467 -99 LINE",
"431 -140 OFFCURVE",
"386 -149 OFFCURVE",
"353 -149 CURVE SMOOTH",
"314 -149 OFFCURVE",
"291 -135 OFFCURVE",
"291 -101 CURVE SMOOTH",
"291 -58 OFFCURVE",
"331 -17 OFFCURVE",
"401 0 CURVE",
"348 33 LINE",
"311 6 LINE",
"216 -18 OFFCURVE",
"179 -77 OFFCURVE",
"178 -126 CURVE"
);
}
);
width = 525;
}
);
leftKerningGroup = o;
leftMetricsKey = e;
rightKerningGroup = e;
rightMetricsKey = e;
unicode = 0119;
userData = {
com.typemytype.robofont.mark = (
0.6,
0.986,
1,
1
);
};
},
{
glyphname = schwa;
lastChange = "2018-05-17 12:51:27 +0000";
layers = (
{
anchors = (
{
name = top;
position = "{279, 830}";
}
);
layerId = "B61D43DE-5272-4FF4-A680-608B6BF5ED9E";
paths = (
{
closed = 1;
nodes = (
"149 510 OFFCURVE",
"95 481 OFFCURVE",
"68 463 CURVE",
"116 369 LINE",
"138 395 OFFCURVE",
"186 415 OFFCURVE",
"227 416 CURVE",
"308 416 OFFCURVE",
"347 363 OFFCURVE",
"351 284 CURVE",
"50 284 LINE",
"49 269 OFFCURVE",
"49 251 OFFCURVE",
"49 237 CURVE SMOOTH",
"49 79 OFFCURVE",
"101 -18 OFFCURVE",
"250 -18 CURVE SMOOTH",
"399 -18 OFFCURVE",
"482 104 OFFCURVE",
"482 250 CURVE SMOOTH",
"482 387 OFFCURVE",
"416 510 OFFCURVE",
"248 510 CURVE"
);
},
{
closed = 1;
nodes = (
"348 135 OFFCURVE",
"320 78 OFFCURVE",
"252 78 CURVE SMOOTH",
"211 78 OFFCURVE",
"174 111 OFFCURVE",
"174 206 CURVE",
"352 206 LINE"
);
}
);
width = 530;
}
);
leftKerningGroup = uni0259;
rightKerningGroup = uni0259;
unicode = 0259;
userData = {
com.typemytype.robofont.guides = (
{
angle = 0;
isGlobal = 0;
magnetic = 5;
x = 0;
y = 869;
}
);
com.typemytype.robofont.mark = (
0.6,
0.986,
1,
1
);
};
},
{
glyphname = f;
lastChange = "2018-05-18 14:21:03 +0000";
layers = (
{
anchors = (
{
name = top;
position = "{193, 1030}";
}
);
layerId = "B61D43DE-5272-4FF4-A680-608B6BF5ED9E";
paths = (
{
closed = 1;
nodes = (
"207 0 LINE",
"207 403 LINE",
"320 403 LINE",
"320 498 LINE",
"207 498 LINE",
"207 583 LINE SMOOTH",
"207 650 OFFCURVE",
"245 673 OFFCURVE",
"282 673 CURVE SMOOTH",
"303 673 OFFCURVE",
"339 664 OFFCURVE",
"354 645 CURVE",
"354 754 LINE",
"348 760 OFFCURVE",
"312 776 OFFCURVE",
"251 776 CURVE SMOOTH",
"184 776 OFFCURVE",
"82 744 OFFCURVE",
"82 590 CURVE SMOOTH",
"82 498 LINE",
"15 498 LINE",
"15 403 LINE",
"82 403 LINE",
"82 0 LINE"
);
}
);
width = 349;
}
);
leftKerningGroup = f;
rightKerningGroup = f;
unicode = 0066;
userData = {
com.typemytype.robofont.mark = (
0.656,
1,
0.6,
1
);
};
},
{
color = 4;
glyphname = g;
lastChange = "2018-05-17 03:53:43 +0000";
layers = (
{
anchors = (
{
name = top;
position = "{292, 830}";
}
);
layerId = "B61D43DE-5272-4FF4-A680-608B6BF5ED9E";
paths = (
{
closed = 1;
nodes = (
"379 0 LINE",
"377 -116 OFFCURVE",
"340 -154 OFFCURVE",
"248 -154 CURVE SMOOTH",
"201 -154 OFFCURVE",
"147 -129 OFFCURVE",
"117 -81 CURVE",
"84 -198 LINE",
"111 -221 OFFCURVE",
"162 -254 OFFCURVE",
"254 -254 CURVE SMOOTH",
"435 -254 OFFCURVE",
"501 -158 OFFCURVE",
"501 8 CURVE SMOOTH",
"501 498 LINE",
"394 498 LINE",
"388 399 LINE",
"410 414 LINE",
"390 464 OFFCURVE",
"337 511 OFFCURVE",
"259 511 CURVE SMOOTH",
"138 511 OFFCURVE",
"50 432 OFFCURVE",
"50 248 CURVE SMOOTH",
"50 67 OFFCURVE",
"148 -17 OFFCURVE",
"248 -17 CURVE SMOOTH",
"329 -17 OFFCURVE",
"370 28 OFFCURVE",
"389 87 CURVE",
"379 87 LINE"
);
},
{
closed = 1;
nodes = (
"185 368 OFFCURVE",
"232 409 OFFCURVE",
"283 409 CURVE SMOOTH",
"344 409 OFFCURVE",
"379 345 OFFCURVE",
"379 250 CURVE SMOOTH",
"379 136 OFFCURVE",
"340 86 OFFCURVE",
"282 86 CURVE SMOOTH",
"225 86 OFFCURVE",
"185 141 OFFCURVE",
"185 249 CURVE SMOOTH"
);
}
);
width = 578;
}
);
leftKerningGroup = g;
rightKerningGroup = g;
unicode = 0067;
userData = {
com.typemytype.robofont.mark = (
0.656,
1,
0.6,
1
);
};
},
{
color = 4;
glyphname = h;
lastChange = "2018-05-18 14:21:29 +0000";
layers = (
{
anchors = (
{
name = btm;
position = "{280, 0}";
},
{
name = top;
position = "{306, 872}";
}
);
layerId = "B61D43DE-5272-4FF4-A680-608B6BF5ED9E";
paths = (
{
closed = 1;
nodes = (
"199 0 LINE",
"199 316 LINE SMOOTH",
"199 371 OFFCURVE",
"242 409 OFFCURVE",
"289 409 CURVE SMOOTH",
"336 409 OFFCURVE",
"364 371 OFFCURVE",
"364 316 CURVE SMOOTH",
"364 0 LINE",
"492 0 LINE",
"492 329 LINE SMOOTH",
"492 442 OFFCURVE",
"443 510 OFFCURVE",
"343 510 CURVE SMOOTH",
"250 510 OFFCURVE",
"199 455 OFFCURVE",
"176 408 CURVE",
"192 388 LINE",
"199 492 LINE",
"199 760 LINE",
"76 760 LINE",
"76 0 LINE"
);
}
);
width = 562;
}
);
leftKerningGroup = h;
rightKerningGroup = n;
unicode = 0068;
userData = {
com.typemytype.robofont.mark = (
0.656,
1,
0.6,
1
);
};
},
{
glyphname = hbar;
lastChange = "2018-05-17 02:33:02 +0000";
layers = (
{
components = (
{
name = h;
transform = "{1, 0, 0, 1, 4, 0}";
}
);
layerId = "B61D43DE-5272-4FF4-A680-608B6BF5ED9E";
paths = (
{
closed = 1;
nodes = (
"307 597 LINE",
"307 657 LINE",
"12 657 LINE",
"12 597 LINE"
);
}
);
width = 569;
}
);
leftKerningGroup = h;
rightKerningGroup = n;
unicode = 0127;
userData = {
com.typemytype.robofont.mark = (
0.6,
0.986,
1,
1
);
};
},
{
glyphname = i;
lastChange = "2018-05-17 03:53:43 +0000";
layers = (
{
anchors = (
{
name = _top;
position = "{140, 831}";
},
{
name = btm;
position = "{143, 0}";
}
);
layerId = "B61D43DE-5272-4FF4-A680-608B6BF5ED9E";
paths = (
{
closed = 1;
nodes = (
"209 0 LINE",
"209 498 LINE",
"76 498 LINE",
"76 0 LINE"
);
},
{
closed = 1;
nodes = (
"207 606 LINE",
"207 739 LINE",
"70 739 LINE",
"70 606 LINE"
);
}
);
width = 279;
}
);
leftKerningGroup = idotless;
rightKerningGroup = idotless;
unicode = 0069;
userData = {
com.typemytype.robofont.mark = (
0.656,
1,
0.6,
1
);
};
},
{
glyphname = idotless;
lastChange = "2018-05-18 04:06:41 +0000";
layers = (
{
anchors = (
{
name = btm;
position = "{142, 0}";
},
{
name = top;
position = "{140, 832}";
}
);
layerId = "B61D43DE-5272-4FF4-A680-608B6BF5ED9E";
paths = (
{
closed = 1;
nodes = (
"206 0 LINE",
"206 498 LINE",
"73 498 LINE",
"73 0 LINE"
);
}
);
width = 279;
}
);
leftKerningGroup = idotless;
rightKerningGroup = idotless;
unicode = 0131;
userData = {
com.typemytype.robofont.mark = (
0.656,
1,
0.6,
1
);
};
},
{
glyphname = iogonek;
lastChange = "2018-05-17 02:33:02 +0000";
layers = (
{
components = (
{
name = idotless;
},
{
name = dotaccentcomb;
transform = "{1, 0, 0, 1, 140, 2}";
}
);
layerId = "B61D43DE-5272-4FF4-A680-608B6BF5ED9E";
paths = (
{
closed = 1;
nodes = (
"-3 -198 OFFCURVE",
"52 -250 OFFCURVE",
"157 -250 CURVE SMOOTH",
"213 -250 OFFCURVE",
"255 -234 OFFCURVE",
"267 -213 CURVE",
"241 -288 LINE",
"241 -68 LINE",
"287 -99 LINE",
"251 -140 OFFCURVE",
"206 -149 OFFCURVE",
"173 -149 CURVE SMOOTH",
"134 -149 OFFCURVE",
"111 -135 OFFCURVE",
"111 -101 CURVE SMOOTH",
"111 -59 OFFCURVE",
"132 -18 OFFCURVE",
"203 0 CURVE",
"150 33 LINE",
"93 6 LINE",
"14 -31 OFFCURVE",
"-1 -77 OFFCURVE",
"-2 -126 CURVE"
);
}
);
width = 285;
}
);
unicode = 012F;
},
{
glyphname = j;
lastChange = "2018-05-17 03:53:43 +0000";
layers = (
{
anchors = (
{
name = _top;
position = "{140.75, 830.078}";
},
{
name = top;
position = "{136.695, 832.031}";
}
);
layerId = "B61D43DE-5272-4FF4-A680-608B6BF5ED9E";
paths = (
{
closed = 1;
nodes = (
"208 604 LINE",
"208 737 LINE",
"71 737 LINE",
"71 604 LINE"
);
},
{
closed = 1;
nodes = (
"50 -250 LINE",
"143 -244 OFFCURVE",
"199 -192 OFFCURVE",
"202 -63 CURVE",
"202 498 LINE",
"76 498 LINE",
"76 -58 LINE",
"76 -124 OFFCURVE",
"49 -173 OFFCURVE",
"7 -174 CURVE"
);
}
);
width = 278;
}
);
leftKerningGroup = dotaccent;
rightKerningGroup = dotlessj;
unicode = 006A;
userData = {
com.typemytype.robofont.mark = (
0.656,
1,
0.6,
1
);
};
},
{
glyphname = jdotless;
lastChange = "2018-05-17 02:33:02 +0000";
layers = (
{
anchors = (
{
name = top;
position = "{138, 832}";
}
);
layerId = "B61D43DE-5272-4FF4-A680-608B6BF5ED9E";
paths = (
{
closed = 1;
nodes = (
"50 -250 LINE",
"143 -244 OFFCURVE",
"199 -192 OFFCURVE",
"202 -63 CURVE",
"202 498 LINE",
"76 498 LINE",
"76 -58 LINE",
"76 -124 OFFCURVE",
"49 -173 OFFCURVE",
"7 -174 CURVE"
);
}
);
width = 281;
}
);
leftKerningGroup = j;
rightKerningGroup = j;
unicode = 0237;
},
{
glyphname = k;
lastChange = "2018-05-18 14:18:46 +0000";
layers = (
{
anchors = (
{
name = btm;
position = "{289, -83}";
},
{
name = top;
position = "{289, 830}";
}
);
layerId = "B61D43DE-5272-4FF4-A680-608B6BF5ED9E";
paths = (
{
closed = 1;
nodes = (
"198 0 LINE",
"198 113 LINE",
"194 227 LINE",
"356 0 LINE",
"509 0 LINE",
"311 269 LINE",
"485 498 LINE",
"341 498 LINE",
"194 284 LINE",
"198 387 LINE",
"198 760 LINE",
"76 760 LINE",
"76 0 LINE"
);
}
);
width = 503;
}
);
leftKerningGroup = h;
rightKerningGroup = k;
unicode = 006B;
userData = {
com.typemytype.robofont.mark = (
0.656,
1,
0.6,
1
);
};
},
{
color = 4;
glyphname = kgreenlandic;
lastChange = "2018-05-17 02:33:02 +0000";
layers = (
{
anchors = (
{
name = btm;
position = "{289, -83}";
},
{
name = top;
position = "{289, 830}";
}
);
layerId = "B61D43DE-5272-4FF4-A680-608B6BF5ED9E";
paths = (
{
closed = 1;
nodes = (
"198 0 LINE",
"198 113 LINE",
"194 227 LINE",
"356 0 LINE",
"509 0 LINE",
"311 269 LINE",
"485 498 LINE",
"341 498 LINE",
"194 284 LINE",
"198 387 LINE",
"198 498 LINE",
"76 498 LINE",
"76 0 LINE"
);
}
);
width = 503;
}
);
leftKerningGroup = h;
leftMetricsKey = n;
rightKerningGroup = k;
rightMetricsKey = k;
unicode = 0138;
userData = {
com.typemytype.robofont.mark = (
0.6,
0.986,
1,
1
);
};
},
{
glyphname = l;
lastChange = "2018-05-18 14:19:42 +0000";
layers = (
{
anchors = (
{
name = btm;
position = "{135, 0}";
},
{
name = top;
position = "{140, 830}";
}
);
layerId = "B61D43DE-5272-4FF4-A680-608B6BF5ED9E";
paths = (
{
closed = 1;
nodes = (
"203 0 LINE",
"203 760 LINE",
"77 760 LINE",
"77 0 LINE"
);
}
);
width = 280;
}
);
leftKerningGroup = h;
rightKerningGroup = l;
unicode = 006C;
userData = {
com.typemytype.robofont.mark = (
0.656,
1,
0.6,
1
);
};
},
{
glyphname = lacute;
lastChange = "2018-05-17 02:33:02 +0000";
layers = (
{
components = (
{
name = acutecomb.case;
transform = "{1, 0, 0, 1, 143, 13}";
}
);
layerId = "B61D43DE-5272-4FF4-A680-608B6BF5ED9E";
paths = (
{
closed = 1;
nodes = (
"210 0 LINE",
"210 697 LINE",
"75 697 LINE",
"75 0 LINE"
);
}
);
width = 286;
}
);
leftKerningGroup = h;
rightKerningGroup = l;
unicode = 013A;
userData = {
com.typemytype.robofont.mark = (
0.6,
0.986,
1,
1
);
};
},
{
color = 0;
glyphname = ldot;
lastChange = "2018-05-17 02:33:02 +0000";
layers = (
{
components = (
{
name = l;
}
);
layerId = "B61D43DE-5272-4FF4-A680-608B6BF5ED9E";
paths = (
{
closed = 1;
nodes = (
"417 333 LINE",
"417 463 LINE",
"284 463 LINE",
"284 333 LINE"
);
}
);
width = 421;
}
);
leftKerningGroup = h;
rightKerningGroup = l;
unicode = 0140;
userData = {
com.typemytype.robofont.mark = (
0.6,
0.986,
1,
1
);
};
},
{
color = 0;
glyphname = lslash;
lastChange = "2018-05-17 02:33:02 +0000";
layers = (
{
components = (
{
name = l;
}
);
layerId = "B61D43DE-5272-4FF4-A680-608B6BF5ED9E";
paths = (
{
closed = 1;
nodes = (
"284 425 LINE",
"284 516 LINE",
"2 384 LINE",
"2 293 LINE"
);
}
);
width = 281;
}
);
leftKerningGroup = lslash;
rightKerningGroup = lslash;
unicode = 0142;
userData = {
com.typemytype.robofont.mark = (
0.6,
0.986,
1,
1
);
};
},
{
color = 4;
glyphname = m;
lastChange = "2018-05-18 14:52:58 +0000";
layers = (
{
anchors = (
{
name = btm;
position = "{430, 0}";
},
{
name = top;
position = "{444, 830}";
}
);
layerId = "B61D43DE-5272-4FF4-A680-608B6BF5ED9E";
paths = (
{
closed = 1;
nodes = (
"492 371 OFFCURVE",
"537 409 OFFCURVE",
"584 409 CURVE SMOOTH",
"632 409 OFFCURVE",
"652 371 OFFCURVE",
"652 316 CURVE SMOOTH",
"652 0 LINE",
"779 0 LINE",
"779 329 LINE SMOOTH",
"779 442 OFFCURVE",
"730 510 OFFCURVE",
"630 510 CURVE SMOOTH",
"537 510 OFFCURVE",
"493 458 OFFCURVE",
"469 413 CURVE",
"466 370 LINE",
"492 316 LINE"
);
},
{
closed = 1;
nodes = (
"204 0 LINE",
"204 316 LINE SMOOTH",
"204 371 OFFCURVE",
"244 411 OFFCURVE",
"292 411 CURVE SMOOTH",
"339 411 OFFCURVE",
"364 371 OFFCURVE",
"364 316 CURVE SMOOTH",
"364 0 LINE",
"492 0 LINE",
"492 326 LINE SMOOTH",
"492 440 OFFCURVE",
"442 510 OFFCURVE",
"341 510 CURVE SMOOTH",
"248 510 OFFCURVE",
"204 455 OFFCURVE",
"180 408 CURVE",
"196 388 LINE",
"191 498 LINE",
"76 498 LINE",
"76 0 LINE"
);
}
);
width = 849;
}
);
leftKerningGroup = n;
rightKerningGroup = n;
unicode = 006D;
userData = {
com.typemytype.robofont.mark = (
0.656,
1,
0.6,
1
);
};
},
{
color = 4;
glyphname = n;
lastChange = "2018-05-17 03:53:43 +0000";
layers = (
{
anchors = (
{
name = btm;
position = "{286, 0}";
},
{
name = top;
position = "{296, 830}";
}
);
layerId = "B61D43DE-5272-4FF4-A680-608B6BF5ED9E";
paths = (
{
closed = 1;
nodes = (
"204 0 LINE",
"204 318 LINE SMOOTH",
"204 373 OFFCURVE",
"245 411 OFFCURVE",
"292 411 CURVE SMOOTH",
"340 411 OFFCURVE",
"363 373 OFFCURVE",
"363 318 CURVE SMOOTH",
"363 0 LINE",
"491 0 LINE",
"491 329 LINE SMOOTH",
"491 442 OFFCURVE",
"442 510 OFFCURVE",
"341 510 CURVE SMOOTH",
"249 510 OFFCURVE",
"204 455 OFFCURVE",
"180 408 CURVE",
"196 388 LINE",
"192 498 LINE",
"76 498 LINE",
"76 0 LINE"
);
}
);
width = 561;
}
);
leftKerningGroup = n;
rightKerningGroup = n;
unicode = 006E;
userData = {
com.typemytype.robofont.mark = (
0.656,
1,
0.6,
1
);
};
},
{
color = 4;
glyphname = eng;
lastChange = "2018-05-17 02:33:02 +0000";
layers = (
{
layerId = "B61D43DE-5272-4FF4-A680-608B6BF5ED9E";
paths = (
{
closed = 1;
nodes = (
"504 442 OFFCURVE",
"451 510 OFFCURVE",
"350 510 CURVE SMOOTH",
"257 510 OFFCURVE",
"212 458 OFFCURVE",
"189 413 CURVE",
"205 393 LINE",
"201 498 LINE",
"80 498 LINE",
"80 0 LINE",
"212 0 LINE",
"212 318 LINE SMOOTH",
"212 373 OFFCURVE",
"252 411 OFFCURVE",
"300 411 CURVE SMOOTH",
"347 411 OFFCURVE",
"372 373 OFFCURVE",
"372 318 CURVE SMOOTH",
"372 -70 LINE",
"371 -117 OFFCURVE",
"362 -171 OFFCURVE",
"321 -171 CURVE SMOOTH",
"295 -171 OFFCURVE",
"257 -158 OFFCURVE",
"231 -142 CURVE",
"215 -240 LINE",
"245 -250 OFFCURVE",
"294 -256 OFFCURVE",
"322 -256 CURVE SMOOTH",
"430 -256 OFFCURVE",
"501 -215 OFFCURVE",
"504 -75 CURVE",
"504 329 LINE"
);
}
);
width = 576;
}
);
leftKerningGroup = n;
rightKerningGroup = j;
unicode = 014B;
userData = {
com.typemytype.robofont.mark = (
0.6,
0.986,
1,
1
);
};
},
{
color = 4;
glyphname = o;
lastChange = "2018-05-17 03:53:43 +0000";
layers = (
{
anchors = (
{
name = btm;
position = "{278, 0}";
},
{
name = top;
position = "{278, 830}";
}
);
layerId = "B61D43DE-5272-4FF4-A680-608B6BF5ED9E";
paths = (
{
closed = 1;
nodes = (
"183 361 OFFCURVE",
"217 416 OFFCURVE",
"280 416 CURVE SMOOTH",
"342 416 OFFCURVE",
"373 352 OFFCURVE",
"373 246 CURVE SMOOTH",
"373 140 OFFCURVE",
"342 74 OFFCURVE",
"280 74 CURVE SMOOTH",
"217 74 OFFCURVE",
"183 131 OFFCURVE",
"183 246 CURVE SMOOTH"
);
},
{
closed = 1;
nodes = (
"48 83 OFFCURVE",
"133 -18 OFFCURVE",
"280 -18 CURVE SMOOTH",
"427 -18 OFFCURVE",
"508 88 OFFCURVE",
"508 246 CURVE SMOOTH",
"508 404 OFFCURVE",
"427 510 OFFCURVE",
"280 510 CURVE SMOOTH",
"133 510 OFFCURVE",
"48 410 OFFCURVE",
"48 246 CURVE SMOOTH"
);
}
);
width = 556;
}
);
leftKerningGroup = o;
rightKerningGroup = o;
unicode = 006F;
userData = {
com.typemytype.robofont.mark = (
0.656,
1,
0.6,
1
);
};
},
{
color = 4;
glyphname = ohorn;
lastChange = "2018-05-17 02:33:02 +0000";
layers = (
{
anchors = (
{
name = btm;
position = "{278, 0}";
},
{
name = top;
position = "{275, 830}";
}
);
layerId = "B61D43DE-5272-4FF4-A680-608B6BF5ED9E";
paths = (
{
closed = 1;
nodes = (
"183 361 OFFCURVE",
"217 416 OFFCURVE",
"280 416 CURVE SMOOTH",
"342 416 OFFCURVE",
"373 352 OFFCURVE",
"373 246 CURVE SMOOTH",
"373 140 OFFCURVE",
"342 74 OFFCURVE",
"280 74 CURVE SMOOTH",
"217 74 OFFCURVE",
"183 131 OFFCURVE",
"183 246 CURVE SMOOTH"
);
},
{
closed = 1;
nodes = (
"48 83 OFFCURVE",
"133 -18 OFFCURVE",
"280 -18 CURVE SMOOTH",
"427 -18 OFFCURVE",
"508 88 OFFCURVE",
"508 246 CURVE SMOOTH",
"508 404 OFFCURVE",
"427 510 OFFCURVE",
"280 510 CURVE SMOOTH",
"133 510 OFFCURVE",
"48 410 OFFCURVE",
"48 246 CURVE SMOOTH"
);
},
{
closed = 1;
nodes = (
"444 404 LINE",
"480 404 OFFCURVE",
"540 465 OFFCURVE",
"540 515 CURVE SMOOTH",
"540 556 OFFCURVE",
"538 571 OFFCURVE",
"533 587 CURVE",
"439 587 LINE",
"445 571 OFFCURVE",
"447 557 OFFCURVE",
"447 530 CURVE SMOOTH",
"447 483 OFFCURVE",
"377 469 OFFCURVE",
"360 469 CURVE"
);
}
);
width = 556;
}
);
leftKerningGroup = o;
rightKerningGroup = o;
unicode = 01A1;
userData = {
com.typemytype.robofont.mark = (
0.6,
0.609,
1,
1
);
};
},
{
color = 0;
glyphname = oogonek;
lastChange = "2018-05-18 14:25:41 +0000";
layers = (
{
anchors = (
{
name = btm;
position = "{0, 0}";
}
);
components = (
{
name = o;
}
);
layerId = "B61D43DE-5272-4FF4-A680-608B6BF5ED9E";
paths = (
{
closed = 1;
nodes = (
"127 -198 OFFCURVE",
"182 -250 OFFCURVE",
"287 -250 CURVE SMOOTH",
"343 -250 OFFCURVE",
"385 -234 OFFCURVE",
"397 -213 CURVE",
"371 -288 LINE",
"371 -68 LINE",
"417 -99 LINE",
"381 -140 OFFCURVE",
"336 -149 OFFCURVE",
"303 -149 CURVE SMOOTH",
"264 -149 OFFCURVE",
"241 -135 OFFCURVE",
"241 -101 CURVE SMOOTH",
"241 -58 OFFCURVE",
"301 -17 OFFCURVE",
"371 0 CURVE",
"318 33 LINE",
"261 6 LINE",
"166 -18 OFFCURVE",
"129 -77 OFFCURVE",
"128 -126 CURVE"
);
}
);
width = 556;
}
);
unicode = 01EB;
},
{
color = 4;
glyphname = oslash;
lastChange = "2018-05-17 03:53:43 +0000";
layers = (
{
components = (
{
name = o;
transform = "{1, 0, 0, 1, -1, 0}";
}
);
layerId = "B61D43DE-5272-4FF4-A680-608B6BF5ED9E";
paths = (
{
closed = 1;
nodes = (
"108 -61 LINE",
"187 62 LINE",
"201 88 LINE",
"394 395 LINE",
"429 412 LINE",
"500 524 LINE",
"441 562 LINE",
"372 456 LINE",
"346 414 LINE",
"170 123 LINE",
"139 119 LINE",
"49 -21 LINE"
);
}
);
width = 553;
}
);
leftKerningGroup = o;
rightKerningGroup = o;
unicode = 00F8;
userData = {
com.typemytype.robofont.mark = (
0.656,
1,
0.6,
1
);
};
},
{
color = 4;
glyphname = oe;
lastChange = "2018-05-17 03:53:43 +0000";
layers = (
{
anchors = (
{
name = btm;
position = "{846, 0}";
},
{
name = top;
position = "{839, 830}";
}
);
background = {
paths = (
{
closed = 1;
nodes = (
"710 -18 OFFCURVE",
"764 11 OFFCURVE",
"792 29 CURVE",
"744 124 LINE",
"721 98 OFFCURVE",
"674 77 OFFCURVE",
"632 77 CURVE",
"551 77 OFFCURVE",
"514 129 OFFCURVE",
"510 208 CURVE",
"810 208 LINE",
"811 223 OFFCURVE",
"811 241 OFFCURVE",
"811 255 CURVE SMOOTH",
"811 394 OFFCURVE",
"756 510 OFFCURVE",
"607 510 CURVE SMOOTH",
"458 510 OFFCURVE",
"392 393 OFFCURVE",
"392 243 CURVE SMOOTH",
"392 100 OFFCURVE",
"443 -18 OFFCURVE",
"611 -18 CURVE SMOOTH"
);
},
{
closed = 1;
nodes = (
"515 357 OFFCURVE",
"540 415 OFFCURVE",
"607 415 CURVE SMOOTH",
"648 415 OFFCURVE",
"684 381 OFFCURVE",
"684 287 CURVE",
"511 286 LINE"
);
},
{
closed = 1;
nodes = (
"182 361 OFFCURVE",
"213 415 OFFCURVE",
"279 415 CURVE SMOOTH",
"345 415 OFFCURVE",
"373 352 OFFCURVE",
"373 246 CURVE SMOOTH",
"373 140 OFFCURVE",
"345 77 OFFCURVE",
"279 77 CURVE SMOOTH",
"213 77 OFFCURVE",
"182 131 OFFCURVE",
"182 246 CURVE SMOOTH"
);
},
{
closed = 1;
nodes = (
"46 83 OFFCURVE",
"125 -18 OFFCURVE",
"280 -18 CURVE SMOOTH",
"420 -18 OFFCURVE",
"477 88 OFFCURVE",
"477 246 CURVE SMOOTH",
"477 404 OFFCURVE",
"425 510 OFFCURVE",
"280 510 CURVE SMOOTH",
"125 510 OFFCURVE",
"46 410 OFFCURVE",
"46 246 CURVE SMOOTH"
);
}
);
};
layerId = "B61D43DE-5272-4FF4-A680-608B6BF5ED9E";
paths = (
{
closed = 1;
nodes = (
"709 -18 OFFCURVE",
"764 11 OFFCURVE",
"791 29 CURVE",
"751 124 LINE",
"728 98 OFFCURVE",
"673 77 OFFCURVE",
"632 77 CURVE",
"551 77 OFFCURVE",
"512 129 OFFCURVE",
"508 208 CURVE",
"809 208 LINE",
"810 223 OFFCURVE",
"810 241 OFFCURVE",
"810 255 CURVE SMOOTH",
"810 413 OFFCURVE",
"758 510 OFFCURVE",
"609 510 CURVE SMOOTH",
"459 510 OFFCURVE",
"392 388 OFFCURVE",
"392 243 CURVE SMOOTH",
"392 105 OFFCURVE",
"443 -18 OFFCURVE",
"611 -18 CURVE SMOOTH"
);
},
{
closed = 1;
nodes = (
"511 357 OFFCURVE",
"544 415 OFFCURVE",
"612 415 CURVE SMOOTH",
"653 415 OFFCURVE",
"684 392 OFFCURVE",
"684 287 CURVE",
"507 286 LINE"
);
},
{
closed = 1;
nodes = (
"183 361 OFFCURVE",
"217 416 OFFCURVE",
"280 416 CURVE SMOOTH",
"342 416 OFFCURVE",
"373 352 OFFCURVE",
"373 246 CURVE SMOOTH",
"373 140 OFFCURVE",
"342 74 OFFCURVE",
"280 74 CURVE SMOOTH",
"217 74 OFFCURVE",
"183 131 OFFCURVE",
"183 246 CURVE SMOOTH"
);
},
{
closed = 1;
nodes = (
"48 83 OFFCURVE",
"133 -18 OFFCURVE",
"280 -18 CURVE SMOOTH",
"427 -18 OFFCURVE",
"477 88 OFFCURVE",
"477 246 CURVE SMOOTH",
"477 404 OFFCURVE",
"427 510 OFFCURVE",
"280 510 CURVE SMOOTH",
"133 510 OFFCURVE",
"48 410 OFFCURVE",
"48 246 CURVE SMOOTH"
);
}
);
width = 854;
}
);
leftKerningGroup = o;
leftMetricsKey = o;
rightKerningGroup = e;
rightMetricsKey = e;
unicode = 0153;
userData = {
com.typemytype.robofont.mark = (
0.656,
1,
0.6,
1
);
};
},
{
glyphname = p;
lastChange = "2018-05-17 03:53:43 +0000";
layers = (
{
anchors = (
{
name = top;
position = "{326, 830}";
}
);
layerId = "B61D43DE-5272-4FF4-A680-608B6BF5ED9E";
paths = (
{
closed = 1;
nodes = (
"199 498 LINE",
"76 498 LINE",
"76 -238 LINE",
"199 -238 LINE",
"199 5 LINE",
"198 54 LINE",
"217 17 OFFCURVE",
"261 -18 OFFCURVE",
"319 -18 CURVE SMOOTH",
"430 -18 OFFCURVE",
"520 77 OFFCURVE",
"520 251 CURVE SMOOTH",
"520 420 OFFCURVE",
"439 511 OFFCURVE",
"325 511 CURVE SMOOTH",
"266 511 OFFCURVE",
"211 466 OFFCURVE",
"188 418 CURVE",
"198 418 LINE"
);
},
{
closed = 1;
nodes = (
"199 337 OFFCURVE",
"231 409 OFFCURVE",
"293 409 CURVE SMOOTH",
"344 409 OFFCURVE",
"386 369 OFFCURVE",
"386 251 CURVE SMOOTH",
"386 130 OFFCURVE",
"337 85 OFFCURVE",
"288 85 CURVE SMOOTH",
"230 85 OFFCURVE",
"199 149 OFFCURVE",
"199 243 CURVE SMOOTH"
);
}
);
width = 566;
}
);
leftKerningGroup = p;
rightKerningGroup = o;
unicode = 0070;
userData = {
com.typemytype.robofont.mark = (
0.656,
1,
0.6,
1
);
};
},
{
color = 0;
glyphname = thorn;
lastChange = "2018-05-17 03:53:43 +0000";
layers = (
{
anchors = (
{
name = top;
position = "{307, 830}";
}
);
components = (
{
name = b;
transform = "{1, 0, 0, 1, 9, 0}";
}
);
layerId = "B61D43DE-5272-4FF4-A680-608B6BF5ED9E";
paths = (
{
closed = 1;
nodes = (
"82 60 LINE",
"82 -238 LINE",
"208 -238 LINE",
"208 0 LINE",
"180 58 LINE"
);
}
);
width = 586;
}
);
leftKerningGroup = h;
rightKerningGroup = o;
unicode = 00FE;
userData = {
com.typemytype.robofont.mark = (
0.656,
1,
0.6,
1
);
};
},
{
glyphname = q;
lastChange = "2018-05-17 03:53:43 +0000";
layers = (
{
anchors = (
{
name = top;
position = "{273, 830}";
}
);
layerId = "B61D43DE-5272-4FF4-A680-608B6BF5ED9E";
paths = (
{
closed = 1;
nodes = (
"368 -238 LINE",
"493 -238 LINE",
"493 498 LINE",
"375 498 LINE",
"374 398 LINE",
"397 406 LINE",
"379 461 OFFCURVE",
"327 511 OFFCURVE",
"253 511 CURVE SMOOTH",
"137 511 OFFCURVE",
"46 433 OFFCURVE",
"46 248 CURVE SMOOTH",
"46 82 OFFCURVE",
"132 -17 OFFCURVE",
"241 -17 CURVE SMOOTH",
"303 -17 OFFCURVE",
"356 12 OFFCURVE",
"378 77 CURVE",
"374 77 LINE",
"368 5 LINE"
);
},
{
closed = 1;
nodes = (
"174 373 OFFCURVE",
"233 409 OFFCURVE",
"278 409 CURVE SMOOTH",
"340 409 OFFCURVE",
"369 344 OFFCURVE",
"369 250 CURVE SMOOTH",
"369 135 OFFCURVE",
"336 86 OFFCURVE",
"277 86 CURVE SMOOTH",
"222 86 OFFCURVE",
"174 140 OFFCURVE",
"174 248 CURVE SMOOTH"
);
}
);
width = 569;
}
);
leftKerningGroup = o;
rightKerningGroup = q;
unicode = 0071;
userData = {
com.typemytype.robofont.mark = (
0.656,
1,
0.6,
1
);
};
},
{
glyphname = r;
lastChange = "2018-05-17 03:53:43 +0000";
layers = (
{
anchors = (
{
name = btm;
position = "{141, 0}";
},
{
name = top;
position = "{229, 830}";
}
);
layerId = "B61D43DE-5272-4FF4-A680-608B6BF5ED9E";
paths = (
{
closed = 1;
nodes = (
"196 0 LINE",
"196 306 LINE SMOOTH",
"196 327 OFFCURVE",
"218 400 OFFCURVE",
"279 400 CURVE SMOOTH",
"318 400 OFFCURVE",
"338 374 OFFCURVE",
"338 300 CURVE",
"444 342 LINE",
"444 417 OFFCURVE",
"422 510 OFFCURVE",
"331 510 CURVE SMOOTH",
"261 510 OFFCURVE",
"210 463 OFFCURVE",
"194 434 CURVE",
"188 498 LINE",
"69 498 LINE",
"69 0 LINE"
);
}
);
width = 451;
}
);
leftKerningGroup = n;
rightKerningGroup = r;
unicode = 0072;
userData = {
com.typemytype.robofont.mark = (
0.656,
1,
0.6,
1
);
};
},
{
glyphname = s;
lastChange = "2018-05-17 03:53:43 +0000";
layers = (
{
anchors = (
{
name = btm;
position = "{217, 0}";
},
{
name = top;
position = "{239, 830}";
}
);
layerId = "B61D43DE-5272-4FF4-A680-608B6BF5ED9E";
paths = (
{
closed = 1;
nodes = (
"51 24 OFFCURVE",
"120 -18 OFFCURVE",
"217 -18 CURVE SMOOTH",
"355 -18 OFFCURVE",
"410 67 OFFCURVE",
"410 149 CURVE SMOOTH",
"410 218 OFFCURVE",
"361 256 OFFCURVE",
"290 289 CURVE SMOOTH",
"232 313 OFFCURVE",
"179 330 OFFCURVE",
"179 367 CURVE SMOOTH",
"179 396 OFFCURVE",
"196 414 OFFCURVE",
"256 414 CURVE SMOOTH",
"293 414 OFFCURVE",
"335 396 OFFCURVE",
"361 376 CURVE",
"395 466 LINE",
"377 484 OFFCURVE",
"316 510 OFFCURVE",
"239 510 CURVE SMOOTH",
"118 510 OFFCURVE",
"54 449 OFFCURVE",
"54 359 CURVE SMOOTH",
"54 266 OFFCURVE",
"135 228 OFFCURVE",
"185 205 CURVE SMOOTH",
"251 176 OFFCURVE",
"285 163 OFFCURVE",
"285 131 CURVE SMOOTH",
"285 96 OFFCURVE",
"252 77 OFFCURVE",
"205 77 CURVE SMOOTH",
"136 77 OFFCURVE",
"102 107 OFFCURVE",
"73 131 CURVE",
"36 42 LINE"
);
}
);
width = 448;
}
);
leftKerningGroup = s;
rightKerningGroup = s;
unicode = 0073;
userData = {
com.typemytype.robofont.mark = (
0.656,
1,
0.6,
1
);
};
},
{
glyphname = germandbls;
lastChange = "2018-05-17 03:53:43 +0000";
layers = (
{
layerId = "B61D43DE-5272-4FF4-A680-608B6BF5ED9E";
paths = (
{
closed = 1;
nodes = (
"276 5 OFFCURVE",
"316 -17 OFFCURVE",
"387 -17 CURVE SMOOTH",
"515 -17 OFFCURVE",
"584 85 OFFCURVE",
"584 224 CURVE SMOOTH",
"584 337 OFFCURVE",
"513 424 OFFCURVE",
"393 436 CURVE",
"393 418 LINE",
"470 418 OFFCURVE",
"513 507 OFFCURVE",
"513 601 CURVE SMOOTH",
"513 703 OFFCURVE",
"456 785 OFFCURVE",
"308 785 CURVE SMOOTH",
"213 785 OFFCURVE",
"93 742 OFFCURVE",
"93 577 CURVE SMOOTH",
"93 -83 LINE",
"221 -83 LINE",
"221 587 LINE SMOOTH",
"221 634 OFFCURVE",
"242 687 OFFCURVE",
"302 687 CURVE SMOOTH",
"342 687 OFFCURVE",
"383 665 OFFCURVE",
"383 586 CURVE SMOOTH",
"383 489 OFFCURVE",
"345 449 OFFCURVE",
"303 449 CURVE",
"303 379 LINE",
"401 379 OFFCURVE",
"448 305 OFFCURVE",
"448 222 CURVE SMOOTH",
"448 141 OFFCURVE",
"418 77 OFFCURVE",
"356 77 CURVE SMOOTH",
"321 77 OFFCURVE",
"299 94 OFFCURVE",
"291 102 CURVE",
"257 19 LINE"
);
},
{
closed = 1;
nodes = (
"26 414 LINE",
"113 414 LINE",
"113 414 OFFCURVE",
"113 498 OFFCURVE",
"113 498 CURVE",
"26 498 LINE"
);
}
);
width = 590;
}
);
leftKerningGroup = h;
rightKerningGroup = germandbls;
unicode = 00DF;
userData = {
com.typemytype.robofont.mark = (
0.656,
1,
0.6,
1
);
};
},
{
glyphname = t;
lastChange = "2018-05-17 03:53:43 +0000";
layers = (
{
anchors = (
{
name = btm;
position = "{194, -83}";
},
{
name = top;
position = "{156, 974}";
}
);
layerId = "B61D43DE-5272-4FF4-A680-608B6BF5ED9E";
paths = (
{
closed = 1;
nodes = (
"85 43 OFFCURVE",
"121 -15 OFFCURVE",
"234 -15 CURVE SMOOTH",
"267 -15 OFFCURVE",
"335 0 OFFCURVE",
"366 22 CURVE",
"342 123 LINE",
"323 107 OFFCURVE",
"286 88 OFFCURVE",
"257 88 CURVE SMOOTH",
"228 88 OFFCURVE",
"211 107 OFFCURVE",
"211 165 CURVE SMOOTH",
"211 403 LINE",
"334 403 LINE",
"334 498 LINE",
"211 498 LINE",
"211 650 LINE",
"85 603 LINE",
"85 498 LINE",
"25 498 LINE",
"25 403 LINE",
"85 403 LINE",
"85 162 LINE SMOOTH"
);
}
);
width = 389;
}
);
leftKerningGroup = t;
rightKerningGroup = t;
unicode = 0074;
userData = {
com.typemytype.robofont.mark = (
0.656,
1,
0.6,
1
);
};
},
{
glyphname = tbar;
lastChange = "2018-05-17 02:33:02 +0000";
layers = (
{
components = (
{
name = t;
transform = "{1, 0, 0, 1, -2, 0}";
}
);
layerId = "B61D43DE-5272-4FF4-A680-608B6BF5ED9E";
paths = (
{
closed = 1;
nodes = (
"364 243 LINE",
"364 324 LINE",
"16 324 LINE",
"16 243 LINE"
);
}
);
width = 384;
}
);
leftKerningGroup = t;
rightKerningGroup = t;
unicode = 0167;
userData = {
com.typemytype.robofont.mark = (
0.6,
0.986,
1,
1
);
};
},
{
glyphname = u;
lastChange = "2018-05-17 03:53:43 +0000";
layers = (
{
anchors = (
{
name = btm;
position = "{283, 0}";
},
{
name = top;
position = "{276, 830}";
}
);
layerId = "B61D43DE-5272-4FF4-A680-608B6BF5ED9E";
paths = (
{
closed = 1;
nodes = (
"354 498 LINE",
"354 180 LINE SMOOTH",
"354 125 OFFCURVE",
"313 87 OFFCURVE",
"266 87 CURVE SMOOTH",
"218 87 OFFCURVE",
"195 125 OFFCURVE",
"195 180 CURVE SMOOTH",
"195 498 LINE",
"67 498 LINE",
"67 169 LINE SMOOTH",
"67 56 OFFCURVE",
"116 -12 OFFCURVE",
"217 -12 CURVE SMOOTH",
"310 -12 OFFCURVE",
"354 43 OFFCURVE",
"378 90 CURVE",
"362 110 LINE",
"366 0 LINE",
"482 0 LINE",
"482 498 LINE"
);
}
);
width = 561;
}
);
leftKerningGroup = u;
rightKerningGroup = u;
unicode = 0075;
userData = {
com.typemytype.robofont.mark = (
0.656,
1,
0.6,
1
);
};
},
{
color = 0;
glyphname = uhorn;
lastChange = "2018-05-17 02:33:02 +0000";
layers = (
{
components = (
{
name = u;
}
);
layerId = "B61D43DE-5272-4FF4-A680-608B6BF5ED9E";
paths = (
{
closed = 1;
nodes = (
"464 404 LINE",
"500 404 OFFCURVE",
"560 465 OFFCURVE",
"560 515 CURVE SMOOTH",
"560 556 OFFCURVE",
"558 571 OFFCURVE",
"553 587 CURVE",
"459 587 LINE",
"465 571 OFFCURVE",
"467 557 OFFCURVE",
"467 530 CURVE SMOOTH",
"467 483 OFFCURVE",
"397 469 OFFCURVE",
"380 469 CURVE"
);
}
);
width = 561;
}
);
leftKerningGroup = u;
rightKerningGroup = u;
unicode = 01B0;
userData = {
com.typemytype.robofont.mark = (
0.6,
0.609,
1,
1
);
};
},
{
glyphname = uogonek;
lastChange = "2018-05-17 02:33:02 +0000";
layers = (
{
components = (
{
name = u;
transform = "{1, 0, 0, 1, -8, 0}";
}
);
layerId = "B61D43DE-5272-4FF4-A680-608B6BF5ED9E";
paths = (
{
closed = 1;
nodes = (
"160 -196 OFFCURVE",
"217 -248 OFFCURVE",
"314 -250 CURVE SMOOTH",
"355 -250 OFFCURVE",
"407 -239 OFFCURVE",
"423 -225 CURVE",
"407 -143 LINE",
"381 -157 OFFCURVE",
"342 -163 OFFCURVE",
"320 -163 CURVE SMOOTH",
"280 -162 OFFCURVE",
"259 -139 OFFCURVE",
"258 -104 CURVE SMOOTH",
"258 -63 OFFCURVE",
"314 -35 OFFCURVE",
"423 29 CURVE",
"345 33 LINE",
"274 0 LINE",
"197 -31 OFFCURVE",
"163 -75 OFFCURVE",
"162 -125 CURVE SMOOTH"
);
}
);
width = 555;
}
);
leftKerningGroup = u;
rightKerningGroup = u;
unicode = 0173;
userData = {
com.typemytype.robofont.mark = (
0.6,
0.986,
1,
1
);
};
},
{
glyphname = v;
lastChange = "2018-05-17 03:53:43 +0000";
layers = (
{
anchors = (
{
name = top;
position = "{235, 830}";
}
);
layerId = "B61D43DE-5272-4FF4-A680-608B6BF5ED9E";
paths = (
{
closed = 1;
nodes = (
"285 0 LINE",
"477 498 LINE",
"345 498 LINE",
"262 249 LINE",
"242 167 LINE",
"220 249 LINE",
"134 498 LINE",
"-6 498 LINE",
"196 0 LINE"
);
}
);
width = 471;
}
);
leftKerningGroup = v;
rightKerningGroup = v;
unicode = 0076;
userData = {
com.typemytype.robofont.mark = (
0.656,
1,
0.6,
1
);
};
},
{
glyphname = w;
lastChange = "2018-05-17 03:53:43 +0000";
layers = (
{
anchors = (
{
name = top;
position = "{358, 830}";
}
);
layerId = "B61D43DE-5272-4FF4-A680-608B6BF5ED9E";
paths = (
{
closed = 1;
nodes = (
"270 0 LINE",
"344 271 LINE",
"375 439 LINE",
"342 439 LINE",
"375 271 LINE",
"456 0 LINE",
"557 0 LINE",
"714 498 LINE",
"586 498 LINE",
"531 271 LINE",
"484 54 LINE",
"539 54 LINE",
"487 271 LINE",
"421 498 LINE",
"307 498 LINE",
"246 271 LINE",
"198 61 LINE",
"252 61 LINE",
"201 271 LINE",
"143 498 LINE",
"11 498 LINE",
"170 0 LINE"
);
}
);
width = 714;
}
);
leftKerningGroup = w;
rightKerningGroup = w;
unicode = 0077;
userData = {
com.typemytype.robofont.guides = (
{
angle = 0;
isGlobal = 0;
magnetic = 5;
x = 0;
y = 554;
},
{
angle = 90;
isGlobal = 0;
magnetic = 5;
x = -66;
y = 0;
}
);
com.typemytype.robofont.mark = (
0.656,
1,
0.6,
1
);
};
},
{
glyphname = x;
lastChange = "2018-05-17 03:53:43 +0000";
layers = (
{
anchors = (
{
name = top;
position = "{235, 830}";
}
);
layerId = "B61D43DE-5272-4FF4-A680-608B6BF5ED9E";
paths = (
{
closed = 1;
nodes = (
"150 0 LINE",
"212 134 LINE",
"230 179 LINE",
"252 134 LINE",
"324 0 LINE",
"465 0 LINE",
"357 190 LINE",
"321 250 LINE",
"357 313 LINE",
"457 498 LINE",
"324 498 LINE",
"265 372 LINE",
"239 314 LINE",
"214 372 LINE",
"154 498 LINE",
"12 498 LINE",
"114 309 LINE",
"152 245 LINE",
"115 184 LINE",
"12 0 LINE"
);
}
);
width = 475;
}
);
leftKerningGroup = x;
rightKerningGroup = x;
unicode = 0078;
userData = {
com.typemytype.robofont.guides = (
{
angle = 90;
isGlobal = 0;
magnetic = 5;
x = 233;
y = 0;
},
{
angle = 90;
isGlobal = 0;
magnetic = 5;
x = 731;
y = 0;
}
);
com.typemytype.robofont.mark = (
0.656,
1,
0.6,
1
);
};
},
{
glyphname = y;
lastChange = "2018-05-17 03:53:43 +0000";
layers = (
{
anchors = (
{
name = btm;
position = "{394, 0}";
},
{
name = top;
position = "{235, 830}";
}
);
layerId = "B61D43DE-5272-4FF4-A680-608B6BF5ED9E";
paths = (
{
closed = 1;
nodes = (
"67 -238 LINE",
"198 -238 LINE",
"481 498 LINE",
"335 498 LINE",
"257 239 LINE",
"243 177 LINE",
"227 235 LINE",
"142 498 LINE",
"-6 498 LINE",
"176 47 LINE"
);
}
);
width = 475;
}
);
leftKerningGroup = y;
rightKerningGroup = y;
unicode = 0079;
userData = {
com.typemytype.robofont.mark = (
0.656,
1,
0.6,
1
);
};
},
{
glyphname = z;
lastChange = "2018-05-17 03:53:43 +0000";
layers = (
{
anchors = (
{
name = top;
position = "{243, 830}";
}
);
layerId = "B61D43DE-5272-4FF4-A680-608B6BF5ED9E";
paths = (
{
closed = 1;
nodes = (
"411 0 LINE",
"411 91 LINE",
"168 91 LINE",
"183 49 LINE",
"431 498 LINE",
"55 498 LINE",
"55 403 LINE",
"266 403 LINE",
"266 452 LINE",
"13 0 LINE"
);
}
);
width = 444;
}
);
leftKerningGroup = z;
rightKerningGroup = z;
unicode = 007A;
userData = {
com.typemytype.robofont.mark = (
0.656,
1,
0.6,
1
);
};
},
{
glyphname = ordfeminine;
lastChange = "2018-05-17 03:53:43 +0000";
layers = (
{
layerId = "B61D43DE-5272-4FF4-A680-608B6BF5ED9E";
paths = (
{
closed = 1;
nodes = (
"306 421 OFFCURVE",
"360 518 OFFCURVE",
"341 536 CURVE SMOOTH",
"324 543 LINE",
"324 525 OFFCURVE",
"320 444 OFFCURVE",
"320 428 CURVE",
"430 428 LINE",
"430 812 LINE",
"320 812 LINE",
"320 793 OFFCURVE",
"324 715 OFFCURVE",
"324 696 CURVE",
"342 718 LINE",
"330 762 OFFCURVE",
"298 827 OFFCURVE",
"210 827 CURVE SMOOTH",
"109 827 OFFCURVE",
"44 749 OFFCURVE",
"44 621 CURVE SMOOTH",
"44 498 OFFCURVE",
"119 421 OFFCURVE",
"211 421 CURVE SMOOTH"
);
},
{
closed = 1;
nodes = (
"186 495 OFFCURVE",
"156 550 OFFCURVE",
"156 625 CURVE SMOOTH",
"156 702 OFFCURVE",
"189 750 OFFCURVE",
"229 750 CURVE SMOOTH",
"280 750 OFFCURVE",
"305 695 OFFCURVE",
"305 623 CURVE SMOOTH",
"305 546 OFFCURVE",
"273 495 OFFCURVE",
"229 495 CURVE SMOOTH"
);
}
);
width = 542;
}
);
leftKerningGroup = ordfeminine;
rightKerningGroup = ordfeminine;
unicode = 00AA;
userData = {
com.typemytype.robofont.mark = (
0.656,
1,
0.6,
1
);
};
},
{
glyphname = ordmasculine;
lastChange = "2018-05-17 03:53:43 +0000";
layers = (
{
layerId = "B61D43DE-5272-4FF4-A680-608B6BF5ED9E";
paths = (
{
closed = 1;
nodes = (
"370 421 OFFCURVE",
"428 518 OFFCURVE",
"428 626 CURVE SMOOTH",
"428 731 OFFCURVE",
"373 825 OFFCURVE",
"243 825 CURVE SMOOTH",
"116 825 OFFCURVE",
"56 732 OFFCURVE",
"56 624 CURVE SMOOTH",
"56 521 OFFCURVE",
"115 421 OFFCURVE",
"243 421 CURVE SMOOTH"
);
},
{
closed = 1;
nodes = (
"195 495 OFFCURVE",
"172 555 OFFCURVE",
"172 627 CURVE SMOOTH",
"172 704 OFFCURVE",
"199 750 OFFCURVE",
"243 750 CURVE SMOOTH",
"292 750 OFFCURVE",
"313 698 OFFCURVE",
"313 627 CURVE SMOOTH",
"313 548 OFFCURVE",
"287 495 OFFCURVE",
"243 495 CURVE SMOOTH"
);
}
);
width = 503;
}
);
leftKerningGroup = ordmasculine;
rightKerningGroup = ordmasculine;
unicode = 00BA;
userData = {
com.typemytype.robofont.mark = (
0.656,
1,
0.6,
1
);
};
},
{
glyphname = Delta;
lastChange = "2018-05-17 03:50:59 +0000";
layers = (
{
layerId = "B61D43DE-5272-4FF4-A680-608B6BF5ED9E";
paths = (
{
closed = 1;
nodes = (
"83 0 LINE",
"694 0 LINE",
"712 35 LINE",
"407 714 LINE",
"373 714 LINE",
"66 35 LINE"
);
},
{
closed = 1;
nodes = (
"389 503 LINE",
"557 101 LINE",
"213 101 LINE"
);
}
);
width = 785;
}
);
leftKerningGroup = Deltagreek;
rightKerningGroup = Deltagreek;
unicode = "0394,03B4";
},
{
glyphname = Omega;
lastChange = "2018-05-17 03:51:02 +0000";
layers = (
{
layerId = "B61D43DE-5272-4FF4-A680-608B6BF5ED9E";
paths = (
{
closed = 1;
nodes = (
"207 714 OFFCURVE",
"63 577 OFFCURVE",
"63 388 CURVE SMOOTH",
"63 208 OFFCURVE",
"191 125 OFFCURVE",
"229 100 CURVE",
"49 115 LINE",
"49 0 LINE",
"339 0 LINE",
"339 94 LINE",
"275 163 OFFCURVE",
"183 248 OFFCURVE",
"183 373 CURVE SMOOTH",
"183 477 OFFCURVE",
"245 592 OFFCURVE",
"392 592 CURVE SMOOTH",
"538 592 OFFCURVE",
"600 471 OFFCURVE",
"600 373 CURVE SMOOTH",
"600 248 OFFCURVE",
"508 163 OFFCURVE",
"444 94 CURVE",
"444 0 LINE",
"734 0 LINE",
"734 115 LINE",
"554 100 LINE",
"592 125 OFFCURVE",
"720 208 OFFCURVE",
"720 388 CURVE SMOOTH",
"720 574 OFFCURVE",
"580 714 OFFCURVE",
"393 714 CURVE SMOOTH"
);
}
);
width = 783;
}
);
leftKerningGroup = Omegagreek;
rightKerningGroup = Omegagreek;
unicode = "03A9,03C9";
},
{
color = 0;
glyphname = mu;
lastChange = "2018-05-18 14:40:22 +0000";
layers = (
{
layerId = "B61D43DE-5272-4FF4-A680-608B6BF5ED9E";
paths = (
{
closed = 1;
nodes = (
"185 -250 LINE",
"161 71 LINE",
"179 29 OFFCURVE",
"215 -11 OFFCURVE",
"269 -11 CURVE SMOOTH",
"316 -11 OFFCURVE",
"351 19 OFFCURVE",
"362 71 CURVE",
"360 0 LINE",
"491 0 LINE",
"491 492 LINE",
"355 492 LINE",
"355 186 LINE",
"355 94 OFFCURVE",
"318 86 OFFCURVE",
"276 86 CURVE SMOOTH",
"229 86 OFFCURVE",
"198 138 OFFCURVE",
"198 208 CURVE",
"198 492 LINE",
"59 492 LINE",
"59 -250 LINE"
);
}
);
width = 550;
}
);
leftKerningGroup = p;
rightKerningGroup = u;
unicode = 03BC;
},
{
color = 0;
glyphname = pi;
lastChange = "2018-05-18 14:40:22 +0000";
layers = (
{
layerId = "B61D43DE-5272-4FF4-A680-608B6BF5ED9E";
paths = (
{
closed = 1;
nodes = (
"111 415 OFFCURVE",
"128 445 OFFCURVE",
"199 445 CURVE SMOOTH",
"574 445 LINE SMOOTH",
"654 445 OFFCURVE",
"677 462 OFFCURVE",
"677 462 CURVE",
"652 547 LINE",
"652 547 OFFCURVE",
"612 547 OFFCURVE",
"519 547 CURVE SMOOTH",
"202 547 LINE SMOOTH",
"80 547 OFFCURVE",
"47 460 OFFCURVE",
"47 419 CURVE",
"98 378 LINE"
);
},
{
closed = 1;
nodes = (
"295 -15 OFFCURVE",
"309 178 OFFCURVE",
"315 309 CURVE SMOOTH",
"326 531 LINE",
"242 531 LINE",
"176 0 LINE",
"293 0 LINE"
);
},
{
closed = 1;
nodes = (
"409 61 OFFCURVE",
"421 -10 OFFCURVE",
"505 -9 CURVE SMOOTH",
"612 -9 OFFCURVE",
"664 72 OFFCURVE",
"675 184 CURVE",
"614 184 LINE",
"606 127 OFFCURVE",
"584 83 OFFCURVE",
"548 83 CURVE SMOOTH",
"527 83 OFFCURVE",
"515 101 OFFCURVE",
"520 183 CURVE",
"520 531 LINE",
"440 531 LINE",
"414 155 LINE"
);
}
);
width = 759;
}
);
leftKerningGroup = pi;
rightKerningGroup = pi;
unicode = 03C0;
userData = {
com.typemytype.robofont.mark = (
1,
0.741,
0.6,
1
);
};
},
{
color = 4;
glyphname = zero;
lastChange = "2018-05-17 03:53:43 +0000";
layers = (
{
layerId = "B61D43DE-5272-4FF4-A680-608B6BF5ED9E";
paths = (
{
closed = 1;
nodes = (
"200 89 OFFCURVE",
"170 202 OFFCURVE",
"170 348 CURVE SMOOTH",
"170 502 OFFCURVE",
"201 609 OFFCURVE",
"286 609 CURVE SMOOTH",
"370 609 OFFCURVE",
"401 502 OFFCURVE",
"401 348 CURVE SMOOTH",
"401 202 OFFCURVE",
"372 89 OFFCURVE",
"286 89 CURVE SMOOTH"
);
},
{
closed = 1;
nodes = (
"472 -18 OFFCURVE",
"546 133 OFFCURVE",
"546 347 CURVE SMOOTH",
"546 596 OFFCURVE",
"451 714 OFFCURVE",
"290 714 CURVE SMOOTH",
"129 714 OFFCURVE",
"34 596 OFFCURVE",
"34 347 CURVE SMOOTH",
"34 133 OFFCURVE",
"108 -18 OFFCURVE",
"290 -18 CURVE SMOOTH"
);
}
);
width = 580;
}
);
leftKerningGroup = zero;
rightKerningGroup = zero;
unicode = 0030;
userData = {
com.typemytype.robofont.mark = (
0.656,
1,
0.6,
1
);
};
},
{
color = 4;
glyphname = one;
lastChange = "2018-05-17 03:53:43 +0000";
layers = (
{
layerId = "B61D43DE-5272-4FF4-A680-608B6BF5ED9E";
paths = (
{
closed = 1;
nodes = (
"224 0 LINE",
"224 715 LINE",
"89 645 LINE",
"89 0 LINE"
);
}
);
width = 313;
}
);
leftKerningGroup = one;
rightKerningGroup = one;
unicode = 0031;
userData = {
com.typemytype.robofont.mark = (
0.656,
1,
0.6,
1
);
};
},
{
color = 4;
glyphname = two;
lastChange = "2018-05-17 03:53:43 +0000";
layers = (
{
layerId = "B61D43DE-5272-4FF4-A680-608B6BF5ED9E";
paths = (
{
closed = 1;
nodes = (
"512 114 LINE",
"121 114 LINE",
"184 85 LINE",
"184 185 OFFCURVE",
"251 204 OFFCURVE",
"346 264 CURVE SMOOTH",
"428 316 OFFCURVE",
"508 387 OFFCURVE",
"508 515 CURVE SMOOTH",
"508 642 OFFCURVE",
"422 714 OFFCURVE",
"298 714 CURVE SMOOTH",
"162 714 OFFCURVE",
"59 628 OFFCURVE",
"43 524 CURVE",
"145 474 LINE",
"154 542 OFFCURVE",
"208 599 OFFCURVE",
"284 599 CURVE SMOOTH",
"350 599 OFFCURVE",
"374 555 OFFCURVE",
"374 503 CURVE SMOOTH",
"374 396 OFFCURVE",
"273 353 OFFCURVE",
"204 309 CURVE SMOOTH",
"83 232 OFFCURVE",
"56 161 OFFCURVE",
"56 70 CURVE SMOOTH",
"56 41 OFFCURVE",
"59 21 OFFCURVE",
"63 0 CURVE",
"512 0 LINE"
);
}
);
width = 561;
}
);
leftKerningGroup = two;
rightKerningGroup = two;
unicode = 0032;
userData = {
com.typemytype.robofont.mark = (
0.656,
1,
0.6,
1
);
};
},
{
color = 0;
glyphname = three;
lastChange = "2018-05-18 14:40:27 +0000";
layers = (
{
layerId = "B61D43DE-5272-4FF4-A680-608B6BF5ED9E";
paths = (
{
closed = 1;
nodes = (
"96 3 OFFCURVE",
"169 -15 OFFCURVE",
"245 -15 CURVE SMOOTH",
"388 -15 OFFCURVE",
"504 64 OFFCURVE",
"504 196 CURVE SMOOTH",
"504 280 OFFCURVE",
"456 360 OFFCURVE",
"371 360 CURVE",
"445 379 OFFCURVE",
"487 459 OFFCURVE",
"487 535 CURVE SMOOTH",
"487 649 OFFCURVE",
"399 714 OFFCURVE",
"261 714 CURVE SMOOTH",
"177 714 OFFCURVE",
"89 687 OFFCURVE",
"48 651 CURVE",
"88 546 LINE",
"124 586 OFFCURVE",
"195 607 OFFCURVE",
"234 607 CURVE SMOOTH",
"306 607 OFFCURVE",
"347 581 OFFCURVE",
"347 515 CURVE SMOOTH",
"347 454 OFFCURVE",
"308 409 OFFCURVE",
"226 409 CURVE",
"226 409 OFFCURVE",
"172 410 OFFCURVE",
"172 409 CURVE",
"172 310 LINE",
"171 311 OFFCURVE",
"213 312 OFFCURVE",
"214 312 CURVE SMOOTH",
"291 314 OFFCURVE",
"363 296 OFFCURVE",
"363 211 CURVE SMOOTH",
"363 147 OFFCURVE",
"322 99 OFFCURVE",
"232 99 CURVE SMOOTH",
"179 99 OFFCURVE",
"120 120 OFFCURVE",
"82 157 CURVE",
"40 43 LINE"
);
}
);
width = 545;
}
);
leftKerningGroup = three;
rightKerningGroup = three;
unicode = 0033;
userData = {
com.typemytype.robofont.mark = (
0.656,
1,
0.6,
1
);
};
},
{
color = 0;
glyphname = four;
lastChange = "2018-05-18 14:40:27 +0000";
layers = (
{
layerId = "B61D43DE-5272-4FF4-A680-608B6BF5ED9E";
paths = (
{
closed = 1;
nodes = (
"476 0 LINE",
"476 438 LINE",
"350 438 LINE",
"340 158 LINE",
"340 0 LINE"
);
},
{
closed = 1;
nodes = (
"22 126 LINE",
"573 126 LINE",
"573 239 LINE",
"205 239 LINE",
"379 697 LINE",
"240 697 LINE"
);
}
);
width = 599;
}
);
leftKerningGroup = four;
rightKerningGroup = four;
unicode = 0034;
userData = {
com.typemytype.robofont.mark = (
0.656,
1,
0.6,
1
);
};
},
{
color = 4;
glyphname = five;
lastChange = "2018-05-17 03:53:43 +0000";
layers = (
{
layerId = "B61D43DE-5272-4FF4-A680-608B6BF5ED9E";
paths = (
{
closed = 1;
nodes = (
"94 -1 OFFCURVE",
"169 -13 OFFCURVE",
"230 -13 CURVE SMOOTH",
"393 -13 OFFCURVE",
"505 83 OFFCURVE",
"505 239 CURVE SMOOTH",
"505 370 OFFCURVE",
"430 454 OFFCURVE",
"289 454 CURVE SMOOTH",
"253 454 OFFCURVE",
"224 451 OFFCURVE",
"193 442 CURVE",
"203 591 LINE",
"475 591 LINE",
"475 697 LINE",
"89 697 LINE",
"76 324 LINE",
"97 337 OFFCURVE",
"162 356 OFFCURVE",
"218 356 CURVE SMOOTH",
"315 356 OFFCURVE",
"370 305 OFFCURVE",
"370 226 CURVE SMOOTH",
"370 107 OFFCURVE",
"277 96 OFFCURVE",
"213 96 CURVE SMOOTH",
"166 96 OFFCURVE",
"111 117 OFFCURVE",
"82 144 CURVE",
"45 32 LINE"
);
}
);
width = 546;
}
);
leftKerningGroup = five;
rightKerningGroup = five;
unicode = 0035;
userData = {
com.typemytype.robofont.mark = (
0.656,
1,
0.6,
1
);
};
},
{
color = 4;
glyphname = six;
lastChange = "2018-05-17 03:53:43 +0000";
layers = (
{
layerId = "B61D43DE-5272-4FF4-A680-608B6BF5ED9E";
paths = (
{
closed = 1;
nodes = (
"57 73 OFFCURVE",
"209 -15 OFFCURVE",
"328 -15 CURVE SMOOTH",
"482 -15 OFFCURVE",
"582 83 OFFCURVE",
"582 237 CURVE SMOOTH",
"582 358 OFFCURVE",
"507 457 OFFCURVE",
"372 457 CURVE SMOOTH",
"299 457 OFFCURVE",
"227 427 OFFCURVE",
"191 358 CURVE",
"191 369 OFFCURVE",
"191 381 OFFCURVE",
"192 395 CURVE SMOOTH",
"199 498 OFFCURVE",
"265 605 OFFCURVE",
"369 605 CURVE SMOOTH",
"406 605 OFFCURVE",
"457 596 OFFCURVE",
"484 567 CURVE",
"533 663 LINE",
"501 694 OFFCURVE",
"456 714 OFFCURVE",
"362 714 CURVE SMOOTH",
"186 714 OFFCURVE",
"57 570 OFFCURVE",
"57 336 CURVE SMOOTH"
);
},
{
closed = 1;
nodes = (
"207 215 OFFCURVE",
"206 226 OFFCURVE",
"206 236 CURVE",
"210 301 OFFCURVE",
"276 355 OFFCURVE",
"342 355 CURVE SMOOTH",
"414 355 OFFCURVE",
"448 303 OFFCURVE",
"448 225 CURVE SMOOTH",
"448 139 OFFCURVE",
"394 88 OFFCURVE",
"331 88 CURVE SMOOTH",
"269 88 OFFCURVE",
"226 139 OFFCURVE",
"210 203 CURVE SMOOTH"
);
}
);
width = 623;
}
);
leftKerningGroup = six;
rightKerningGroup = six;
unicode = 0036;
userData = {
com.typemytype.robofont.mark = (
0.656,
1,
0.6,
1
);
};
},
{
color = 4;
glyphname = seven;
lastChange = "2018-05-17 03:53:43 +0000";
layers = (
{
layerId = "B61D43DE-5272-4FF4-A680-608B6BF5ED9E";
paths = (
{
closed = 1;
nodes = (
"274 0 LINE",
"502 697 LINE",
"45 697 LINE",
"45 579 LINE",
"409 579 LINE",
"358 647 LINE",
"129 0 LINE"
);
}
);
width = 527;
}
);
leftKerningGroup = seven;
rightKerningGroup = seven;
unicode = 0037;
userData = {
com.typemytype.robofont.mark = (
0.656,
1,
0.6,
1
);
};
},
{
color = 4;
glyphname = eight;
lastChange = "2018-05-17 03:53:43 +0000";
layers = (
{
layerId = "B61D43DE-5272-4FF4-A680-608B6BF5ED9E";
paths = (
{
closed = 1;
nodes = (
"211 589 OFFCURVE",
"244 622 OFFCURVE",
"312 622 CURVE SMOOTH",
"379 622 OFFCURVE",
"409 589 OFFCURVE",
"409 524 CURVE SMOOTH",
"409 452 OFFCURVE",
"374 412 OFFCURVE",
"312 412 CURVE SMOOTH",
"250 412 OFFCURVE",
"211 452 OFFCURVE",
"211 524 CURVE SMOOTH"
);
},
{
closed = 1;
nodes = (
"77 400 OFFCURVE",
"174 339 OFFCURVE",
"311 339 CURVE SMOOTH",
"438 339 OFFCURVE",
"542 400 OFFCURVE",
"542 533 CURVE SMOOTH",
"542 665 OFFCURVE",
"426 714 OFFCURVE",
"311 714 CURVE SMOOTH",
"195 714 OFFCURVE",
"77 665 OFFCURVE",
"77 533 CURVE SMOOTH"
);
},
{
closed = 1;
nodes = (
"367 310 OFFCURVE",
"427 283 OFFCURVE",
"427 193 CURVE SMOOTH",
"427 119 OFFCURVE",
"386 83 OFFCURVE",
"310 83 CURVE SMOOTH",
"233 83 OFFCURVE",
"191 119 OFFCURVE",
"191 193 CURVE SMOOTH",
"191 283 OFFCURVE",
"252 310 OFFCURVE",
"310 310 CURVE SMOOTH"
);
},
{
closed = 1;
nodes = (
"435 -18 OFFCURVE",
"572 40 OFFCURVE",
"572 191 CURVE SMOOTH",
"572 321 OFFCURVE",
"454 384 OFFCURVE",
"310 384 CURVE SMOOTH",
"165 384 OFFCURVE",
"47 321 OFFCURVE",
"47 191 CURVE SMOOTH",
"47 40 OFFCURVE",
"184 -18 OFFCURVE",
"310 -18 CURVE SMOOTH"
);
}
);
width = 619;
}
);
leftKerningGroup = eight;
rightKerningGroup = eight;
unicode = 0038;
userData = {
com.typemytype.robofont.mark = (
0.656,
1,
0.6,
1
);
};
},
{
color = 4;
glyphname = nine;
lastChange = "2018-05-17 03:53:43 +0000";
layers = (
{
layerId = "B61D43DE-5272-4FF4-A680-608B6BF5ED9E";
paths = (
{
closed = 1;
nodes = (
"582 626 OFFCURVE",
"439 714 OFFCURVE",
"320 714 CURVE SMOOTH",
"166 714 OFFCURVE",
"57 616 OFFCURVE",
"57 462 CURVE SMOOTH",
"57 341 OFFCURVE",
"132 242 OFFCURVE",
"267 242 CURVE SMOOTH",
"340 242 OFFCURVE",
"412 272 OFFCURVE",
"448 341 CURVE",
"448 330 OFFCURVE",
"447 318 OFFCURVE",
"447 304 CURVE SMOOTH",
"447 183 OFFCURVE",
"374 98 OFFCURVE",
"270 98 CURVE SMOOTH",
"233 98 OFFCURVE",
"182 107 OFFCURVE",
"155 136 CURVE",
"106 36 LINE",
"138 5 OFFCURVE",
"183 -15 OFFCURVE",
"277 -15 CURVE SMOOTH",
"453 -15 OFFCURVE",
"582 129 OFFCURVE",
"582 363 CURVE SMOOTH"
);
},
{
closed = 1;
nodes = (
"430 484 OFFCURVE",
"433 473 OFFCURVE",
"433 463 CURVE",
"429 398 OFFCURVE",
"366 344 OFFCURVE",
"300 344 CURVE SMOOTH",
"228 344 OFFCURVE",
"191 396 OFFCURVE",
"191 474 CURVE SMOOTH",
"191 560 OFFCURVE",
"254 611 OFFCURVE",
"317 611 CURVE SMOOTH",
"379 611 OFFCURVE",
"422 560 OFFCURVE",
"429 496 CURVE SMOOTH"
);
}
);
width = 623;
}
);
leftKerningGroup = nine;
rightKerningGroup = nine;
unicode = 0039;
userData = {
com.typemytype.robofont.mark = (
0.656,
1,
0.6,
1
);
};
},
{
glyphname = zero.lt.zero;
lastChange = "2018-05-17 02:33:02 +0000";
layers = (
{
layerId = "B61D43DE-5272-4FF4-A680-608B6BF5ED9E";
paths = (
{
closed = 1;
nodes = (
"202 89 OFFCURVE",
"172 202 OFFCURVE",
"172 348 CURVE SMOOTH",
"172 502 OFFCURVE",
"203 609 OFFCURVE",
"288 609 CURVE SMOOTH",
"372 609 OFFCURVE",
"403 502 OFFCURVE",
"403 348 CURVE SMOOTH",
"403 202 OFFCURVE",
"374 89 OFFCURVE",
"288 89 CURVE SMOOTH"
);
},
{
closed = 1;
nodes = (
"474 -18 OFFCURVE",
"548 133 OFFCURVE",
"548 347 CURVE SMOOTH",
"548 596 OFFCURVE",
"453 714 OFFCURVE",
"292 714 CURVE SMOOTH",
"131 714 OFFCURVE",
"36 596 OFFCURVE",
"36 347 CURVE SMOOTH",
"36 133 OFFCURVE",
"110 -18 OFFCURVE",
"292 -18 CURVE SMOOTH"
);
},
{
closed = 1;
nodes = (
"239 89 LINE",
"415 609 LINE",
"336 609 LINE",
"160 89 LINE"
);
}
);
width = 582;
}
);
leftKerningGroup = zeroslash.lt;
rightKerningGroup = zeroslash.lt;
},
{
color = 4;
glyphname = zero.osf;
lastChange = "2018-05-17 02:33:02 +0000";
layers = (
{
layerId = "B61D43DE-5272-4FF4-A680-608B6BF5ED9E";
paths = (
{
closed = 1;
nodes = (
"200 89 OFFCURVE",
"170 202 OFFCURVE",
"170 304 CURVE SMOOTH",
"170 424 OFFCURVE",
"201 527 OFFCURVE",
"286 527 CURVE SMOOTH",
"370 527 OFFCURVE",
"401 458 OFFCURVE",
"401 304 CURVE SMOOTH",
"401 202 OFFCURVE",
"372 89 OFFCURVE",
"286 89 CURVE SMOOTH"
);
},
{
closed = 1;
nodes = (
"472 -18 OFFCURVE",
"546 133 OFFCURVE",
"546 303 CURVE SMOOTH",
"546 513 OFFCURVE",
"451 632 OFFCURVE",
"290 632 CURVE SMOOTH",
"129 632 OFFCURVE",
"34 513 OFFCURVE",
"34 303 CURVE SMOOTH",
"34 133 OFFCURVE",
"108 -18 OFFCURVE",
"290 -18 CURVE SMOOTH"
);
}
);
width = 582;
}
);
leftKerningGroup = zero.op;
rightKerningGroup = zero.op;
},
{
color = 4;
glyphname = one.osf;
lastChange = "2018-05-17 02:33:02 +0000";
layers = (
{
layerId = "B61D43DE-5272-4FF4-A680-608B6BF5ED9E";
paths = (
{
closed = 1;
nodes = (
"224 0 LINE",
"224 632 LINE",
"89 561 LINE",
"89 0 LINE"
);
}
);
width = 313;
}
);
leftKerningGroup = one.op;
leftMetricsKey = one;
rightKerningGroup = one.op;
rightMetricsKey = one;
},
{
color = 4;
glyphname = two.osf;
lastChange = "2018-05-17 02:33:02 +0000";
layers = (
{
layerId = "B61D43DE-5272-4FF4-A680-608B6BF5ED9E";
paths = (
{
closed = 1;
nodes = (
"512 114 LINE",
"121 114 LINE",
"195 85 LINE",
"195 136 OFFCURVE",
"251 155 OFFCURVE",
"346 215 CURVE SMOOTH",
"428 267 OFFCURVE",
"508 348 OFFCURVE",
"508 433 CURVE SMOOTH",
"508 560 OFFCURVE",
"422 632 OFFCURVE",
"298 632 CURVE SMOOTH",
"162 632 OFFCURVE",
"59 546 OFFCURVE",
"43 442 CURVE",
"145 392 LINE",
"154 460 OFFCURVE",
"208 517 OFFCURVE",
"284 517 CURVE SMOOTH",
"350 517 OFFCURVE",
"374 485 OFFCURVE",
"374 433 CURVE SMOOTH",
"374 360 OFFCURVE",
"273 304 OFFCURVE",
"204 260 CURVE SMOOTH",
"83 183 OFFCURVE",
"56 125 OFFCURVE",
"56 70 CURVE SMOOTH",
"56 41 OFFCURVE",
"59 21 OFFCURVE",
"63 0 CURVE",
"512 0 LINE"
);
}
);
width = 561;
}
);
leftKerningGroup = two.op;
leftMetricsKey = two;
rightKerningGroup = two.op;
rightMetricsKey = two;
},
{
color = 4;
glyphname = three.osf;
lastChange = "2018-05-17 02:33:02 +0000";
layers = (
{
layerId = "B61D43DE-5272-4FF4-A680-608B6BF5ED9E";
paths = (
{
closed = 1;
nodes = (
"96 -79 OFFCURVE",
"169 -97 OFFCURVE",
"245 -97 CURVE SMOOTH",
"388 -97 OFFCURVE",
"504 -18 OFFCURVE",
"504 114 CURVE SMOOTH",
"504 198 OFFCURVE",
"456 278 OFFCURVE",
"371 278 CURVE",
"445 297 OFFCURVE",
"487 377 OFFCURVE",
"487 453 CURVE SMOOTH",
"487 567 OFFCURVE",
"399 632 OFFCURVE",
"261 632 CURVE SMOOTH",
"177 632 OFFCURVE",
"89 605 OFFCURVE",
"48 569 CURVE",
"88 464 LINE",
"124 504 OFFCURVE",
"195 525 OFFCURVE",
"234 525 CURVE SMOOTH",
"306 525 OFFCURVE",
"347 499 OFFCURVE",
"347 433 CURVE SMOOTH",
"347 372 OFFCURVE",
"308 327 OFFCURVE",
"226 327 CURVE",
"226 327 OFFCURVE",
"172 328 OFFCURVE",
"172 327 CURVE",
"172 228 LINE",
"171 229 OFFCURVE",
"213 230 OFFCURVE",
"214 230 CURVE SMOOTH",
"291 230 OFFCURVE",
"363 214 OFFCURVE",
"363 129 CURVE SMOOTH",
"363 65 OFFCURVE",
"322 17 OFFCURVE",
"232 17 CURVE SMOOTH",
"179 17 OFFCURVE",
"120 38 OFFCURVE",
"82 75 CURVE",
"40 -39 LINE"
);
}
);
width = 545;
}
);
leftKerningGroup = three.op;
leftMetricsKey = three;
rightKerningGroup = three.op;
rightMetricsKey = three;
},
{
color = 4;
glyphname = four.osf;
lastChange = "2018-05-17 02:33:02 +0000";
layers = (
{
layerId = "B61D43DE-5272-4FF4-A680-608B6BF5ED9E";
paths = (
{
closed = 1;
nodes = (
"476 -156 LINE",
"476 312 LINE",
"350 312 LINE",
"340 32 LINE",
"340 -156 LINE"
);
},
{
closed = 1;
nodes = (
"22 0 LINE",
"573 0 LINE",
"573 113 LINE",
"205 113 LINE",
"399 616 LINE",
"260 616 LINE"
);
}
);
width = 599;
}
);
leftKerningGroup = four.op;
rightKerningGroup = four.op;
},
{
color = 4;
glyphname = five.osf;
lastChange = "2018-05-17 02:33:02 +0000";
layers = (
{
layerId = "B61D43DE-5272-4FF4-A680-608B6BF5ED9E";
paths = (
{
closed = 1;
nodes = (
"94 -82 OFFCURVE",
"169 -94 OFFCURVE",
"230 -94 CURVE SMOOTH",
"393 -94 OFFCURVE",
"505 2 OFFCURVE",
"505 158 CURVE SMOOTH",
"505 289 OFFCURVE",
"430 373 OFFCURVE",
"289 373 CURVE SMOOTH",
"253 373 OFFCURVE",
"224 370 OFFCURVE",
"193 361 CURVE",
"203 510 LINE",
"475 510 LINE",
"475 616 LINE",
"89 616 LINE",
"76 243 LINE",
"97 256 OFFCURVE",
"162 275 OFFCURVE",
"218 275 CURVE SMOOTH",
"315 275 OFFCURVE",
"370 224 OFFCURVE",
"370 145 CURVE SMOOTH",
"370 26 OFFCURVE",
"277 15 OFFCURVE",
"213 15 CURVE SMOOTH",
"166 15 OFFCURVE",
"111 36 OFFCURVE",
"82 63 CURVE",
"45 -49 LINE"
);
}
);
width = 546;
}
);
leftKerningGroup = five.op;
leftMetricsKey = five;
rightKerningGroup = five.op;
rightMetricsKey = five;
},
{
color = 4;
glyphname = six.osf;
lastChange = "2018-05-17 02:33:02 +0000";
layers = (
{
layerId = "B61D43DE-5272-4FF4-A680-608B6BF5ED9E";
paths = (
{
closed = 1;
nodes = (
"57 73 OFFCURVE",
"209 -15 OFFCURVE",
"328 -15 CURVE SMOOTH",
"482 -15 OFFCURVE",
"582 83 OFFCURVE",
"582 237 CURVE SMOOTH",
"582 358 OFFCURVE",
"507 457 OFFCURVE",
"372 457 CURVE SMOOTH",
"299 457 OFFCURVE",
"227 427 OFFCURVE",
"191 358 CURVE",
"191 369 OFFCURVE",
"191 381 OFFCURVE",
"192 395 CURVE SMOOTH",
"199 498 OFFCURVE",
"265 605 OFFCURVE",
"369 605 CURVE SMOOTH",
"406 605 OFFCURVE",
"457 596 OFFCURVE",
"484 567 CURVE",
"533 663 LINE",
"501 694 OFFCURVE",
"456 714 OFFCURVE",
"362 714 CURVE SMOOTH",
"186 714 OFFCURVE",
"57 570 OFFCURVE",
"57 336 CURVE SMOOTH"
);
},
{
closed = 1;
nodes = (
"207 215 OFFCURVE",
"206 226 OFFCURVE",
"206 236 CURVE",
"210 301 OFFCURVE",
"276 355 OFFCURVE",
"342 355 CURVE SMOOTH",
"414 355 OFFCURVE",
"448 303 OFFCURVE",
"448 225 CURVE SMOOTH",
"448 139 OFFCURVE",
"394 88 OFFCURVE",
"331 88 CURVE SMOOTH",
"269 88 OFFCURVE",
"226 139 OFFCURVE",
"210 203 CURVE SMOOTH"
);
}
);
width = 623;
}
);
leftKerningGroup = six.op;
leftMetricsKey = six;
rightKerningGroup = six.op;
rightMetricsKey = six;
},
{
color = 4;
glyphname = seven.osf;
lastChange = "2018-05-17 02:33:02 +0000";
layers = (
{
layerId = "B61D43DE-5272-4FF4-A680-608B6BF5ED9E";
paths = (
{
closed = 1;
nodes = (
"274 -81 LINE",
"502 616 LINE",
"45 616 LINE",
"45 498 LINE",
"409 498 LINE",
"358 566 LINE",
"129 -81 LINE"
);
}
);
width = 527;
}
);
leftKerningGroup = seven.op;
leftMetricsKey = seven;
rightKerningGroup = seven.op;
rightMetricsKey = seven;
},
{
color = 4;
glyphname = eight.osf;
lastChange = "2018-05-17 02:33:02 +0000";
layers = (
{
layerId = "B61D43DE-5272-4FF4-A680-608B6BF5ED9E";
paths = (
{
closed = 1;
nodes = (
"211 589 OFFCURVE",
"244 622 OFFCURVE",
"312 622 CURVE SMOOTH",
"379 622 OFFCURVE",
"409 589 OFFCURVE",
"409 524 CURVE SMOOTH",
"409 452 OFFCURVE",
"374 412 OFFCURVE",
"312 412 CURVE SMOOTH",
"250 412 OFFCURVE",
"211 452 OFFCURVE",
"211 524 CURVE SMOOTH"
);
},
{
closed = 1;
nodes = (
"77 400 OFFCURVE",
"174 339 OFFCURVE",
"311 339 CURVE SMOOTH",
"438 339 OFFCURVE",
"542 400 OFFCURVE",
"542 533 CURVE SMOOTH",
"542 665 OFFCURVE",
"426 714 OFFCURVE",
"311 714 CURVE SMOOTH",
"195 714 OFFCURVE",
"77 665 OFFCURVE",
"77 533 CURVE SMOOTH"
);
},
{
closed = 1;
nodes = (
"367 310 OFFCURVE",
"427 283 OFFCURVE",
"427 193 CURVE SMOOTH",
"427 119 OFFCURVE",
"386 83 OFFCURVE",
"310 83 CURVE SMOOTH",
"233 83 OFFCURVE",
"191 119 OFFCURVE",
"191 193 CURVE SMOOTH",
"191 283 OFFCURVE",
"252 310 OFFCURVE",
"310 310 CURVE SMOOTH"
);
},
{
closed = 1;
nodes = (
"435 -18 OFFCURVE",
"572 40 OFFCURVE",
"572 191 CURVE SMOOTH",
"572 321 OFFCURVE",
"454 384 OFFCURVE",
"310 384 CURVE SMOOTH",
"165 384 OFFCURVE",
"47 321 OFFCURVE",
"47 191 CURVE SMOOTH",
"47 40 OFFCURVE",
"184 -18 OFFCURVE",
"310 -18 CURVE SMOOTH"
);
}
);
width = 619;
}
);
leftKerningGroup = eight.op;
leftMetricsKey = eight;
rightKerningGroup = eight.op;
rightMetricsKey = eight;
},
{
color = 4;
glyphname = nine.osf;
lastChange = "2018-05-17 02:33:02 +0000";
layers = (
{
layerId = "B61D43DE-5272-4FF4-A680-608B6BF5ED9E";
paths = (
{
closed = 1;
nodes = (
"582 544 OFFCURVE",
"439 632 OFFCURVE",
"320 632 CURVE SMOOTH",
"166 632 OFFCURVE",
"57 534 OFFCURVE",
"57 380 CURVE SMOOTH",
"57 259 OFFCURVE",
"132 160 OFFCURVE",
"267 160 CURVE SMOOTH",
"340 160 OFFCURVE",
"412 190 OFFCURVE",
"448 259 CURVE",
"448 248 OFFCURVE",
"447 236 OFFCURVE",
"447 222 CURVE SMOOTH",
"447 101 OFFCURVE",
"374 16 OFFCURVE",
"270 16 CURVE SMOOTH",
"233 16 OFFCURVE",
"182 25 OFFCURVE",
"155 54 CURVE",
"106 -46 LINE",
"138 -77 OFFCURVE",
"183 -97 OFFCURVE",
"277 -97 CURVE SMOOTH",
"453 -97 OFFCURVE",
"582 47 OFFCURVE",
"582 281 CURVE SMOOTH"
);
},
{
closed = 1;
nodes = (
"430 402 OFFCURVE",
"433 391 OFFCURVE",
"433 381 CURVE",
"429 316 OFFCURVE",
"366 262 OFFCURVE",
"300 262 CURVE SMOOTH",
"228 262 OFFCURVE",
"191 314 OFFCURVE",
"191 392 CURVE SMOOTH",
"191 478 OFFCURVE",
"254 529 OFFCURVE",
"317 529 CURVE SMOOTH",
"379 529 OFFCURVE",
"424 478 OFFCURVE",
"429 414 CURVE SMOOTH"
);
}
);
width = 623;
}
);
leftKerningGroup = nine.op;
rightKerningGroup = nine.op;
},
{
color = 4;
glyphname = zero.osf.zero;
lastChange = "2018-05-17 02:33:02 +0000";
layers = (
{
components = (
{
name = zero.osf;
}
);
layerId = "B61D43DE-5272-4FF4-A680-608B6BF5ED9E";
paths = (
{
closed = 1;
nodes = (
"239 89 LINE",
"415 525 LINE",
"336 525 LINE",
"160 89 LINE"
);
}
);
width = 580;
}
);
leftKerningGroup = zeroslash.op;
leftMetricsKey = zero;
rightKerningGroup = zeroslash.op;
rightMetricsKey = zero;
},
{
color = 4;
glyphname = zero.tf;
lastChange = "2018-05-17 02:41:30 +0000";
layers = (
{
layerId = "B61D43DE-5272-4FF4-A680-608B6BF5ED9E";
paths = (
{
closed = 1;
nodes = (
"209 89 OFFCURVE",
"179 202 OFFCURVE",
"179 348 CURVE SMOOTH",
"179 502 OFFCURVE",
"211 609 OFFCURVE",
"296 609 CURVE SMOOTH",
"380 609 OFFCURVE",
"411 502 OFFCURVE",
"411 348 CURVE SMOOTH",
"411 202 OFFCURVE",
"381 89 OFFCURVE",
"295 89 CURVE SMOOTH"
);
},
{
closed = 1;
nodes = (
"481 -18 OFFCURVE",
"556 133 OFFCURVE",
"556 347 CURVE SMOOTH",
"556 596 OFFCURVE",
"461 714 OFFCURVE",
"300 714 CURVE SMOOTH",
"139 714 OFFCURVE",
"43 596 OFFCURVE",
"43 347 CURVE SMOOTH",
"43 133 OFFCURVE",
"117 -18 OFFCURVE",
"299 -18 CURVE SMOOTH"
);
}
);
userData = {
RMXScaler = {
keepStroke = 90;
monoWidth = 599;
};
};
width = 599;
}
);
userData = {
RMXScaler = {
source = zero;
};
};
},
{
color = 4;
glyphname = one.tf;
lastChange = "2018-05-17 02:40:12 +0000";
layers = (
{
layerId = "B61D43DE-5272-4FF4-A680-608B6BF5ED9E";
paths = (
{
closed = 1;
nodes = (
"367 0 LINE",
"367 697 LINE",
"232 627 LINE",
"232 0 LINE"
);
},
{
closed = 1;
nodes = (
"483 0 LINE",
"483 98 LINE",
"104 98 LINE",
"104 0 LINE"
);
},
{
closed = 1;
nodes = (
"335 582 LINE",
"367 697 LINE",
"118 654 LINE",
"118 539 LINE"
);
}
);
userData = {
RMXScaler = {
keepStroke = 90;
monoWidth = 599;
};
};
width = 599;
}
);
userData = {
RMXScaler = {
source = one;
};
};
},
{
color = 4;
glyphname = two.tf;
lastChange = "2018-05-17 02:38:43 +0000";
layers = (
{
layerId = "B61D43DE-5272-4FF4-A680-608B6BF5ED9E";
paths = (
{
closed = 1;
nodes = (
"534 114 LINE",
"143 114 LINE",
"206 85 LINE",
"206 185 OFFCURVE",
"273 204 OFFCURVE",
"368 264 CURVE SMOOTH",
"450 316 OFFCURVE",
"530 387 OFFCURVE",
"530 515 CURVE SMOOTH",
"530 642 OFFCURVE",
"444 714 OFFCURVE",
"320 714 CURVE SMOOTH",
"184 714 OFFCURVE",
"81 628 OFFCURVE",
"65 524 CURVE",
"167 474 LINE",
"176 542 OFFCURVE",
"230 599 OFFCURVE",
"306 599 CURVE SMOOTH",
"372 599 OFFCURVE",
"396 555 OFFCURVE",
"396 503 CURVE SMOOTH",
"396 396 OFFCURVE",
"295 353 OFFCURVE",
"226 309 CURVE SMOOTH",
"105 232 OFFCURVE",
"78 161 OFFCURVE",
"78 70 CURVE SMOOTH",
"78 41 OFFCURVE",
"81 21 OFFCURVE",
"85 0 CURVE",
"534 0 LINE"
);
}
);
userData = {
RMXScaler = {
keepStroke = 90;
monoWidth = 599;
};
};
width = 599;
}
);
userData = {
RMXScaler = {
source = two.subs;
};
};
},
{
color = 4;
glyphname = three.tf;
lastChange = "2018-05-17 02:38:43 +0000";
layers = (
{
layerId = "B61D43DE-5272-4FF4-A680-608B6BF5ED9E";
paths = (
{
closed = 1;
nodes = (
"123 3 OFFCURVE",
"196 -15 OFFCURVE",
"272 -15 CURVE SMOOTH",
"415 -15 OFFCURVE",
"531 64 OFFCURVE",
"531 196 CURVE SMOOTH",
"531 280 OFFCURVE",
"483 360 OFFCURVE",
"398 360 CURVE",
"472 379 OFFCURVE",
"514 459 OFFCURVE",
"514 535 CURVE SMOOTH",
"514 649 OFFCURVE",
"426 714 OFFCURVE",
"288 714 CURVE SMOOTH",
"204 714 OFFCURVE",
"116 687 OFFCURVE",
"75 651 CURVE",
"115 546 LINE",
"151 586 OFFCURVE",
"222 607 OFFCURVE",
"261 607 CURVE SMOOTH",
"333 607 OFFCURVE",
"374 581 OFFCURVE",
"374 515 CURVE SMOOTH",
"374 454 OFFCURVE",
"335 409 OFFCURVE",
"253 409 CURVE",
"253 409 OFFCURVE",
"199 410 OFFCURVE",
"199 409 CURVE",
"199 310 LINE",
"198 311 OFFCURVE",
"240 312 OFFCURVE",
"241 312 CURVE SMOOTH",
"318 312 OFFCURVE",
"390 296 OFFCURVE",
"390 211 CURVE SMOOTH",
"390 147 OFFCURVE",
"349 99 OFFCURVE",
"259 99 CURVE SMOOTH",
"206 99 OFFCURVE",
"147 120 OFFCURVE",
"109 157 CURVE",
"67 43 LINE"
);
}
);
userData = {
RMXScaler = {
keepStroke = 90;
monoWidth = 599;
};
};
width = 599;
}
);
userData = {
RMXScaler = {
source = three.subs;
};
};
},
{
color = 4;
glyphname = four.tf;
lastChange = "2018-05-17 02:58:27 +0000";
layers = (
{
layerId = "B61D43DE-5272-4FF4-A680-608B6BF5ED9E";
paths = (
{
closed = 1;
nodes = (
"476 -156 LINE",
"476 312 LINE",
"350 312 LINE",
"340 32 LINE",
"340 -156 LINE"
);
},
{
closed = 1;
nodes = (
"22 0 LINE",
"573 0 LINE",
"573 113 LINE",
"205 113 LINE",
"399 616 LINE",
"260 616 LINE"
);
}
);
userData = {
RMXScaler = {
keepStroke = 90;
monoWidth = 599;
};
};
width = 599;
}
);
userData = {
RMXScaler = {
source = four.subs;
};
};
},
{
color = 4;
glyphname = five.tf;
lastChange = "2018-05-17 02:38:43 +0000";
layers = (
{
layerId = "B61D43DE-5272-4FF4-A680-608B6BF5ED9E";
paths = (
{
closed = 1;
nodes = (
"124 -1 OFFCURVE",
"209 -13 OFFCURVE",
"270 -13 CURVE SMOOTH",
"433 -13 OFFCURVE",
"545 83 OFFCURVE",
"545 239 CURVE SMOOTH",
"545 370 OFFCURVE",
"470 454 OFFCURVE",
"329 454 CURVE SMOOTH",
"293 454 OFFCURVE",
"254 451 OFFCURVE",
"223 442 CURVE",
"233 591 LINE",
"518 591 LINE",
"518 697 LINE",
"119 697 LINE",
"106 324 LINE",
"127 337 OFFCURVE",
"202 356 OFFCURVE",
"258 356 CURVE SMOOTH",
"355 356 OFFCURVE",
"410 305 OFFCURVE",
"410 226 CURVE SMOOTH",
"410 107 OFFCURVE",
"317 96 OFFCURVE",
"253 96 CURVE SMOOTH",
"206 96 OFFCURVE",
"141 117 OFFCURVE",
"112 144 CURVE",
"75 32 LINE"
);
}
);
userData = {
RMXScaler = {
keepStroke = 90;
monoWidth = 599;
};
};
width = 599;
}
);
userData = {
RMXScaler = {
source = five.subs;
};
};
},
{
color = 4;
glyphname = six.tf;
lastChange = "2018-05-17 02:40:32 +0000";
layers = (
{
layerId = "B61D43DE-5272-4FF4-A680-608B6BF5ED9E";
paths = (
{
closed = 1;
nodes = (
"34 73 OFFCURVE",
"186 -15 OFFCURVE",
"305 -15 CURVE SMOOTH",
"459 -15 OFFCURVE",
"559 83 OFFCURVE",
"559 237 CURVE SMOOTH",
"559 358 OFFCURVE",
"484 457 OFFCURVE",
"349 457 CURVE SMOOTH",
"276 457 OFFCURVE",
"204 427 OFFCURVE",
"168 358 CURVE",
"168 369 OFFCURVE",
"168 381 OFFCURVE",
"169 395 CURVE SMOOTH",
"176 498 OFFCURVE",
"242 605 OFFCURVE",
"346 605 CURVE SMOOTH",
"383 605 OFFCURVE",
"434 596 OFFCURVE",
"461 567 CURVE",
"510 663 LINE",
"478 694 OFFCURVE",
"433 714 OFFCURVE",
"339 714 CURVE SMOOTH",
"163 714 OFFCURVE",
"34 570 OFFCURVE",
"34 336 CURVE SMOOTH"
);
},
{
closed = 1;
nodes = (
"184 215 OFFCURVE",
"183 226 OFFCURVE",
"183 236 CURVE",
"187 301 OFFCURVE",
"253 355 OFFCURVE",
"319 355 CURVE SMOOTH",
"391 355 OFFCURVE",
"425 303 OFFCURVE",
"425 225 CURVE SMOOTH",
"425 139 OFFCURVE",
"371 88 OFFCURVE",
"308 88 CURVE SMOOTH",
"246 88 OFFCURVE",
"203 139 OFFCURVE",
"187 203 CURVE SMOOTH"
);
}
);
userData = {
RMXScaler = {
keepStroke = 90;
monoWidth = 599;
};
};
width = 599;
}
);
userData = {
RMXScaler = {
source = six.subs;
};
};
},
{
color = 4;
glyphname = seven.tf;
lastChange = "2018-05-17 02:41:09 +0000";
layers = (
{
layerId = "B61D43DE-5272-4FF4-A680-608B6BF5ED9E";
paths = (
{
closed = 1;
nodes = (
"314 0 LINE",
"572 697 LINE",
"55 697 LINE",
"55 579 LINE",
"479 579 LINE",
"428 647 LINE",
"169 0 LINE"
);
}
);
userData = {
RMXScaler = {
keepStroke = 90;
monoWidth = 599;
};
};
width = 599;
}
);
userData = {
RMXScaler = {
source = seven.subs;
};
};
},
{
color = 4;
glyphname = eight.tf;
lastChange = "2018-05-17 02:41:09 +0000";
layers = (
{
layerId = "B61D43DE-5272-4FF4-A680-608B6BF5ED9E";
paths = (
{
closed = 1;
nodes = (
"201 589 OFFCURVE",
"234 622 OFFCURVE",
"302 622 CURVE SMOOTH",
"369 622 OFFCURVE",
"399 589 OFFCURVE",
"399 524 CURVE SMOOTH",
"399 452 OFFCURVE",
"364 412 OFFCURVE",
"302 412 CURVE SMOOTH",
"240 412 OFFCURVE",
"201 452 OFFCURVE",
"201 524 CURVE SMOOTH"
);
},
{
closed = 1;
nodes = (
"67 400 OFFCURVE",
"164 339 OFFCURVE",
"301 339 CURVE SMOOTH",
"428 339 OFFCURVE",
"532 400 OFFCURVE",
"532 533 CURVE SMOOTH",
"532 665 OFFCURVE",
"416 714 OFFCURVE",
"301 714 CURVE SMOOTH",
"185 714 OFFCURVE",
"67 665 OFFCURVE",
"67 533 CURVE SMOOTH"
);
},
{
closed = 1;
nodes = (
"357 310 OFFCURVE",
"417 283 OFFCURVE",
"417 193 CURVE SMOOTH",
"417 119 OFFCURVE",
"376 83 OFFCURVE",
"300 83 CURVE SMOOTH",
"223 83 OFFCURVE",
"181 119 OFFCURVE",
"181 193 CURVE SMOOTH",
"181 283 OFFCURVE",
"242 310 OFFCURVE",
"300 310 CURVE SMOOTH"
);
},
{
closed = 1;
nodes = (
"425 -18 OFFCURVE",
"562 40 OFFCURVE",
"562 191 CURVE SMOOTH",
"562 321 OFFCURVE",
"444 384 OFFCURVE",
"300 384 CURVE SMOOTH",
"155 384 OFFCURVE",
"37 321 OFFCURVE",
"37 191 CURVE SMOOTH",
"37 40 OFFCURVE",
"174 -18 OFFCURVE",
"300 -18 CURVE SMOOTH"
);
}
);
userData = {
RMXScaler = {
keepStroke = 90;
monoWidth = 599;
};
};
width = 599;
}
);
userData = {
RMXScaler = {
source = eight.subs;
};
};
},
{
color = 4;
glyphname = nine.tf;
lastChange = "2018-05-17 02:42:30 +0000";
layers = (
{
layerId = "B61D43DE-5272-4FF4-A680-608B6BF5ED9E";
paths = (
{
closed = 1;
nodes = (
"556 626 OFFCURVE",
"413 714 OFFCURVE",
"294 714 CURVE SMOOTH",
"140 714 OFFCURVE",
"31 616 OFFCURVE",
"31 462 CURVE SMOOTH",
"31 341 OFFCURVE",
"106 242 OFFCURVE",
"241 242 CURVE SMOOTH",
"314 242 OFFCURVE",
"386 272 OFFCURVE",
"422 341 CURVE",
"422 330 OFFCURVE",
"421 318 OFFCURVE",
"421 304 CURVE SMOOTH",
"421 183 OFFCURVE",
"348 98 OFFCURVE",
"244 98 CURVE SMOOTH",
"207 98 OFFCURVE",
"156 107 OFFCURVE",
"129 136 CURVE",
"80 36 LINE",
"112 5 OFFCURVE",
"157 -15 OFFCURVE",
"251 -15 CURVE SMOOTH",
"427 -15 OFFCURVE",
"556 129 OFFCURVE",
"556 363 CURVE SMOOTH"
);
},
{
closed = 1;
nodes = (
"404 484 OFFCURVE",
"407 473 OFFCURVE",
"407 463 CURVE",
"403 398 OFFCURVE",
"340 344 OFFCURVE",
"274 344 CURVE SMOOTH",
"202 344 OFFCURVE",
"165 396 OFFCURVE",
"165 474 CURVE SMOOTH",
"165 560 OFFCURVE",
"228 611 OFFCURVE",
"291 611 CURVE SMOOTH",
"353 611 OFFCURVE",
"398 560 OFFCURVE",
"403 496 CURVE SMOOTH"
);
}
);
userData = {
RMXScaler = {
keepStroke = 90;
monoWidth = 599;
};
};
width = 599;
}
);
userData = {
RMXScaler = {
source = nine.subs;
};
};
},
{
color = 4;
glyphname = zero.tf.zero;
lastChange = "2018-05-17 03:07:50 +0000";
layers = (
{
layerId = "B61D43DE-5272-4FF4-A680-608B6BF5ED9E";
paths = (
{
closed = 1;
nodes = (
"246 89 LINE",
"422 609 LINE",
"343 609 LINE",
"167 89 LINE"
);
},
{
closed = 1;
nodes = (
"209 89 OFFCURVE",
"179 202 OFFCURVE",
"179 348 CURVE SMOOTH",
"179 502 OFFCURVE",
"211 609 OFFCURVE",
"296 609 CURVE SMOOTH",
"380 609 OFFCURVE",
"411 502 OFFCURVE",
"411 348 CURVE SMOOTH",
"411 202 OFFCURVE",
"381 89 OFFCURVE",
"295 89 CURVE SMOOTH"
);
},
{
closed = 1;
nodes = (
"481 -18 OFFCURVE",
"556 133 OFFCURVE",
"556 347 CURVE SMOOTH",
"556 596 OFFCURVE",
"461 714 OFFCURVE",
"300 714 CURVE SMOOTH",
"139 714 OFFCURVE",
"43 596 OFFCURVE",
"43 347 CURVE SMOOTH",
"43 133 OFFCURVE",
"117 -18 OFFCURVE",
"299 -18 CURVE SMOOTH"
);
}
);
userData = {
RMXScaler = {
keepStroke = 90;
monoWidth = 599;
};
};
width = 599;
}
);
userData = {
RMXScaler = {
source = zero.tf;
};
};
},
{
color = 4;
glyphname = zero.tosf;
lastChange = "2018-05-17 02:44:34 +0000";
layers = (
{
layerId = "B61D43DE-5272-4FF4-A680-608B6BF5ED9E";
paths = (
{
closed = 1;
nodes = (
"200 89 OFFCURVE",
"170 202 OFFCURVE",
"170 304 CURVE SMOOTH",
"170 424 OFFCURVE",
"203 527 OFFCURVE",
"288 527 CURVE SMOOTH",
"372 527 OFFCURVE",
"403 458 OFFCURVE",
"403 304 CURVE SMOOTH",
"403 202 OFFCURVE",
"372 89 OFFCURVE",
"286 89 CURVE SMOOTH"
);
},
{
closed = 1;
nodes = (
"472 -18 OFFCURVE",
"548 133 OFFCURVE",
"548 303 CURVE SMOOTH",
"548 513 OFFCURVE",
"453 632 OFFCURVE",
"292 632 CURVE SMOOTH",
"131 632 OFFCURVE",
"34 513 OFFCURVE",
"34 303 CURVE SMOOTH",
"34 133 OFFCURVE",
"108 -18 OFFCURVE",
"290 -18 CURVE SMOOTH"
);
}
);
userData = {
RMXScaler = {
monoWidth = 599;
};
};
width = 582;
}
);
userData = {
RMXScaler = {
source = zero;
};
};
},
{
color = 9;
glyphname = one.tosf;
lastChange = "2018-05-17 02:59:33 +0000";
layers = (
{
layerId = "B61D43DE-5272-4FF4-A680-608B6BF5ED9E";
paths = (
{
closed = 1;
nodes = (
"367 0 LINE",
"367 632 LINE",
"232 562 LINE",
"232 0 LINE"
);
},
{
closed = 1;
nodes = (
"483 0 LINE",
"483 98 LINE",
"104 98 LINE",
"104 0 LINE"
);
},
{
closed = 1;
nodes = (
"335 517 LINE",
"367 632 LINE",
"118 589 LINE",
"118 474 LINE"
);
}
);
userData = {
RMXScaler = {
monoWidth = 599;
};
};
width = 599;
}
);
userData = {
RMXScaler = {
source = one;
};
};
},
{
color = 9;
glyphname = two.tosf;
lastChange = "2018-05-17 02:59:33 +0000";
layers = (
{
layerId = "B61D43DE-5272-4FF4-A680-608B6BF5ED9E";
paths = (
{
closed = 1;
nodes = (
"512 114 LINE",
"121 114 LINE",
"195 85 LINE",
"195 136 OFFCURVE",
"251 155 OFFCURVE",
"346 215 CURVE SMOOTH",
"428 267 OFFCURVE",
"508 348 OFFCURVE",
"508 433 CURVE SMOOTH",
"508 560 OFFCURVE",
"422 632 OFFCURVE",
"298 632 CURVE SMOOTH",
"162 632 OFFCURVE",
"59 546 OFFCURVE",
"43 442 CURVE",
"145 392 LINE",
"154 460 OFFCURVE",
"208 517 OFFCURVE",
"284 517 CURVE SMOOTH",
"350 517 OFFCURVE",
"374 485 OFFCURVE",
"374 433 CURVE SMOOTH",
"374 360 OFFCURVE",
"273 304 OFFCURVE",
"204 260 CURVE SMOOTH",
"83 183 OFFCURVE",
"56 125 OFFCURVE",
"56 70 CURVE SMOOTH",
"56 41 OFFCURVE",
"59 21 OFFCURVE",
"63 0 CURVE",
"512 0 LINE"
);
}
);
userData = {
RMXScaler = {
monoWidth = 599;
};
};
width = 599;
}
);
userData = {
RMXScaler = {
source = two;
};
};
},
{
color = 9;
glyphname = three.tosf;
lastChange = "2018-05-17 02:59:33 +0000";
layers = (
{
layerId = "B61D43DE-5272-4FF4-A680-608B6BF5ED9E";
paths = (
{
closed = 1;
nodes = (
"126 -79 OFFCURVE",
"199 -97 OFFCURVE",
"275 -97 CURVE SMOOTH",
"418 -97 OFFCURVE",
"534 -18 OFFCURVE",
"534 114 CURVE SMOOTH",
"534 198 OFFCURVE",
"486 278 OFFCURVE",
"401 278 CURVE",
"475 297 OFFCURVE",
"517 377 OFFCURVE",
"517 453 CURVE SMOOTH",
"517 567 OFFCURVE",
"429 632 OFFCURVE",
"291 632 CURVE SMOOTH",
"207 632 OFFCURVE",
"119 605 OFFCURVE",
"78 569 CURVE",
"118 464 LINE",
"154 504 OFFCURVE",
"225 525 OFFCURVE",
"264 525 CURVE SMOOTH",
"336 525 OFFCURVE",
"377 499 OFFCURVE",
"377 433 CURVE SMOOTH",
"377 372 OFFCURVE",
"338 327 OFFCURVE",
"256 327 CURVE",
"256 327 OFFCURVE",
"202 328 OFFCURVE",
"202 327 CURVE",
"202 228 LINE",
"201 229 OFFCURVE",
"243 230 OFFCURVE",
"244 230 CURVE SMOOTH",
"321 230 OFFCURVE",
"393 214 OFFCURVE",
"393 129 CURVE SMOOTH",
"393 65 OFFCURVE",
"352 17 OFFCURVE",
"262 17 CURVE SMOOTH",
"209 17 OFFCURVE",
"150 38 OFFCURVE",
"112 75 CURVE",
"70 -39 LINE"
);
}
);
userData = {
RMXScaler = {
monoWidth = 599;
};
};
width = 599;
}
);
userData = {
RMXScaler = {
source = three;
};
};
},
{
color = 9;
glyphname = four.tosf;
lastChange = "2018-05-17 02:59:33 +0000";
layers = (
{
layerId = "B61D43DE-5272-4FF4-A680-608B6BF5ED9E";
paths = (
{
closed = 1;
nodes = (
"476 0 LINE",
"476 438 LINE",
"350 438 LINE",
"340 158 LINE",
"340 0 LINE"
);
},
{
closed = 1;
nodes = (
"22 126 LINE",
"573 126 LINE",
"573 239 LINE",
"205 239 LINE",
"379 697 LINE",
"240 697 LINE"
);
}
);
userData = {
RMXScaler = {
monoWidth = 599;
};
};
width = 599;
}
);
userData = {
RMXScaler = {
source = four;
};
};
},
{
color = 9;
glyphname = five.tosf;
lastChange = "2018-05-17 02:59:33 +0000";
layers = (
{
layerId = "B61D43DE-5272-4FF4-A680-608B6BF5ED9E";
paths = (
{
closed = 1;
nodes = (
"128 -82 OFFCURVE",
"203 -94 OFFCURVE",
"264 -94 CURVE SMOOTH",
"427 -94 OFFCURVE",
"539 2 OFFCURVE",
"539 158 CURVE SMOOTH",
"539 289 OFFCURVE",
"464 373 OFFCURVE",
"323 373 CURVE SMOOTH",
"287 373 OFFCURVE",
"258 370 OFFCURVE",
"227 361 CURVE",
"237 510 LINE",
"509 510 LINE",
"509 616 LINE",
"123 616 LINE",
"110 243 LINE",
"131 256 OFFCURVE",
"196 275 OFFCURVE",
"252 275 CURVE SMOOTH",
"349 275 OFFCURVE",
"404 224 OFFCURVE",
"404 145 CURVE SMOOTH",
"404 26 OFFCURVE",
"311 15 OFFCURVE",
"247 15 CURVE SMOOTH",
"200 15 OFFCURVE",
"145 36 OFFCURVE",
"116 63 CURVE",
"79 -49 LINE"
);
}
);
userData = {
RMXScaler = {
monoWidth = 599;
};
};
width = 599;
}
);
userData = {
RMXScaler = {
source = five;
};
};
},
{
color = 9;
glyphname = six.tosf;
lastChange = "2018-05-17 02:59:33 +0000";
layers = (
{
layerId = "B61D43DE-5272-4FF4-A680-608B6BF5ED9E";
paths = (
{
closed = 1;
nodes = (
"45 73 OFFCURVE",
"197 -15 OFFCURVE",
"316 -15 CURVE SMOOTH",
"470 -15 OFFCURVE",
"570 83 OFFCURVE",
"570 237 CURVE SMOOTH",
"570 358 OFFCURVE",
"495 457 OFFCURVE",
"360 457 CURVE SMOOTH",
"287 457 OFFCURVE",
"215 427 OFFCURVE",
"179 358 CURVE",
"179 370 OFFCURVE",
"179 380 OFFCURVE",
"180 395 CURVE SMOOTH",
"187 498 OFFCURVE",
"253 605 OFFCURVE",
"357 605 CURVE SMOOTH",
"394 605 OFFCURVE",
"445 596 OFFCURVE",
"472 567 CURVE",
"521 663 LINE",
"489 694 OFFCURVE",
"444 714 OFFCURVE",
"350 714 CURVE SMOOTH",
"174 714 OFFCURVE",
"45 570 OFFCURVE",
"45 336 CURVE SMOOTH"
);
},
{
closed = 1;
nodes = (
"195 215 OFFCURVE",
"194 226 OFFCURVE",
"194 236 CURVE",
"198 301 OFFCURVE",
"264 355 OFFCURVE",
"330 355 CURVE SMOOTH",
"402 355 OFFCURVE",
"436 303 OFFCURVE",
"436 225 CURVE SMOOTH",
"436 139 OFFCURVE",
"382 88 OFFCURVE",
"319 88 CURVE SMOOTH",
"257 88 OFFCURVE",
"214 139 OFFCURVE",
"198 203 CURVE SMOOTH"
);
}
);
userData = {
RMXScaler = {
monoWidth = 599;
};
};
width = 599;
}
);
userData = {
RMXScaler = {
source = six;
};
};
},
{
color = 9;
glyphname = seven.tosf;
lastChange = "2018-05-17 02:59:33 +0000";
layers = (
{
layerId = "B61D43DE-5272-4FF4-A680-608B6BF5ED9E";
paths = (
{
closed = 1;
nodes = (
"314 -81 LINE",
"542 616 LINE",
"85 616 LINE",
"85 498 LINE",
"449 498 LINE",
"398 566 LINE",
"169 -81 LINE"
);
}
);
userData = {
RMXScaler = {
monoWidth = 599;
};
};
width = 599;
}
);
userData = {
RMXScaler = {
source = seven;
};
};
},
{
color = 9;
glyphname = eight.tosf;
lastChange = "2018-05-17 02:59:33 +0000";
layers = (
{
layerId = "B61D43DE-5272-4FF4-A680-608B6BF5ED9E";
paths = (
{
closed = 1;
nodes = (
"201 589 OFFCURVE",
"234 622 OFFCURVE",
"302 622 CURVE SMOOTH",
"369 622 OFFCURVE",
"399 589 OFFCURVE",
"399 524 CURVE SMOOTH",
"399 452 OFFCURVE",
"364 412 OFFCURVE",
"302 412 CURVE SMOOTH",
"240 412 OFFCURVE",
"201 452 OFFCURVE",
"201 524 CURVE SMOOTH"
);
},
{
closed = 1;
nodes = (
"67 400 OFFCURVE",
"164 339 OFFCURVE",
"301 339 CURVE SMOOTH",
"428 339 OFFCURVE",
"532 400 OFFCURVE",
"532 533 CURVE SMOOTH",
"532 665 OFFCURVE",
"416 714 OFFCURVE",
"301 714 CURVE SMOOTH",
"185 714 OFFCURVE",
"67 665 OFFCURVE",
"67 533 CURVE SMOOTH"
);
},
{
closed = 1;
nodes = (
"357 310 OFFCURVE",
"417 283 OFFCURVE",
"417 193 CURVE SMOOTH",
"417 119 OFFCURVE",
"376 83 OFFCURVE",
"300 83 CURVE SMOOTH",
"223 83 OFFCURVE",
"181 119 OFFCURVE",
"181 193 CURVE SMOOTH",
"181 283 OFFCURVE",
"242 310 OFFCURVE",
"300 310 CURVE SMOOTH"
);
},
{
closed = 1;
nodes = (
"425 -18 OFFCURVE",
"562 40 OFFCURVE",
"562 191 CURVE SMOOTH",
"562 321 OFFCURVE",
"444 384 OFFCURVE",
"300 384 CURVE SMOOTH",
"155 384 OFFCURVE",
"37 321 OFFCURVE",
"37 191 CURVE SMOOTH",
"37 40 OFFCURVE",
"174 -18 OFFCURVE",
"300 -18 CURVE SMOOTH"
);
}
);
userData = {
RMXScaler = {
monoWidth = 599;
};
};
width = 599;
}
);
userData = {
RMXScaler = {
source = eight;
};
};
},
{
color = 9;
glyphname = nine.tosf;
lastChange = "2018-05-17 02:59:33 +0000";
layers = (
{
layerId = "B61D43DE-5272-4FF4-A680-608B6BF5ED9E";
paths = (
{
closed = 1;
nodes = (
"555 544 OFFCURVE",
"412 632 OFFCURVE",
"293 632 CURVE SMOOTH",
"139 632 OFFCURVE",
"30 534 OFFCURVE",
"30 380 CURVE SMOOTH",
"30 259 OFFCURVE",
"105 160 OFFCURVE",
"240 160 CURVE SMOOTH",
"313 160 OFFCURVE",
"385 190 OFFCURVE",
"421 259 CURVE",
"421 248 OFFCURVE",
"420 236 OFFCURVE",
"420 222 CURVE SMOOTH",
"420 101 OFFCURVE",
"347 16 OFFCURVE",
"243 16 CURVE SMOOTH",
"206 16 OFFCURVE",
"155 25 OFFCURVE",
"128 54 CURVE",
"79 -46 LINE",
"111 -77 OFFCURVE",
"156 -97 OFFCURVE",
"250 -97 CURVE SMOOTH",
"426 -97 OFFCURVE",
"555 47 OFFCURVE",
"555 281 CURVE SMOOTH"
);
},
{
closed = 1;
nodes = (
"403 402 OFFCURVE",
"406 391 OFFCURVE",
"406 381 CURVE",
"402 316 OFFCURVE",
"339 262 OFFCURVE",
"273 262 CURVE SMOOTH",
"201 262 OFFCURVE",
"164 314 OFFCURVE",
"164 392 CURVE SMOOTH",
"164 478 OFFCURVE",
"227 529 OFFCURVE",
"290 529 CURVE SMOOTH",
"352 529 OFFCURVE",
"397 478 OFFCURVE",
"402 414 CURVE SMOOTH"
);
}
);
userData = {
RMXScaler = {
monoWidth = 599;
};
};
width = 599;
}
);
userData = {
RMXScaler = {
source = nine;
};
};
},
{
color = 9;
glyphname = zero.tosf.zero;
lastChange = "2018-05-17 03:08:08 +0000";
layers = (
{
layerId = "B61D43DE-5272-4FF4-A680-608B6BF5ED9E";
paths = (
{
closed = 1;
nodes = (
"239 89 LINE",
"415 525 LINE",
"336 525 LINE",
"160 89 LINE"
);
},
{
closed = 1;
nodes = (
"200 89 OFFCURVE",
"170 202 OFFCURVE",
"170 304 CURVE SMOOTH",
"170 424 OFFCURVE",
"203 527 OFFCURVE",
"288 527 CURVE SMOOTH",
"372 527 OFFCURVE",
"403 458 OFFCURVE",
"403 304 CURVE SMOOTH",
"403 202 OFFCURVE",
"372 89 OFFCURVE",
"286 89 CURVE SMOOTH"
);
},
{
closed = 1;
nodes = (
"472 -18 OFFCURVE",
"548 133 OFFCURVE",
"548 303 CURVE SMOOTH",
"548 513 OFFCURVE",
"453 632 OFFCURVE",
"292 632 CURVE SMOOTH",
"131 632 OFFCURVE",
"34 513 OFFCURVE",
"34 303 CURVE SMOOTH",
"34 133 OFFCURVE",
"108 -18 OFFCURVE",
"290 -18 CURVE SMOOTH"
);
}
);
width = 582;
}
);
},
{
color = 4;
glyphname = zero.zero;
lastChange = "2018-05-17 02:33:02 +0000";
layers = (
{
components = (
{
name = zero;
}
);
layerId = "B61D43DE-5272-4FF4-A680-608B6BF5ED9E";
paths = (
{
closed = 1;
nodes = (
"237 89 LINE",
"413 609 LINE",
"334 609 LINE",
"158 89 LINE"
);
}
);
width = 580;
}
);
leftKerningGroup = zero.zero;
leftMetricsKey = zero;
rightKerningGroup = zero.zero;
rightMetricsKey = zero;
},
{
color = 1;
glyphname = zero.subs;
lastChange = "2018-05-17 03:57:51 +0000";
layers = (
{
layerId = "B61D43DE-5272-4FF4-A680-608B6BF5ED9E";
paths = (
{
closed = 1;
nodes = (
"216 -55 OFFCURVE",
"192 24 OFFCURVE",
"192 126 CURVE SMOOTH",
"192 234 OFFCURVE",
"217 309 OFFCURVE",
"287 309 CURVE SMOOTH",
"355 309 OFFCURVE",
"381 234 OFFCURVE",
"381 126 CURVE SMOOTH",
"381 24 OFFCURVE",
"357 -55 OFFCURVE",
"287 -55 CURVE SMOOTH"
);
},
{
closed = 1;
nodes = (
"439 -130 OFFCURVE",
"499 -25 OFFCURVE",
"499 125 CURVE SMOOTH",
"499 300 OFFCURVE",
"422 382 OFFCURVE",
"290 382 CURVE SMOOTH",
"158 382 OFFCURVE",
"81 300 OFFCURVE",
"81 125 CURVE SMOOTH",
"81 -25 OFFCURVE",
"141 -130 OFFCURVE",
"290 -130 CURVE SMOOTH"
);
}
);
width = 580;
}
);
leftKerningGroup = zero.dnom;
rightKerningGroup = zero.dnom;
userData = {
RMXScaler = {
source = zero;
};
};
},
{
color = 1;
glyphname = one.subs;
lastChange = "2018-05-18 14:35:16 +0000";
layers = (
{
layerId = "B61D43DE-5272-4FF4-A680-608B6BF5ED9E";
paths = (
{
closed = 1;
nodes = (
"211 -120 LINE",
"211 381 LINE",
"100 332 LINE",
"100 -120 LINE"
);
}
);
width = 311;
}
);
leftKerningGroup = one.dnom;
leftMetricsKey = one.dnom;
rightKerningGroup = one.dnom;
rightMetricsKey = one.dnom;
userData = {
RMXScaler = {
source = one;
};
};
},
{
color = 1;
glyphname = two.subs;
lastChange = "2018-05-18 14:35:46 +0000";
layers = (
{
layerId = "B61D43DE-5272-4FF4-A680-608B6BF5ED9E";
paths = (
{
closed = 1;
nodes = (
"418 -40 LINE",
"98 -40 LINE",
"150 -61 LINE",
"150 9 OFFCURVE",
"205 23 OFFCURVE",
"283 65 CURVE SMOOTH",
"350 101 OFFCURVE",
"415 151 OFFCURVE",
"415 241 CURVE SMOOTH",
"415 330 OFFCURVE",
"345 380 OFFCURVE",
"243 380 CURVE SMOOTH",
"132 380 OFFCURVE",
"48 320 OFFCURVE",
"35 247 CURVE",
"118 212 LINE",
"125 260 OFFCURVE",
"170 300 OFFCURVE",
"232 300 CURVE SMOOTH",
"286 300 OFFCURVE",
"305 269 OFFCURVE",
"305 232 CURVE SMOOTH",
"305 157 OFFCURVE",
"223 127 OFFCURVE",
"166 96 CURVE SMOOTH",
"67 42 OFFCURVE",
"45 -7 OFFCURVE",
"45 -71 CURVE SMOOTH",
"45 -91 OFFCURVE",
"48 -105 OFFCURVE",
"51 -120 CURVE",
"418 -120 LINE"
);
}
);
width = 463;
}
);
leftKerningGroup = two.dnom;
leftMetricsKey = two.dnom;
rightKerningGroup = two.dnom;
rightMetricsKey = two.dnom;
userData = {
RMXScaler = {
source = two;
};
};
},
{
color = 1;
glyphname = three.subs;
lastChange = "2018-05-18 14:30:54 +0000";
layers = (
{
layerId = "B61D43DE-5272-4FF4-A680-608B6BF5ED9E";
paths = (
{
closed = 1;
nodes = (
"76 -117 OFFCURVE",
"136 -130 OFFCURVE",
"198 -130 CURVE SMOOTH",
"315 -130 OFFCURVE",
"410 -75 OFFCURVE",
"410 18 CURVE SMOOTH",
"410 77 OFFCURVE",
"371 133 OFFCURVE",
"301 133 CURVE",
"362 146 OFFCURVE",
"396 202 OFFCURVE",
"396 255 CURVE SMOOTH",
"396 335 OFFCURVE",
"324 381 OFFCURVE",
"211 381 CURVE SMOOTH",
"142 381 OFFCURVE",
"70 362 OFFCURVE",
"37 337 CURVE",
"69 263 LINE",
"99 291 OFFCURVE",
"157 306 OFFCURVE",
"189 306 CURVE SMOOTH",
"248 306 OFFCURVE",
"281 288 OFFCURVE",
"281 241 CURVE SMOOTH",
"281 199 OFFCURVE",
"249 167 OFFCURVE",
"182 167 CURVE",
"182 167 OFFCURVE",
"138 168 OFFCURVE",
"138 167 CURVE",
"138 98 LINE",
"137 99 OFFCURVE",
"174 99 OFFCURVE",
"173 99 CURVE SMOOTH",
"110 99 OFFCURVE",
"294 88 OFFCURVE",
"294 28 CURVE SMOOTH",
"294 -16 OFFCURVE",
"261 -50 OFFCURVE",
"187 -50 CURVE SMOOTH",
"144 -50 OFFCURVE",
"96 -35 OFFCURVE",
"65 -9 CURVE",
"30 -89 LINE"
);
}
);
width = 450;
}
);
leftKerningGroup = three.dnom;
leftMetricsKey = three.dnom;
rightKerningGroup = three.dnom;
rightMetricsKey = three.dnom;
userData = {
RMXScaler = {
source = three;
};
};
},
{
color = 1;
glyphname = four.subs;
lastChange = "2018-05-18 14:37:55 +0000";
layers = (
{
layerId = "B61D43DE-5272-4FF4-A680-608B6BF5ED9E";
paths = (
{
closed = 1;
nodes = (
"392 -120 LINE",
"392 187 LINE",
"288 187 LINE",
"280 -9 LINE",
"280 -120 LINE"
);
},
{
closed = 1;
nodes = (
"20 -31 LINE",
"471 -31 LINE",
"471 48 LINE",
"170 48 LINE",
"312 369 LINE",
"198 369 LINE"
);
}
);
width = 506;
}
);
leftKerningGroup = four.dnom;
leftMetricsKey = four.dnom;
rightKerningGroup = four.dnom;
rightMetricsKey = four.dnom;
userData = {
RMXScaler = {
source = four;
};
};
},
{
color = 1;
glyphname = five.subs;
lastChange = "2018-05-18 14:31:30 +0000";
layers = (
{
layerId = "B61D43DE-5272-4FF4-A680-608B6BF5ED9E";
paths = (
{
closed = 1;
nodes = (
"75 -121 OFFCURVE",
"136 -130 OFFCURVE",
"186 -130 CURVE SMOOTH",
"320 -130 OFFCURVE",
"411 -62 OFFCURVE",
"411 47 CURVE SMOOTH",
"411 139 OFFCURVE",
"350 197 OFFCURVE",
"234 197 CURVE SMOOTH",
"205 197 OFFCURVE",
"181 195 OFFCURVE",
"156 189 CURVE",
"164 293 LINE",
"387 293 LINE",
"387 368 LINE",
"71 368 LINE",
"60 106 LINE",
"77 115 OFFCURVE",
"131 129 OFFCURVE",
"176 129 CURVE SMOOTH",
"256 129 OFFCURVE",
"301 93 OFFCURVE",
"301 38 CURVE SMOOTH",
"301 -46 OFFCURVE",
"225 -53 OFFCURVE",
"172 -53 CURVE SMOOTH",
"134 -53 OFFCURVE",
"89 -39 OFFCURVE",
"65 -20 CURVE",
"35 -98 LINE"
);
}
);
width = 451;
}
);
leftKerningGroup = five.dnom;
leftMetricsKey = five.dnom;
rightKerningGroup = five.dnom;
rightMetricsKey = five.dnom;
userData = {
RMXScaler = {
source = five;
};
};
},
{
color = 1;
glyphname = six.subs;
lastChange = "2018-05-18 14:31:48 +0000";
layers = (
{
layerId = "B61D43DE-5272-4FF4-A680-608B6BF5ED9E";
paths = (
{
closed = 1;
nodes = (
"40 -68 OFFCURVE",
"164 -130 OFFCURVE",
"261 -130 CURVE SMOOTH",
"387 -130 OFFCURVE",
"469 -61 OFFCURVE",
"469 47 CURVE SMOOTH",
"469 131 OFFCURVE",
"408 201 OFFCURVE",
"297 201 CURVE SMOOTH",
"238 201 OFFCURVE",
"179 180 OFFCURVE",
"149 131 CURVE",
"149 140 OFFCURVE",
"149 147 OFFCURVE",
"150 157 CURVE SMOOTH",
"157 230 OFFCURVE",
"210 305 OFFCURVE",
"295 305 CURVE SMOOTH",
"325 305 OFFCURVE",
"367 298 OFFCURVE",
"389 278 CURVE",
"429 345 LINE",
"403 367 OFFCURVE",
"366 381 OFFCURVE",
"289 381 CURVE SMOOTH",
"145 381 OFFCURVE",
"40 280 OFFCURVE",
"40 116 CURVE SMOOTH"
);
},
{
closed = 1;
nodes = (
"163 31 OFFCURVE",
"162 39 OFFCURVE",
"162 46 CURVE",
"165 92 OFFCURVE",
"219 129 OFFCURVE",
"273 129 CURVE SMOOTH",
"332 129 OFFCURVE",
"360 93 OFFCURVE",
"360 38 CURVE SMOOTH",
"360 -22 OFFCURVE",
"315 -58 OFFCURVE",
"264 -58 CURVE SMOOTH",
"213 -58 OFFCURVE",
"176 -22 OFFCURVE",
"165 23 CURVE SMOOTH"
);
}
);
width = 509;
}
);
leftKerningGroup = six.dnom;
leftMetricsKey = six.dnom;
rightKerningGroup = six.dnom;
rightMetricsKey = six.dnom;
userData = {
RMXScaler = {
source = six;
};
};
},
{
color = 1;
glyphname = seven.subs;
lastChange = "2018-05-18 14:37:59 +0000";
layers = (
{
layerId = "B61D43DE-5272-4FF4-A680-608B6BF5ED9E";
paths = (
{
closed = 1;
nodes = (
"222 -120 LINE",
"408 369 LINE",
"35 369 LINE",
"35 286 LINE",
"332 286 LINE",
"291 334 LINE",
"103 -120 LINE"
);
}
);
width = 418;
}
);
leftKerningGroup = seven.dnom;
leftMetricsKey = seven.dnom;
rightKerningGroup = seven.dnom;
rightMetricsKey = seven.dnom;
userData = {
RMXScaler = {
source = seven;
};
};
},
{
color = 1;
glyphname = eight.subs;
lastChange = "2018-05-18 14:32:28 +0000";
layers = (
{
layerId = "B61D43DE-5272-4FF4-A680-608B6BF5ED9E";
paths = (
{
closed = 1;
nodes = (
"174 295 OFFCURVE",
"201 318 OFFCURVE",
"257 318 CURVE SMOOTH",
"311 318 OFFCURVE",
"336 295 OFFCURVE",
"336 249 CURVE SMOOTH",
"336 199 OFFCURVE",
"307 171 OFFCURVE",
"257 171 CURVE SMOOTH",
"206 171 OFFCURVE",
"174 199 OFFCURVE",
"174 249 CURVE SMOOTH"
);
},
{
closed = 1;
nodes = (
"64 162 OFFCURVE",
"144 120 OFFCURVE",
"256 120 CURVE SMOOTH",
"360 120 OFFCURVE",
"445 162 OFFCURVE",
"445 256 CURVE SMOOTH",
"445 348 OFFCURVE",
"350 382 OFFCURVE",
"256 382 CURVE SMOOTH",
"161 382 OFFCURVE",
"64 348 OFFCURVE",
"64 256 CURVE SMOOTH"
);
},
{
closed = 1;
nodes = (
"302 99 OFFCURVE",
"351 80 OFFCURVE",
"351 17 CURVE SMOOTH",
"351 -34 OFFCURVE",
"317 -60 OFFCURVE",
"255 -60 CURVE SMOOTH",
"192 -60 OFFCURVE",
"158 -34 OFFCURVE",
"158 17 CURVE SMOOTH",
"158 80 OFFCURVE",
"207 99 OFFCURVE",
"255 99 CURVE SMOOTH"
);
},
{
closed = 1;
nodes = (
"357 -130 OFFCURVE",
"469 -90 OFFCURVE",
"469 16 CURVE SMOOTH",
"469 107 OFFCURVE",
"373 151 OFFCURVE",
"255 151 CURVE SMOOTH",
"136 151 OFFCURVE",
"40 107 OFFCURVE",
"40 16 CURVE SMOOTH",
"40 -90 OFFCURVE",
"152 -130 OFFCURVE",
"255 -130 CURVE SMOOTH"
);
}
);
width = 509;
}
);
leftKerningGroup = eight.dnom;
leftMetricsKey = eight.dnom;
rightKerningGroup = eight.dnom;
rightMetricsKey = eight.dnom;
userData = {
RMXScaler = {
source = eight;
};
};
},
{
color = 1;
glyphname = nine.subs;
lastChange = "2018-05-18 14:32:46 +0000";
layers = (
{
layerId = "B61D43DE-5272-4FF4-A680-608B6BF5ED9E";
paths = (
{
closed = 1;
nodes = (
"464 319 OFFCURVE",
"347 381 OFFCURVE",
"250 381 CURVE SMOOTH",
"124 381 OFFCURVE",
"35 312 OFFCURVE",
"35 204 CURVE SMOOTH",
"35 120 OFFCURVE",
"96 50 OFFCURVE",
"207 50 CURVE SMOOTH",
"266 50 OFFCURVE",
"325 71 OFFCURVE",
"355 120 CURVE",
"355 112 OFFCURVE",
"354 103 OFFCURVE",
"354 94 CURVE SMOOTH",
"354 9 OFFCURVE",
"294 -51 OFFCURVE",
"209 -51 CURVE SMOOTH",
"179 -51 OFFCURVE",
"137 -44 OFFCURVE",
"115 -24 CURVE",
"75 -94 LINE",
"101 -116 OFFCURVE",
"138 -130 OFFCURVE",
"215 -130 CURVE SMOOTH",
"359 -130 OFFCURVE",
"464 -29 OFFCURVE",
"464 135 CURVE SMOOTH"
);
},
{
closed = 1;
nodes = (
"340 222 OFFCURVE",
"342 212 OFFCURVE",
"342 205 CURVE",
"339 159 OFFCURVE",
"288 122 OFFCURVE",
"234 122 CURVE SMOOTH",
"175 122 OFFCURVE",
"144 158 OFFCURVE",
"144 213 CURVE SMOOTH",
"144 273 OFFCURVE",
"196 309 OFFCURVE",
"247 309 CURVE SMOOTH",
"298 309 OFFCURVE",
"332 273 OFFCURVE",
"339 228 CURVE SMOOTH"
);
}
);
width = 504;
}
);
leftKerningGroup = nine.dnom;
leftMetricsKey = nine.dnom;
rightKerningGroup = nine.dnom;
rightMetricsKey = nine.dnom;
userData = {
RMXScaler = {
source = nine;
};
};
},
{
color = 0;
glyphname = zero.dnom;
lastChange = "2018-05-18 14:40:39 +0000";
layers = (
{
layerId = "B61D43DE-5272-4FF4-A680-608B6BF5ED9E";
paths = (
{
closed = 1;
nodes = (
"175 65 OFFCURVE",
"151 144 OFFCURVE",
"151 246 CURVE SMOOTH",
"151 354 OFFCURVE",
"176 429 OFFCURVE",
"246 429 CURVE SMOOTH",
"314 429 OFFCURVE",
"340 354 OFFCURVE",
"340 246 CURVE SMOOTH",
"340 144 OFFCURVE",
"316 65 OFFCURVE",
"246 65 CURVE SMOOTH"
);
},
{
closed = 1;
nodes = (
"398 -10 OFFCURVE",
"458 95 OFFCURVE",
"458 245 CURVE SMOOTH",
"458 420 OFFCURVE",
"381 502 OFFCURVE",
"249 502 CURVE SMOOTH",
"117 502 OFFCURVE",
"40 420 OFFCURVE",
"40 245 CURVE SMOOTH",
"40 95 OFFCURVE",
"100 -10 OFFCURVE",
"249 -10 CURVE SMOOTH"
);
}
);
width = 498;
}
);
leftKerningGroup = zero.dnom;
rightKerningGroup = zero.dnom;
userData = {
RMXScaler = {
source = zero;
};
};
},
{
color = 0;
glyphname = one.dnom;
lastChange = "2018-05-18 14:40:39 +0000";
layers = (
{
layerId = "B61D43DE-5272-4FF4-A680-608B6BF5ED9E";
paths = (
{
closed = 1;
nodes = (
"211 0 LINE",
"211 501 LINE",
"100 452 LINE",
"100 0 LINE"
);
}
);
width = 311;
}
);
leftKerningGroup = one.dnom;
rightKerningGroup = one.dnom;
userData = {
RMXScaler = {
source = one;
};
};
},
{
color = 0;
glyphname = two.dnom;
lastChange = "2018-05-18 14:40:39 +0000";
layers = (
{
layerId = "B61D43DE-5272-4FF4-A680-608B6BF5ED9E";
paths = (
{
closed = 1;
nodes = (
"418 80 LINE",
"98 80 LINE",
"150 59 LINE",
"150 129 OFFCURVE",
"205 143 OFFCURVE",
"283 185 CURVE SMOOTH",
"350 221 OFFCURVE",
"415 271 OFFCURVE",
"415 361 CURVE SMOOTH",
"415 450 OFFCURVE",
"345 500 OFFCURVE",
"243 500 CURVE SMOOTH",
"132 500 OFFCURVE",
"48 440 OFFCURVE",
"35 367 CURVE",
"118 332 LINE",
"125 380 OFFCURVE",
"170 420 OFFCURVE",
"232 420 CURVE SMOOTH",
"286 420 OFFCURVE",
"305 389 OFFCURVE",
"305 352 CURVE SMOOTH",
"305 277 OFFCURVE",
"223 247 OFFCURVE",
"166 216 CURVE SMOOTH",
"67 162 OFFCURVE",
"45 113 OFFCURVE",
"45 49 CURVE SMOOTH",
"45 29 OFFCURVE",
"48 15 OFFCURVE",
"51 0 CURVE",
"418 0 LINE"
);
}
);
width = 463;
}
);
leftKerningGroup = two.dnom;
rightKerningGroup = two.dnom;
userData = {
RMXScaler = {
source = two;
};
};
},
{
color = 0;
glyphname = three.dnom;
lastChange = "2018-05-18 14:40:39 +0000";
layers = (
{
layerId = "B61D43DE-5272-4FF4-A680-608B6BF5ED9E";
paths = (
{
closed = 1;
nodes = (
"76 3 OFFCURVE",
"136 -10 OFFCURVE",
"198 -10 CURVE SMOOTH",
"315 -10 OFFCURVE",
"410 45 OFFCURVE",
"410 138 CURVE SMOOTH",
"410 197 OFFCURVE",
"371 253 OFFCURVE",
"301 253 CURVE",
"362 266 OFFCURVE",
"396 322 OFFCURVE",
"396 375 CURVE SMOOTH",
"396 455 OFFCURVE",
"324 501 OFFCURVE",
"211 501 CURVE SMOOTH",
"142 501 OFFCURVE",
"70 482 OFFCURVE",
"37 457 CURVE",
"69 383 LINE",
"99 411 OFFCURVE",
"157 426 OFFCURVE",
"189 426 CURVE SMOOTH",
"248 426 OFFCURVE",
"281 408 OFFCURVE",
"281 361 CURVE SMOOTH",
"281 319 OFFCURVE",
"249 287 OFFCURVE",
"182 287 CURVE",
"182 287 OFFCURVE",
"138 288 OFFCURVE",
"138 287 CURVE",
"138 218 LINE",
"137 219 OFFCURVE",
"174 219 OFFCURVE",
"173 219 CURVE SMOOTH",
"110 219 OFFCURVE",
"294 208 OFFCURVE",
"294 148 CURVE SMOOTH",
"294 104 OFFCURVE",
"261 70 OFFCURVE",
"187 70 CURVE SMOOTH",
"144 70 OFFCURVE",
"96 85 OFFCURVE",
"65 111 CURVE",
"30 31 LINE"
);
}
);
width = 450;
}
);
leftKerningGroup = three.dnom;
rightKerningGroup = three.dnom;
userData = {
RMXScaler = {
source = three;
};
};
},
{
color = 0;
glyphname = four.dnom;
lastChange = "2018-05-18 14:40:39 +0000";
layers = (
{
layerId = "B61D43DE-5272-4FF4-A680-608B6BF5ED9E";
paths = (
{
closed = 1;
nodes = (
"392 0 LINE",
"392 307 LINE",
"288 307 LINE",
"280 111 LINE",
"280 0 LINE"
);
},
{
closed = 1;
nodes = (
"20 89 LINE",
"471 89 LINE",
"471 162 LINE",
"170 162 LINE",
"312 489 LINE",
"198 489 LINE"
);
}
);
width = 506;
}
);
leftKerningGroup = four.dnom;
rightKerningGroup = four.dnom;
userData = {
RMXScaler = {
source = four;
};
};
},
{
color = 0;
glyphname = five.dnom;
lastChange = "2018-05-18 14:40:39 +0000";
layers = (
{
layerId = "B61D43DE-5272-4FF4-A680-608B6BF5ED9E";
paths = (
{
closed = 1;
nodes = (
"75 -1 OFFCURVE",
"136 -10 OFFCURVE",
"186 -10 CURVE SMOOTH",
"320 -10 OFFCURVE",
"411 58 OFFCURVE",
"411 167 CURVE SMOOTH",
"411 259 OFFCURVE",
"350 317 OFFCURVE",
"234 317 CURVE SMOOTH",
"205 317 OFFCURVE",
"181 315 OFFCURVE",
"156 309 CURVE",
"164 413 LINE",
"387 413 LINE",
"387 488 LINE",
"71 488 LINE",
"60 226 LINE",
"77 235 OFFCURVE",
"131 249 OFFCURVE",
"176 249 CURVE SMOOTH",
"256 249 OFFCURVE",
"301 213 OFFCURVE",
"301 158 CURVE SMOOTH",
"301 74 OFFCURVE",
"225 67 OFFCURVE",
"172 67 CURVE SMOOTH",
"134 67 OFFCURVE",
"89 81 OFFCURVE",
"65 100 CURVE",
"35 22 LINE"
);
}
);
width = 451;
}
);
leftKerningGroup = five.dnom;
rightKerningGroup = five.dnom;
userData = {
RMXScaler = {
source = five;
};
};
},
{
color = 0;
glyphname = six.dnom;
lastChange = "2018-05-18 14:40:39 +0000";
layers = (
{
layerId = "B61D43DE-5272-4FF4-A680-608B6BF5ED9E";
paths = (
{
closed = 1;
nodes = (
"40 52 OFFCURVE",
"164 -10 OFFCURVE",
"261 -10 CURVE SMOOTH",
"387 -10 OFFCURVE",
"469 59 OFFCURVE",
"469 167 CURVE SMOOTH",
"469 251 OFFCURVE",
"408 321 OFFCURVE",
"297 321 CURVE SMOOTH",
"238 321 OFFCURVE",
"179 300 OFFCURVE",
"149 251 CURVE",
"149 260 OFFCURVE",
"149 267 OFFCURVE",
"150 277 CURVE SMOOTH",
"157 350 OFFCURVE",
"210 425 OFFCURVE",
"295 425 CURVE SMOOTH",
"325 425 OFFCURVE",
"367 418 OFFCURVE",
"389 398 CURVE",
"429 465 LINE",
"403 487 OFFCURVE",
"366 501 OFFCURVE",
"289 501 CURVE SMOOTH",
"145 501 OFFCURVE",
"40 400 OFFCURVE",
"40 236 CURVE SMOOTH"
);
},
{
closed = 1;
nodes = (
"163 151 OFFCURVE",
"162 159 OFFCURVE",
"162 166 CURVE",
"165 212 OFFCURVE",
"219 249 OFFCURVE",
"273 249 CURVE SMOOTH",
"332 249 OFFCURVE",
"360 213 OFFCURVE",
"360 158 CURVE SMOOTH",
"360 98 OFFCURVE",
"315 62 OFFCURVE",
"264 62 CURVE SMOOTH",
"213 62 OFFCURVE",
"176 98 OFFCURVE",
"165 143 CURVE SMOOTH"
);
}
);
width = 509;
}
);
leftKerningGroup = six.dnom;
rightKerningGroup = six.dnom;
userData = {
RMXScaler = {
source = six;
};
};
},
{
color = 0;
glyphname = seven.dnom;
lastChange = "2018-05-18 14:40:39 +0000";
layers = (
{
layerId = "B61D43DE-5272-4FF4-A680-608B6BF5ED9E";
paths = (
{
closed = 1;
nodes = (
"222 0 LINE",
"408 489 LINE",
"35 489 LINE",
"35 406 LINE",
"332 406 LINE",
"291 454 LINE",
"103 0 LINE"
);
}
);
width = 418;
}
);
leftKerningGroup = seven.dnom;
rightKerningGroup = seven.dnom;
userData = {
RMXScaler = {
source = seven;
};
};
},
{
color = 0;
glyphname = eight.dnom;
lastChange = "2018-05-18 14:40:39 +0000";
layers = (
{
layerId = "B61D43DE-5272-4FF4-A680-608B6BF5ED9E";
paths = (
{
closed = 1;
nodes = (
"174 415 OFFCURVE",
"201 438 OFFCURVE",
"257 438 CURVE SMOOTH",
"311 438 OFFCURVE",
"336 415 OFFCURVE",
"336 369 CURVE SMOOTH",
"336 319 OFFCURVE",
"307 291 OFFCURVE",
"257 291 CURVE SMOOTH",
"206 291 OFFCURVE",
"174 319 OFFCURVE",
"174 369 CURVE SMOOTH"
);
},
{
closed = 1;
nodes = (
"64 282 OFFCURVE",
"144 240 OFFCURVE",
"256 240 CURVE SMOOTH",
"360 240 OFFCURVE",
"445 282 OFFCURVE",
"445 376 CURVE SMOOTH",
"445 468 OFFCURVE",
"350 502 OFFCURVE",
"256 502 CURVE SMOOTH",
"161 502 OFFCURVE",
"64 468 OFFCURVE",
"64 376 CURVE SMOOTH"
);
},
{
closed = 1;
nodes = (
"302 219 OFFCURVE",
"351 200 OFFCURVE",
"351 137 CURVE SMOOTH",
"351 86 OFFCURVE",
"317 60 OFFCURVE",
"255 60 CURVE SMOOTH",
"192 60 OFFCURVE",
"158 86 OFFCURVE",
"158 137 CURVE SMOOTH",
"158 200 OFFCURVE",
"207 219 OFFCURVE",
"255 219 CURVE SMOOTH"
);
},
{
closed = 1;
nodes = (
"357 -10 OFFCURVE",
"469 30 OFFCURVE",
"469 136 CURVE SMOOTH",
"469 227 OFFCURVE",
"373 271 OFFCURVE",
"255 271 CURVE SMOOTH",
"136 271 OFFCURVE",
"40 227 OFFCURVE",
"40 136 CURVE SMOOTH",
"40 30 OFFCURVE",
"152 -10 OFFCURVE",
"255 -10 CURVE SMOOTH"
);
}
);
width = 509;
}
);
leftKerningGroup = eight.dnom;
rightKerningGroup = eight.dnom;
userData = {
RMXScaler = {
source = eight;
};
};
},
{
color = 0;
glyphname = nine.dnom;
lastChange = "2018-05-18 14:40:39 +0000";
layers = (
{
layerId = "B61D43DE-5272-4FF4-A680-608B6BF5ED9E";
paths = (
{
closed = 1;
nodes = (
"464 439 OFFCURVE",
"347 501 OFFCURVE",
"250 501 CURVE SMOOTH",
"124 501 OFFCURVE",
"35 432 OFFCURVE",
"35 324 CURVE SMOOTH",
"35 240 OFFCURVE",
"96 170 OFFCURVE",
"207 170 CURVE SMOOTH",
"266 170 OFFCURVE",
"325 191 OFFCURVE",
"355 240 CURVE",
"355 232 OFFCURVE",
"354 223 OFFCURVE",
"354 214 CURVE SMOOTH",
"354 129 OFFCURVE",
"294 69 OFFCURVE",
"209 69 CURVE SMOOTH",
"179 69 OFFCURVE",
"137 76 OFFCURVE",
"115 96 CURVE",
"75 26 LINE",
"101 4 OFFCURVE",
"138 -10 OFFCURVE",
"215 -10 CURVE SMOOTH",
"359 -10 OFFCURVE",
"464 91 OFFCURVE",
"464 255 CURVE SMOOTH"
);
},
{
closed = 1;
nodes = (
"340 342 OFFCURVE",
"342 332 OFFCURVE",
"342 325 CURVE",
"339 279 OFFCURVE",
"288 242 OFFCURVE",
"234 242 CURVE SMOOTH",
"175 242 OFFCURVE",
"144 278 OFFCURVE",
"144 333 CURVE SMOOTH",
"144 393 OFFCURVE",
"196 429 OFFCURVE",
"247 429 CURVE SMOOTH",
"298 429 OFFCURVE",
"332 393 OFFCURVE",
"339 348 CURVE SMOOTH"
);
}
);
width = 504;
}
);
leftKerningGroup = nine.dnom;
rightKerningGroup = nine.dnom;
userData = {
RMXScaler = {
source = nine;
};
};
},
{
glyphname = fraction;
lastChange = "2018-05-18 14:37:36 +0000";
layers = (
{
layerId = "B61D43DE-5272-4FF4-A680-608B6BF5ED9E";
paths = (
{
closed = 1;
nodes = (
"-156 -1 OFFCURVE",
"-49 0 OFFCURVE",
"-46 0 CURVE",
"345 782 LINE",
"230 782 LINE",
"-160 -1 LINE"
);
}
);
width = 185;
}
);
leftKerningGroup = fraction;
rightKerningGroup = fraction;
unicode = 2044;
userData = {
com.typemytype.robofont.mark = (
0.656,
1,
0.6,
1
);
};
},
{
color = 4;
glyphname = period;
lastChange = "2018-05-17 03:53:43 +0000";
layers = (
{
layerId = "B61D43DE-5272-4FF4-A680-608B6BF5ED9E";
paths = (
{
closed = 1;
nodes = (
"163 0 LINE",
"163 129 LINE",
"50 129 LINE",
"50 0 LINE"
);
}
);
width = 213;
}
);
leftKerningGroup = period;
rightKerningGroup = period;
unicode = 002E;
userData = {
com.typemytype.robofont.mark = (
0.656,
1,
0.6,
1
);
};
},
{
color = 4;
glyphname = comma;
lastChange = "2018-05-17 03:53:43 +0000";
layers = (
{
background = {
paths = (
{
closed = 1;
nodes = (
"163 0 LINE",
"163 129 LINE",
"50 129 LINE",
"50 0 LINE"
);
}
);
};
layerId = "B61D43DE-5272-4FF4-A680-608B6BF5ED9E";
paths = (
{
closed = 1;
nodes = (
"50 47 LINE",
"50 -3 OFFCURVE",
"41 -114 OFFCURVE",
"30 -141 CURVE",
"120 -141 LINE",
"143 -107 OFFCURVE",
"163 -24 OFFCURVE",
"163 42 CURVE",
"163 129 LINE",
"50 129 LINE"
);
}
);
width = 223;
}
);
leftKerningGroup = period;
rightKerningGroup = period;
unicode = 002C;
userData = {
com.typemytype.robofont.mark = (
0.656,
1,
0.6,
1
);
};
},
{
color = 4;
glyphname = exclam;
lastChange = "2018-05-17 03:53:43 +0000";
layers = (
{
layerId = "B61D43DE-5272-4FF4-A680-608B6BF5ED9E";
paths = (
{
closed = 1;
nodes = (
"236 233 LINE",
"250 769 LINE",
"113 769 LINE",
"126 233 LINE"
);
},
{
closed = 1;
nodes = (
"238 0 LINE",
"238 129 LINE",
"124 129 LINE",
"124 0 LINE"
);
}
);
width = 362;
}
);
leftKerningGroup = exclam;
rightKerningGroup = exclam;
unicode = 0021;
userData = {
com.typemytype.robofont.mark = (
0.656,
1,
0.6,
1
);
};
},
{
color = 4;
glyphname = exclamdown;
lastChange = "2018-05-17 03:53:43 +0000";
layers = (
{
layerId = "B61D43DE-5272-4FF4-A680-608B6BF5ED9E";
paths = (
{
closed = 1;
nodes = (
"127 376 LINE",
"113 -160 LINE",
"250 -160 LINE",
"237 376 LINE"
);
},
{
closed = 1;
nodes = (
"125 609 LINE",
"125 480 LINE",
"239 480 LINE",
"239 609 LINE"
);
}
);
width = 362;
}
);
leftKerningGroup = exclamdown;
leftMetricsKey = exclam;
rightKerningGroup = exclamdown;
rightMetricsKey = exclam;
unicode = 00A1;
userData = {
com.typemytype.robofont.mark = (
0.656,
1,
0.6,
1
);
};
},
{
color = 0;
glyphname = question;
lastChange = "2018-05-17 03:53:43 +0000";
layers = (
{
layerId = "B61D43DE-5272-4FF4-A680-608B6BF5ED9E";
paths = (
{
closed = 1;
nodes = (
"287 225 LINE",
"278 322 OFFCURVE",
"292 355 OFFCURVE",
"359 394 CURVE SMOOTH",
"423 430 OFFCURVE",
"490 486 OFFCURVE",
"490 591 CURVE SMOOTH",
"490 704 OFFCURVE",
"409 777 OFFCURVE",
"249 777 CURVE SMOOTH",
"113 777 OFFCURVE",
"28 710 OFFCURVE",
"0 680 CURVE",
"91 578 LINE",
"115 619 OFFCURVE",
"165 676 OFFCURVE",
"240 676 CURVE SMOOTH",
"326 676 OFFCURVE",
"345 641 OFFCURVE",
"345 579 CURVE SMOOTH",
"345 508 OFFCURVE",
"299 466 OFFCURVE",
"261 450 CURVE SMOOTH",
"201 415 OFFCURVE",
"162 392 OFFCURVE",
"167 303 CURVE SMOOTH",
"168 291 OFFCURVE",
"175 240 OFFCURVE",
"179 225 CURVE"
);
},
{
closed = 1;
nodes = (
"292 0 LINE",
"292 129 LINE",
"179 129 LINE",
"179 0 LINE"
);
}
);
width = 515;
}
);
leftKerningGroup = question;
rightKerningGroup = question;
unicode = 003F;
userData = {
com.typemytype.robofont.mark = (
0.656,
1,
0.6,
1
);
};
},
{
color = 0;
glyphname = questiondown;
lastChange = "2018-05-17 03:53:43 +0000";
layers = (
{
layerId = "B61D43DE-5272-4FF4-A680-608B6BF5ED9E";
paths = (
{
closed = 1;
nodes = (
"226 384 LINE",
"235 287 OFFCURVE",
"221 254 OFFCURVE",
"154 215 CURVE SMOOTH",
"90 179 OFFCURVE",
"23 123 OFFCURVE",
"23 18 CURVE SMOOTH",
"23 -95 OFFCURVE",
"104 -168 OFFCURVE",
"264 -168 CURVE SMOOTH",
"400 -168 OFFCURVE",
"485 -101 OFFCURVE",
"513 -71 CURVE",
"422 31 LINE",
"398 -10 OFFCURVE",
"348 -67 OFFCURVE",
"273 -67 CURVE SMOOTH",
"187 -67 OFFCURVE",
"168 -32 OFFCURVE",
"168 30 CURVE SMOOTH",
"168 101 OFFCURVE",
"214 143 OFFCURVE",
"252 159 CURVE SMOOTH",
"312 194 OFFCURVE",
"351 217 OFFCURVE",
"346 306 CURVE SMOOTH",
"345 318 OFFCURVE",
"338 369 OFFCURVE",
"334 384 CURVE"
);
},
{
closed = 1;
nodes = (
"221 609 LINE",
"221 480 LINE",
"334 480 LINE",
"334 609 LINE"
);
}
);
width = 515;
}
);
leftKerningGroup = questiondown;
rightKerningGroup = questiondown;
unicode = 00BF;
userData = {
com.typemytype.robofont.mark = (
0.656,
1,
0.6,
1
);
};
},
{
glyphname = bullet;
lastChange = "2018-05-17 03:53:43 +0000";
layers = (
{
layerId = "B61D43DE-5272-4FF4-A680-608B6BF5ED9E";
paths = (
{
closed = 1;
nodes = (
"220 280 OFFCURVE",
"261 305 OFFCURVE",
"261 377 CURVE SMOOTH",
"261 446 OFFCURVE",
"219 475 OFFCURVE",
"168 475 CURVE SMOOTH",
"119 475 OFFCURVE",
"77 446 OFFCURVE",
"77 377 CURVE SMOOTH",
"77 305 OFFCURVE",
"118 280 OFFCURVE",
"168 280 CURVE SMOOTH"
);
}
);
width = 337;
}
);
leftKerningGroup = bullet;
rightKerningGroup = bullet;
unicode = 2022;
userData = {
com.typemytype.robofont.mark = (
0.656,
1,
0.6,
1
);
};
},
{
glyphname = asterisk;
lastChange = "2018-05-17 03:53:43 +0000";
layers = (
{
layerId = "B61D43DE-5272-4FF4-A680-608B6BF5ED9E";
paths = (
{
closed = 1;
nodes = (
"259 523 LINE",
"236 522 LINE",
"334 368 LINE",
"416 426 LINE",
"300 563 LINE",
"300 544 LINE",
"460 590 LINE",
"428 682 LINE",
"275 619 LINE",
"288 604 LINE",
"297 776 LINE",
"196 776 LINE",
"207 604 LINE",
"218 620 LINE",
"65 684 LINE",
"36 592 LINE",
"194 545 LINE",
"193 564 LINE",
"78 427 LINE",
"161 368 LINE"
);
}
);
width = 495;
}
);
leftKerningGroup = asterisk;
rightKerningGroup = asterisk;
unicode = 002A;
userData = {
com.typemytype.robofont.mark = (
0.656,
1,
0.6,
1
);
};
},
{
glyphname = numbersign;
lastChange = "2018-05-18 14:12:02 +0000";
layers = (
{
layerId = "B61D43DE-5272-4FF4-A680-608B6BF5ED9E";
paths = (
{
closed = 1;
nodes = (
"161 206 LINE",
"143 228 LINE",
"123 64 LINE",
"207 64 LINE",
"227 230 LINE",
"207 206 LINE",
"376 206 LINE",
"354 224 LINE",
"336 64 LINE",
"422 64 LINE",
"441 230 LINE",
"418 206 LINE",
"551 206 LINE",
"551 283 LINE",
"426 283 LINE",
"445 262 LINE",
"468 501 LINE",
"434 477 LINE",
"577 477 LINE",
"577 553 LINE",
"455 553 LINE",
"471 529 LINE",
"489 697 LINE",
"403 697 LINE",
"385 533 LINE",
"400 553 LINE",
"244 553 LINE",
"257 525 LINE",
"275 697 LINE",
"191 697 LINE",
"172 524 LINE",
"190 553 LINE",
"67 553 LINE",
"67 477 LINE",
"186 477 LINE",
"168 493 LINE",
"146 266 LINE",
"172 283 LINE",
"41 283 LINE",
"41 206 LINE"
);
},
{
closed = 1;
nodes = (
"230 260 LINE",
"252 498 LINE",
"227 477 LINE",
"395 477 LINE",
"382 500 LINE",
"360 264 LINE",
"384 283 LINE",
"201 283 LINE"
);
}
);
width = 618;
}
);
leftKerningGroup = numbersign;
rightKerningGroup = numbersign;
unicode = 0023;
userData = {
com.typemytype.robofont.mark = (
0.656,
1,
0.6,
1
);
};
},
{
color = 0;
glyphname = slash;
lastChange = "2018-05-18 18:03:35 +0000";
layers = (
{
layerId = "B61D43DE-5272-4FF4-A680-608B6BF5ED9E";
paths = (
{
closed = 1;
nodes = (
"143 0 LINE",
"315 697 LINE",
"217 697 LINE",
"45 1 LINE"
);
}
);
width = 360;
}
);
leftKerningGroup = slash;
rightKerningGroup = slash;
unicode = 002F;
userData = {
com.typemytype.robofont.mark = (
0.656,
1,
0.6,
1
);
};
},
{
color = 0;
glyphname = backslash;
lastChange = "2018-05-18 18:03:45 +0000";
layers = (
{
layerId = "B61D43DE-5272-4FF4-A680-608B6BF5ED9E";
paths = (
{
closed = 1;
nodes = (
"143 697 LINE",
"45 697 LINE",
"217 0 LINE",
"315 1 LINE"
);
}
);
width = 360;
}
);
leftKerningGroup = backslash;
leftMetricsKey = slash;
rightKerningGroup = backslash;
rightMetricsKey = slash;
unicode = 005C;
userData = {
com.typemytype.robofont.mark = (
0.656,
1,
0.6,
1
);
};
},
{
glyphname = bullet.case;
lastChange = "2018-05-18 18:01:49 +0000";
layers = (
{
layerId = "B61D43DE-5272-4FF4-A680-608B6BF5ED9E";
paths = (
{
closed = 1;
nodes = (
"220 280 OFFCURVE",
"261 305 OFFCURVE",
"261 377 CURVE SMOOTH",
"261 446 OFFCURVE",
"219 475 OFFCURVE",
"168 475 CURVE SMOOTH",
"119 475 OFFCURVE",
"77 446 OFFCURVE",
"77 377 CURVE SMOOTH",
"77 305 OFFCURVE",
"118 280 OFFCURVE",
"168 280 CURVE SMOOTH"
);
}
);
width = 337;
}
);
leftKerningGroup = bullet.cap;
rightKerningGroup = bullet.cap;
},
{
color = 0;
glyphname = slash.case;
lastChange = "2018-05-18 18:03:52 +0000";
layers = (
{
layerId = "B61D43DE-5272-4FF4-A680-608B6BF5ED9E";
paths = (
{
closed = 1;
nodes = (
"143 0 LINE",
"315 697 LINE",
"217 697 LINE",
"45 1 LINE"
);
}
);
width = 360;
}
);
leftMetricsKey = slash;
rightMetricsKey = slash;
},
{
color = 0;
glyphname = backslash.case;
lastChange = "2018-05-18 18:04:01 +0000";
layers = (
{
layerId = "B61D43DE-5272-4FF4-A680-608B6BF5ED9E";
paths = (
{
closed = 1;
nodes = (
"143 697 LINE",
"45 697 LINE",
"217 0 LINE",
"315 1 LINE"
);
}
);
width = 360;
}
);
leftMetricsKey = slash;
rightMetricsKey = slash;
},
{
glyphname = parenleft;
lastChange = "2018-05-17 03:53:43 +0000";
layers = (
{
layerId = "B61D43DE-5272-4FF4-A680-608B6BF5ED9E";
paths = (
{
closed = 1;
nodes = (
"63 37 OFFCURVE",
"236 -123 OFFCURVE",
"322 -147 CURVE",
"366 -103 LINE",
"326 -75 OFFCURVE",
"189 27 OFFCURVE",
"189 331 CURVE SMOOTH",
"189 635 OFFCURVE",
"321 748 OFFCURVE",
"366 766 CURVE",
"322 810 LINE",
"236 795 OFFCURVE",
"63 625 OFFCURVE",
"63 331 CURVE SMOOTH"
);
}
);
width = 386;
}
);
leftKerningGroup = parenleft;
rightKerningGroup = parenleft;
unicode = 0028;
userData = {
com.typemytype.robofont.mark = (
0.656,
1,
0.6,
1
);
};
},
{
glyphname = braceleft;
lastChange = "2018-05-17 03:53:43 +0000";
layers = (
{
layerId = "B61D43DE-5272-4FF4-A680-608B6BF5ED9E";
paths = (
{
closed = 1;
nodes = (
"109 -79 OFFCURVE",
"203 -159 OFFCURVE",
"346 -139 CURVE",
"347 -75 LINE",
"226 -99 OFFCURVE",
"222 -11 OFFCURVE",
"222 104 CURVE SMOOTH",
"222 193 LINE SMOOTH",
"222 285 OFFCURVE",
"167 324 OFFCURVE",
"133 333 CURVE",
"171 343 OFFCURVE",
"222 381 OFFCURVE",
"222 489 CURVE SMOOTH",
"222 566 LINE SMOOTH",
"222 682 OFFCURVE",
"225 769 OFFCURVE",
"346 746 CURVE",
"345 810 LINE",
"202 829 OFFCURVE",
"109 750 OFFCURVE",
"109 630 CURVE SMOOTH",
"109 449 LINE SMOOTH",
"109 372 OFFCURVE",
"46 372 OFFCURVE",
"18 372 CURVE",
"18 297 LINE",
"46 297 OFFCURVE",
"109 296 OFFCURVE",
"109 215 CURVE SMOOTH",
"109 40 LINE"
);
}
);
width = 386;
}
);
leftKerningGroup = braceleft;
rightKerningGroup = braceleft;
unicode = 007B;
userData = {
com.typemytype.robofont.mark = (
0.656,
1,
0.6,
1
);
};
},
{
glyphname = bracketleft;
lastChange = "2018-05-17 03:53:43 +0000";
layers = (
{
layerId = "B61D43DE-5272-4FF4-A680-608B6BF5ED9E";
paths = (
{
closed = 1;
nodes = (
"215 -93 LINE",
"215 761 LINE",
"196 737 LINE",
"342 737 LINE",
"342 810 LINE",
"105 810 LINE",
"105 -143 LINE",
"342 -143 LINE",
"342 -70 LINE",
"196 -70 LINE"
);
}
);
width = 386;
}
);
leftKerningGroup = bracketleft;
rightKerningGroup = bracketleft;
unicode = 005B;
userData = {
com.typemytype.robofont.mark = (
0.656,
1,
0.6,
1
);
};
},
{
glyphname = parenleft.case;
lastChange = "2018-05-18 17:59:24 +0000";
layers = (
{
layerId = "B61D43DE-5272-4FF4-A680-608B6BF5ED9E";
paths = (
{
closed = 1;
nodes = (
"63 57 OFFCURVE",
"236 -104 OFFCURVE",
"322 -128 CURVE",
"366 -83 LINE",
"326 -56 OFFCURVE",
"189 46 OFFCURVE",
"189 351 CURVE SMOOTH",
"189 655 OFFCURVE",
"321 767 OFFCURVE",
"366 785 CURVE",
"322 830 LINE",
"236 815 OFFCURVE",
"63 644 OFFCURVE",
"63 351 CURVE SMOOTH"
);
}
);
width = 386;
}
);
leftKerningGroup = parenleft.cap;
rightKerningGroup = parenleft.cap;
},
{
glyphname = braceleft.case;
lastChange = "2018-05-18 17:59:24 +0000";
layers = (
{
layerId = "B61D43DE-5272-4FF4-A680-608B6BF5ED9E";
paths = (
{
closed = 1;
nodes = (
"109 -59 OFFCURVE",
"203 -139 OFFCURVE",
"346 -120 CURVE",
"347 -56 LINE",
"226 -79 OFFCURVE",
"222 8 OFFCURVE",
"222 124 CURVE SMOOTH",
"222 213 LINE SMOOTH",
"222 305 OFFCURVE",
"167 344 OFFCURVE",
"133 353 CURVE",
"171 362 OFFCURVE",
"222 401 OFFCURVE",
"222 508 CURVE SMOOTH",
"222 585 LINE SMOOTH",
"222 702 OFFCURVE",
"225 789 OFFCURVE",
"346 765 CURVE",
"345 829 LINE",
"202 849 OFFCURVE",
"109 769 OFFCURVE",
"109 650 CURVE SMOOTH",
"109 468 LINE SMOOTH",
"109 392 OFFCURVE",
"46 392 OFFCURVE",
"18 392 CURVE",
"18 316 LINE",
"46 316 OFFCURVE",
"109 315 OFFCURVE",
"109 234 CURVE SMOOTH",
"109 60 LINE"
);
}
);
width = 386;
}
);
leftKerningGroup = braceleft.cap;
rightKerningGroup = braceleft.cap;
},
{
glyphname = bracketleft.case;
lastChange = "2018-05-18 17:59:24 +0000";
layers = (
{
layerId = "B61D43DE-5272-4FF4-A680-608B6BF5ED9E";
paths = (
{
closed = 1;
nodes = (
"215 -73 LINE",
"215 780 LINE",
"196 757 LINE",
"342 757 LINE",
"342 830 LINE",
"105 830 LINE",
"105 -123 LINE",
"342 -123 LINE",
"342 -50 LINE",
"196 -51 LINE"
);
}
);
width = 386;
}
);
leftKerningGroup = bracketleft.cap;
rightKerningGroup = bracketleft.cap;
},
{
glyphname = hyphen;
lastChange = "2018-05-17 03:53:43 +0000";
layers = (
{
layerId = "B61D43DE-5272-4FF4-A680-608B6BF5ED9E";
paths = (
{
closed = 1;
nodes = (
"381 246 LINE",
"381 344 LINE",
"62 344 LINE",
"62 246 LINE"
);
}
);
width = 443;
}
);
leftKerningGroup = hyphen;
rightKerningGroup = hyphen;
unicode = 002D;
userData = {
com.typemytype.robofont.mark = (
0.656,
1,
0.6,
1
);
};
},
{
glyphname = softhyphen;
lastChange = "2018-05-18 17:45:36 +0000";
layers = (
{
layerId = "B61D43DE-5272-4FF4-A680-608B6BF5ED9E";
paths = (
{
closed = 1;
nodes = (
"381 246 LINE",
"381 344 LINE",
"62 344 LINE",
"62 246 LINE"
);
}
);
width = 443;
}
);
leftKerningGroup = hyphen;
leftMetricsKey = hyphen;
rightKerningGroup = hyphen;
rightMetricsKey = hyphen;
unicode = 00AD;
userData = {
com.typemytype.robofont.mark = (
0.656,
1,
0.6,
1
);
};
},
{
glyphname = endash;
lastChange = "2018-05-18 17:45:42 +0000";
layers = (
{
layerId = "B61D43DE-5272-4FF4-A680-608B6BF5ED9E";
paths = (
{
closed = 1;
nodes = (
"575 246 LINE",
"575 344 LINE",
"62 344 LINE",
"62 246 LINE"
);
}
);
width = 637;
}
);
leftKerningGroup = hyphen;
leftMetricsKey = hyphen;
rightKerningGroup = hyphen;
rightMetricsKey = hyphen;
unicode = 2013;
userData = {
com.typemytype.robofont.mark = (
0.656,
1,
0.6,
1
);
};
},
{
glyphname = emdash;
lastChange = "2018-05-18 17:45:57 +0000";
layers = (
{
layerId = "B61D43DE-5272-4FF4-A680-608B6BF5ED9E";
paths = (
{
closed = 1;
nodes = (
"879 246 LINE",
"879 344 LINE",
"62 344 LINE",
"62 246 LINE"
);
}
);
width = 941;
}
);
leftKerningGroup = hyphen;
rightKerningGroup = hyphen;
unicode = 2014;
userData = {
com.typemytype.robofont.mark = (
0.656,
1,
0.6,
1
);
};
},
{
color = 0;
glyphname = figuredash;
lastChange = "2018-05-18 17:49:34 +0000";
layers = (
{
layerId = "B61D43DE-5272-4FF4-A680-608B6BF5ED9E";
paths = (
{
closed = 1;
nodes = (
"575 246 LINE",
"575 344 LINE",
"62 344 LINE",
"62 246 LINE"
);
}
);
width = 637;
}
);
leftKerningGroup = figuredash;
leftMetricsKey = hyphen;
rightKerningGroup = figuredash;
rightMetricsKey = hyphen;
unicode = 2012;
userData = {
com.typemytype.robofont.mark = (
0.967,
0.6,
1,
1
);
};
},
{
color = 0;
glyphname = horizontalbar;
lastChange = "2018-05-18 17:49:40 +0000";
layers = (
{
layerId = "B61D43DE-5272-4FF4-A680-608B6BF5ED9E";
paths = (
{
closed = 1;
nodes = (
"381 246 LINE",
"381 344 LINE",
"62 344 LINE",
"62 246 LINE"
);
}
);
width = 443;
}
);
leftKerningGroup = uni2015;
leftMetricsKey = hyphen;
rightKerningGroup = uni2015;
rightMetricsKey = hyphen;
unicode = 2015;
userData = {
com.typemytype.robofont.mark = (
0.967,
0.6,
1,
1
);
};
},
{
color = 0;
glyphname = hyphentwo;
lastChange = "2018-05-18 17:49:46 +0000";
layers = (
{
layerId = "B61D43DE-5272-4FF4-A680-608B6BF5ED9E";
paths = (
{
closed = 1;
nodes = (
"381 246 LINE",
"381 344 LINE",
"62 344 LINE",
"62 246 LINE"
);
}
);
width = 443;
}
);
leftKerningGroup = uni2010;
leftMetricsKey = hyphen;
rightKerningGroup = uni2010;
rightMetricsKey = hyphen;
unicode = 2010;
userData = {
com.typemytype.robofont.mark = (
0.6,
0.609,
1,
1
);
};
},
{
color = 0;
glyphname = underscore;
lastChange = "2018-05-18 14:11:28 +0000";
layers = (
{
layerId = "B61D43DE-5272-4FF4-A680-608B6BF5ED9E";
paths = (
{
closed = 1;
nodes = (
"-12 -173 LINE",
"502 -173 LINE",
"502 -105 LINE",
"-12 -105 LINE"
);
}
);
width = 490;
}
);
leftKerningGroup = underscore;
rightKerningGroup = underscore;
unicode = 005F;
userData = {
com.typemytype.robofont.mark = (
0.656,
1,
0.6,
1
);
};
},
{
color = 4;
glyphname = hyphen.case;
lastChange = "2018-05-18 17:55:36 +0000";
layers = (
{
layerId = "B61D43DE-5272-4FF4-A680-608B6BF5ED9E";
paths = (
{
closed = 1;
nodes = (
"381 297 LINE",
"381 395 LINE",
"62 395 LINE",
"62 297 LINE"
);
}
);
width = 443;
}
);
leftMetricsKey = hyphen;
rightMetricsKey = hyphen;
},
{
color = 4;
glyphname = endash.case;
lastChange = "2018-05-18 17:54:53 +0000";
layers = (
{
layerId = "B61D43DE-5272-4FF4-A680-608B6BF5ED9E";
paths = (
{
closed = 1;
nodes = (
"575 297 LINE",
"575 395 LINE",
"62 395 LINE",
"62 297 LINE"
);
}
);
width = 637;
}
);
leftMetricsKey = hyphen;
rightMetricsKey = hyphen;
},
{
color = 4;
glyphname = emdash.case;
lastChange = "2018-05-18 17:54:53 +0000";
layers = (
{
layerId = "B61D43DE-5272-4FF4-A680-608B6BF5ED9E";
paths = (
{
closed = 1;
nodes = (
"879 297 LINE",
"879 395 LINE",
"62 395 LINE",
"62 297 LINE"
);
}
);
width = 941;
}
);
leftMetricsKey = hyphen;
rightMetricsKey = hyphen;
},
{
color = 4;
glyphname = quoteleft;
lastChange = "2018-05-18 15:08:50 +0000";
layers = (
{
layerId = "B61D43DE-5272-4FF4-A680-608B6BF5ED9E";
paths = (
{
closed = 1;
nodes = (
"170 389 LINE",
"224 697 LINE",
"95 697 LINE",
"64 389 LINE"
);
}
);
width = 292;
}
);
leftKerningGroup = quotedblleft;
rightKerningGroup = quotedblleft;
unicode = 2018;
userData = {
com.typemytype.robofont.mark = (
0.656,
1,
0.6,
1
);
};
},
{
color = 4;
glyphname = quoteright;
lastChange = "2018-05-18 15:08:50 +0000";
layers = (
{
layerId = "B61D43DE-5272-4FF4-A680-608B6BF5ED9E";
paths = (
{
closed = 1;
nodes = (
"170 389 LINE",
"224 697 LINE",
"95 697 LINE",
"64 389 LINE"
);
}
);
width = 292;
}
);
leftKerningGroup = quotedblleft;
rightKerningGroup = quotedblleft;
unicode = 2019;
userData = {
com.typemytype.robofont.mark = (
0.656,
1,
0.6,
1
);
};
},
{
glyphname = guilsinglleft;
lastChange = "2018-05-17 03:53:43 +0000";
layers = (
{
layerId = "B61D43DE-5272-4FF4-A680-608B6BF5ED9E";
paths = (
{
closed = 1;
nodes = (
"229 24 LINE",
"369 24 LINE",
"192 263 LINE",
"192 234 LINE",
"372 473 LINE",
"231 473 LINE",
"69 248 LINE"
);
}
);
width = 451;
}
);
leftKerningGroup = guillemotleft;
rightKerningGroup = guillemotleft;
unicode = 2039;
userData = {
com.typemytype.robofont.mark = (
0.656,
1,
0.6,
1
);
};
},
{
color = 0;
glyphname = quotesingle;
lastChange = "2018-05-18 15:09:06 +0000";
layers = (
{
layerId = "B61D43DE-5272-4FF4-A680-608B6BF5ED9E";
paths = (
{
closed = 1;
nodes = (
"195 359 LINE",
"206 697 LINE",
"82 697 LINE",
"89 359 LINE"
);
}
);
width = 288;
}
);
leftKerningGroup = quotesingle;
rightKerningGroup = quotesingle;
unicode = 0027;
userData = {
com.typemytype.robofont.mark = (
0.656,
1,
0.6,
1
);
};
},
{
color = 0;
glyphname = "leftanglebracket-math";
lastChange = "2018-05-17 12:53:35 +0000";
layers = (
{
layerId = "B61D43DE-5272-4FF4-A680-608B6BF5ED9E";
paths = (
{
closed = 1;
nodes = (
"220 -226 LINE",
"340 -226 LINE",
"178 263 LINE",
"178 234 LINE",
"353 723 LINE",
"222 723 LINE",
"60 248 LINE"
);
}
);
width = 413;
}
);
leftKerningGroup = uni27E8;
rightKerningGroup = uni27E8;
unicode = 27E8;
userData = {
com.typemytype.robofont.mark = (
0.6,
0.609,
1,
1
);
};
},
{
color = 0;
glyphname = "rightanglebracket-math";
lastChange = "2018-05-17 12:53:45 +0000";
layers = (
{
layerId = "B61D43DE-5272-4FF4-A680-608B6BF5ED9E";
paths = (
{
closed = 1;
nodes = (
"191 723 LINE",
"60 723 LINE",
"235 234 LINE",
"235 263 LINE",
"73 -226 LINE",
"193 -226 LINE",
"353 248 LINE"
);
}
);
width = 413;
}
);
leftKerningGroup = uni27E9;
rightKerningGroup = uni27E9;
unicode = 27E9;
userData = {
com.typemytype.robofont.mark = (
0.6,
0.609,
1,
1
);
};
},
{
glyphname = .notdef;
lastChange = "2018-05-18 14:12:56 +0000";
layers = (
{
layerId = "B61D43DE-5272-4FF4-A680-608B6BF5ED9E";
paths = (
{
closed = 1;
nodes = (
"86 691 LINE",
"86 0 LINE",
"778 0 LINE",
"778 691 LINE"
);
},
{
closed = 1;
nodes = (
"273 123 LINE",
"215 189 LINE",
"382 344 LINE",
"214 509 LINE",
"270 566 LINE",
"433 394 LINE",
"593 565 LINE",
"651 509 LINE",
"481 346 LINE",
"651 178 LINE",
"596 123 LINE",
"431 295 LINE"
);
}
);
width = 864;
}
);
leftKerningGroup = .notdef;
rightKerningGroup = .notdef;
},
{
color = 0;
glyphname = "dram-arm";
lastChange = "2018-05-17 02:33:02 +0000";
layers = (
{
layerId = "B61D43DE-5272-4FF4-A680-608B6BF5ED9E";
paths = (
{
closed = 1;
nodes = (
"761 187 LINE",
"761 234 LINE",
"603 234 LINE",
"603 322 LINE",
"761 322 LINE",
"761 369 LINE",
"603 369 LINE",
"603 445 LINE SMOOTH",
"603 656 OFFCURVE",
"543 751 OFFCURVE",
"356 751 CURVE SMOOTH",
"198 751 OFFCURVE",
"101 650 OFFCURVE",
"101 489 CURVE SMOOTH",
"101 474 LINE",
"30 463 LINE",
"30 420 LINE",
"258 420 LINE",
"258 463 LINE",
"185 475 LINE",
"185 493 LINE SMOOTH",
"185 607 OFFCURVE",
"214 702 OFFCURVE",
"349 702 CURVE SMOOTH",
"459 702 OFFCURVE",
"519 651 OFFCURVE",
"519 454 CURVE SMOOTH",
"519 369 LINE",
"353 369 LINE",
"353 322 LINE",
"519 322 LINE",
"519 234 LINE",
"353 234 LINE",
"353 187 LINE",
"519 187 LINE",
"519 54 LINE",
"433 43 LINE",
"433 0 LINE",
"678 0 LINE",
"678 43 LINE",
"603 54 LINE",
"603 187 LINE"
);
}
);
width = 600;
}
);
unicode = 058F;
},
{
color = 4;
glyphname = cent;
lastChange = "2018-05-18 03:41:31 +0000";
layers = (
{
layerId = "B61D43DE-5272-4FF4-A680-608B6BF5ED9E";
paths = (
{
closed = 1;
nodes = (
"61 207 OFFCURVE",
"139 109 OFFCURVE",
"299 109 CURVE SMOOTH",
"393 109 OFFCURVE",
"441 138 OFFCURVE",
"462 157 CURVE",
"423 246 LINE",
"395 221 OFFCURVE",
"361 203 OFFCURVE",
"318 203 CURVE SMOOTH",
"244 203 OFFCURVE",
"206 258 OFFCURVE",
"206 343 CURVE SMOOTH",
"206 422 OFFCURVE",
"243 484 OFFCURVE",
"314 484 CURVE SMOOTH",
"351 484 OFFCURVE",
"387 468 OFFCURVE",
"420 438 CURVE",
"460 532 LINE",
"436 558 OFFCURVE",
"373 575 OFFCURVE",
"299 575 CURVE SMOOTH",
"150 575 OFFCURVE",
"61 484 OFFCURVE",
"61 342 CURVE SMOOTH"
);
},
{
closed = 1;
nodes = (
"348 0 LINE",
"348 129 LINE",
"229 129 LINE",
"229 0 LINE"
);
},
{
closed = 1;
nodes = (
"348 552 LINE",
"348 696 LINE",
"229 696 LINE",
"229 552 LINE"
);
}
);
width = 527;
}
);
leftKerningGroup = o;
rightKerningGroup = c;
unicode = 00A2;
userData = {
com.typemytype.robofont.mark = (
0.656,
1,
0.6,
1
);
};
},
{
color = 0;
glyphname = colonsign;
lastChange = "2018-05-17 12:54:25 +0000";
layers = (
{
anchors = (
{
name = btm;
position = "{285, -83}";
},
{
name = top;
position = "{332, 830}";
}
);
layerId = "B61D43DE-5272-4FF4-A680-608B6BF5ED9E";
paths = (
{
closed = 1;
nodes = (
"511 -18 OFFCURVE",
"575 21 OFFCURVE",
"606 43 CURVE",
"550 145 LINE",
"530 127 OFFCURVE",
"475 89 OFFCURVE",
"377 89 CURVE SMOOTH",
"266 89 OFFCURVE",
"179 187 OFFCURVE",
"179 355 CURVE SMOOTH",
"179 488 OFFCURVE",
"240 609 OFFCURVE",
"376 609 CURVE SMOOTH",
"474 609 OFFCURVE",
"530 571 OFFCURVE",
"550 553 CURVE",
"606 655 LINE",
"574 678 OFFCURVE",
"515 714 OFFCURVE",
"373 714 CURVE SMOOTH",
"193 714 OFFCURVE",
"39 583 OFFCURVE",
"39 355 CURVE SMOOTH",
"39 106 OFFCURVE",
"200 -18 OFFCURVE",
"369 -18 CURVE SMOOTH"
);
},
{
closed = 1;
nodes = (
"259 -122 LINE",
"401 830 LINE",
"323 830 LINE",
"180 -122 LINE"
);
},
{
closed = 1;
nodes = (
"398 -122 LINE",
"541 830 LINE",
"462 830 LINE",
"320 -122 LINE"
);
}
);
width = 546;
}
);
leftKerningGroup = colonmonetary;
rightKerningGroup = colonmonetary;
unicode = 20A1;
userData = {
com.typemytype.robofont.mark = (
0.6,
0.986,
1,
1
);
};
},
{
color = 4;
glyphname = currency;
lastChange = "2018-05-18 03:41:31 +0000";
layers = (
{
layerId = "B61D43DE-5272-4FF4-A680-608B6BF5ED9E";
paths = (
{
closed = 1;
nodes = (
"230 499 LINE",
"117 617 LINE",
"41 537 LINE",
"163 429 LINE"
);
},
{
closed = 1;
nodes = (
"506 56 LINE",
"581 135 LINE",
"459 245 LINE",
"392 173 LINE"
);
},
{
closed = 1;
nodes = (
"114 57 LINE",
"229 174 LINE",
"161 245 LINE",
"39 136 LINE"
);
},
{
closed = 1;
nodes = (
"455 434 LINE",
"577 543 LINE",
"502 623 LINE",
"388 505 LINE"
);
},
{
closed = 1;
nodes = (
"92 217 OFFCURVE",
"190 119 OFFCURVE",
"310 119 CURVE SMOOTH",
"430 119 OFFCURVE",
"528 217 OFFCURVE",
"528 337 CURVE SMOOTH",
"528 457 OFFCURVE",
"430 554 OFFCURVE",
"310 554 CURVE SMOOTH",
"190 554 OFFCURVE",
"92 457 OFFCURVE",
"92 337 CURVE SMOOTH"
);
},
{
closed = 1;
nodes = (
"177 410 OFFCURVE",
"236 470 OFFCURVE",
"310 470 CURVE SMOOTH",
"384 470 OFFCURVE",
"442 410 OFFCURVE",
"442 337 CURVE SMOOTH",
"442 263 OFFCURVE",
"384 203 OFFCURVE",
"310 203 CURVE SMOOTH",
"236 203 OFFCURVE",
"177 263 OFFCURVE",
"177 337 CURVE"
);
}
);
width = 621;
}
);
leftKerningGroup = currency;
rightKerningGroup = currency;
unicode = 00A4;
userData = {
com.typemytype.robofont.mark = (
0.656,
1,
0.6,
1
);
};
},
{
color = 4;
glyphname = dollar;
lastChange = "2018-05-18 03:41:31 +0000";
layers = (
{
layerId = "B61D43DE-5272-4FF4-A680-608B6BF5ED9E";
paths = (
{
closed = 1;
nodes = (
"117 76 OFFCURVE",
"201 59 OFFCURVE",
"276 59 CURVE SMOOTH",
"405 59 OFFCURVE",
"489 123 OFFCURVE",
"492 226 CURVE SMOOTH",
"494 312 OFFCURVE",
"432 367 OFFCURVE",
"328 398 CURVE SMOOTH",
"283 413 OFFCURVE",
"188 427 OFFCURVE",
"190 493 CURVE SMOOTH",
"193 542 OFFCURVE",
"237 565 OFFCURVE",
"290 565 CURVE SMOOTH",
"350 565 OFFCURVE",
"408 526 OFFCURVE",
"418 512 CURVE",
"458 589 LINE",
"437 616 OFFCURVE",
"366 654 OFFCURVE",
"271 652 CURVE SMOOTH",
"141 650 OFFCURVE",
"67 580 OFFCURVE",
"65 490 CURVE SMOOTH",
"63 373 OFFCURVE",
"150 331 OFFCURVE",
"241 304 CURVE SMOOTH",
"299 288 OFFCURVE",
"361 268 OFFCURVE",
"361 220 CURVE SMOOTH",
"361 162 OFFCURVE",
"311 142 OFFCURVE",
"262 142 CURVE SMOOTH",
"189 142 OFFCURVE",
"122 180 OFFCURVE",
"97 203 CURVE",
"61 122 LINE"
);
},
{
closed = 1;
nodes = (
"339 -15 LINE",
"339 139 LINE",
"220 139 LINE",
"220 -15 LINE"
);
},
{
closed = 1;
nodes = (
"339 586 LINE",
"339 744 LINE",
"220 744 LINE",
"220 586 LINE"
);
}
);
width = 531;
}
);
leftKerningGroup = dollar;
rightKerningGroup = dollar;
unicode = 0024;
userData = {
com.typemytype.robofont.mark = (
0.656,
1,
0.6,
1
);
};
},
{
color = 0;
glyphname = dong;
lastChange = "2018-05-17 02:33:02 +0000";
layers = (
{
anchors = (
{
name = top;
position = "{201, 830}";
}
);
layerId = "B61D43DE-5272-4FF4-A680-608B6BF5ED9E";
paths = (
{
closed = 1;
nodes = (
"46 90 OFFCURVE",
"122 -15 OFFCURVE",
"244 -15 CURVE SMOOTH",
"314 -15 OFFCURVE",
"355 25 OFFCURVE",
"377 68 CURVE",
"375 33 LINE",
"375 0 LINE",
"494 0 LINE",
"494 770 LINE",
"367 770 LINE",
"367 485 LINE",
"375 436 LINE",
"355 470 OFFCURVE",
"314 510 OFFCURVE",
"245 510 CURVE SMOOTH",
"112 510 OFFCURVE",
"46 412 OFFCURVE",
"46 248 CURVE SMOOTH"
);
},
{
closed = 1;
nodes = (
"177 370 OFFCURVE",
"229 409 OFFCURVE",
"276 409 CURVE SMOOTH",
"337 409 OFFCURVE",
"363 350 OFFCURVE",
"363 246 CURVE SMOOTH",
"363 132 OFFCURVE",
"321 85 OFFCURVE",
"273 85 CURVE SMOOTH",
"218 85 OFFCURVE",
"177 138 OFFCURVE",
"177 249 CURVE SMOOTH"
);
}
);
width = 570;
}
);
leftKerningGroup = dong;
rightKerningGroup = dong;
unicode = 20AB;
userData = {
com.typemytype.robofont.mark = (
0.6,
0.986,
1,
1
);
};
},
{
color = 4;
glyphname = euro;
lastChange = "2018-05-18 14:16:48 +0000";
layers = (
{
layerId = "B61D43DE-5272-4FF4-A680-608B6BF5ED9E";
paths = (
{
closed = 1;
nodes = (
"121 99 OFFCURVE",
"233 -9 OFFCURVE",
"379 -9 CURVE SMOOTH",
"460 -9 OFFCURVE",
"516 17 OFFCURVE",
"564 51 CURVE",
"522 145 LINE",
"489 117 OFFCURVE",
"449 96 OFFCURVE",
"395 96 CURVE SMOOTH",
"277 96 OFFCURVE",
"250 187 OFFCURVE",
"250 356 CURVE SMOOTH",
"250 575 OFFCURVE",
"351 608 OFFCURVE",
"400 608 CURVE SMOOTH",
"465 608 OFFCURVE",
"516 583 OFFCURVE",
"539 548 CURVE",
"584 648 LINE",
"560 678 OFFCURVE",
"511 709 OFFCURVE",
"409 709 CURVE SMOOTH",
"224 709 OFFCURVE",
"121 531 OFFCURVE",
"121 344 CURVE SMOOTH"
);
},
{
closed = 1;
nodes = (
"473 399 LINE",
"472 481 LINE",
"71 481 LINE",
"71 399 LINE"
);
},
{
closed = 1;
nodes = (
"456 228 LINE",
"456 311 LINE",
"55 311 LINE",
"55 228 LINE"
);
}
);
width = 633;
}
);
leftKerningGroup = euro;
rightKerningGroup = euro;
unicode = 20AC;
userData = {
com.typemytype.robofont.mark = (
0.656,
1,
0.6,
1
);
};
},
{
glyphname = florin;
lastChange = "2018-05-17 02:33:02 +0000";
layers = (
{
layerId = "B61D43DE-5272-4FF4-A680-608B6BF5ED9E";
paths = (
{
closed = 1;
nodes = (
"191 -100 LINE",
"221 408 LINE",
"327 408 LINE",
"332 492 LINE",
"227 492 LINE",
"228 509 OFFCURVE",
"229 535 OFFCURVE",
"229 539 CURVE SMOOTH",
"236 665 OFFCURVE",
"273 684 OFFCURVE",
"313 684 CURVE SMOOTH",
"334 684 OFFCURVE",
"360 673 OFFCURVE",
"386 656 CURVE",
"393 757 LINE",
"366 765 OFFCURVE",
"336 770 OFFCURVE",
"309 770 CURVE SMOOTH",
"186 770 OFFCURVE",
"105 709 OFFCURVE",
"96 555 CURVE SMOOTH",
"95 544 OFFCURVE",
"93 502 OFFCURVE",
"92 492 CURVE",
"23 492 LINE",
"18 408 LINE",
"87 408 LINE",
"57 -100 LINE"
);
}
);
width = 364;
}
);
leftKerningGroup = florin;
rightKerningGroup = florin;
unicode = 0192;
userData = {
com.typemytype.robofont.mark = (
0.6,
0.986,
1,
1
);
};
},
{
glyphname = franc;
lastChange = "2018-05-17 02:33:02 +0000";
layers = (
{
layerId = "B61D43DE-5272-4FF4-A680-608B6BF5ED9E";
paths = (
{
closed = 1;
nodes = (
"206 0 LINE",
"206 358 LINE",
"187 343 LINE",
"410 343 LINE",
"410 449 LINE",
"187 449 LINE",
"206 432 LINE",
"206 614 LINE",
"189 596 LINE",
"440 596 LINE",
"440 697 LINE",
"76 697 LINE",
"76 0 LINE"
);
},
{
closed = 1;
nodes = (
"318 87 LINE",
"318 185 LINE",
"0 185 LINE",
"0 87 LINE"
);
}
);
width = 464;
}
);
leftKerningGroup = franc;
rightKerningGroup = franc;
unicode = 20A3;
userData = {
com.typemytype.robofont.mark = (
0.6,
0.986,
1,
1
);
};
},
{
color = 0;
glyphname = guarani;
lastChange = "2018-05-17 02:33:02 +0000";
layers = (
{
components = (
{
name = G;
}
);
layerId = "B61D43DE-5272-4FF4-A680-608B6BF5ED9E";
paths = (
{
closed = 1;
nodes = (
"379 644 LINE",
"379 830 LINE",
"277 830 LINE",
"277 644 LINE"
);
},
{
closed = 1;
nodes = (
"379 -147 LINE",
"379 39 LINE",
"277 39 LINE",
"277 -147 LINE"
);
}
);
width = 618;
}
);
leftKerningGroup = O;
rightKerningGroup = G;
unicode = 20B2;
userData = {
com.typemytype.robofont.mark = (
0.6,
0.609,
1,
1
);
};
},
{
color = 4;
glyphname = hryvnia;
lastChange = "2018-05-18 03:41:31 +0000";
layers = (
{
anchors = (
{
name = btm;
position = "{272, 0}";
}
);
layerId = "B61D43DE-5272-4FF4-A680-608B6BF5ED9E";
paths = (
{
closed = 1;
nodes = (
"186 304 LINE",
"149 304 OFFCURVE",
"96 234 OFFCURVE",
"98 183 CURVE SMOOTH",
"103 55 OFFCURVE",
"183 -11 OFFCURVE",
"316 -11 CURVE SMOOTH",
"410 -11 OFFCURVE",
"452 8 OFFCURVE",
"486 44 CURVE",
"435 149 LINE",
"412 120 OFFCURVE",
"376 97 OFFCURVE",
"319 97 CURVE SMOOTH",
"272 97 OFFCURVE",
"229 125 OFFCURVE",
"229 180 CURVE SMOOTH",
"229 233 OFFCURVE",
"270 258 OFFCURVE",
"336 299 CURVE"
);
},
{
closed = 1;
nodes = (
"541 403 LINE",
"541 481 LINE",
"30 481 LINE",
"30 403 LINE"
);
},
{
closed = 1;
nodes = (
"541 249 LINE",
"541 327 LINE",
"30 327 LINE",
"30 249 LINE"
);
},
{
closed = 1;
nodes = (
"461 469 LINE",
"465 486 OFFCURVE",
"479 505 OFFCURVE",
"479 550 CURVE SMOOTH",
"479 647 OFFCURVE",
"404 709 OFFCURVE",
"276 709 CURVE SMOOTH",
"168 709 OFFCURVE",
"109 668 OFFCURVE",
"82 644 CURVE",
"138 542 LINE",
"153 562 OFFCURVE",
"204 603 OFFCURVE",
"268 603 CURVE SMOOTH",
"317 603 OFFCURVE",
"349 589 OFFCURVE",
"349 552 CURVE SMOOTH",
"349 498 OFFCURVE",
"328 484 OFFCURVE",
"313 468 CURVE"
);
}
);
width = 571;
}
);
unicode = 20B4;
},
{
color = 4;
glyphname = kip;
lastChange = "2018-05-18 03:41:31 +0000";
layers = (
{
components = (
{
name = K;
transform = "{1, 0, 0, 1, 30, 0}";
}
);
layerId = "B61D43DE-5272-4FF4-A680-608B6BF5ED9E";
paths = (
{
closed = 1;
nodes = (
"591 305 LINE",
"591 403 LINE",
"29 403 LINE",
"29 305 LINE"
);
}
);
width = 652;
}
);
leftKerningGroup = kip;
rightKerningGroup = kip;
unicode = 20AD;
userData = {
com.typemytype.robofont.mark = (
0.6,
0.609,
1,
1
);
};
},
{
glyphname = lira;
lastChange = "2018-05-17 02:33:02 +0000";
layers = (
{
layerId = "B61D43DE-5272-4FF4-A680-608B6BF5ED9E";
paths = (
{
closed = 1;
nodes = (
"518 0 LINE",
"518 101 LINE",
"219 101 LINE",
"239 149 OFFCURVE",
"265 213 OFFCURVE",
"265 298 CURVE SMOOTH",
"265 376 OFFCURVE",
"232 425 OFFCURVE",
"232 496 CURVE SMOOTH",
"232 581 OFFCURVE",
"269 622 OFFCURVE",
"343 622 CURVE SMOOTH",
"398 622 OFFCURVE",
"457 591 OFFCURVE",
"479 554 CURVE",
"529 635 LINE",
"509 662 OFFCURVE",
"446 708 OFFCURVE",
"328 708 CURVE SMOOTH",
"158 708 OFFCURVE",
"94 630 OFFCURVE",
"94 518 CURVE SMOOTH",
"94 422 OFFCURVE",
"139 366 OFFCURVE",
"139 257 CURVE SMOOTH",
"139 144 OFFCURVE",
"87 40 OFFCURVE",
"70 0 CURVE"
);
},
{
closed = 1;
nodes = (
"432 224 LINE",
"432 307 LINE",
"47 307 LINE",
"47 224 LINE"
);
},
{
closed = 1;
nodes = (
"432 385 LINE",
"432 468 LINE",
"47 468 LINE",
"47 385 LINE"
);
}
);
width = 592;
}
);
leftKerningGroup = lira;
rightKerningGroup = lira;
unicode = 20A4;
userData = {
com.typemytype.robofont.mark = (
0.6,
0.986,
1,
1
);
};
},
{
color = 0;
glyphname = liraTurkish;
lastChange = "2018-05-17 02:33:02 +0000";
layers = (
{
layerId = "B61D43DE-5272-4FF4-A680-608B6BF5ED9E";
paths = (
{
closed = 1;
nodes = (
"260 0 LINE SMOOTH",
"490 0 OFFCURVE",
"594 88 OFFCURVE",
"614 287 CURVE SMOOTH",
"616 311 LINE",
"541 321 LINE",
"528 135 OFFCURVE",
"454 50 OFFCURVE",
"270 51 CURVE",
"270 328 LINE",
"455 414 LINE",
"455 473 LINE",
"270 388 LINE",
"270 525 LINE",
"465 614 LINE",
"465 674 LINE",
"270 584 LINE",
"270 749 LINE",
"196 749 LINE",
"196 551 LINE",
"43 481 LINE",
"43 421 LINE",
"196 491 LINE",
"196 354 LINE",
"48 286 LINE",
"48 226 LINE",
"196 294 LINE",
"196 0 LINE"
);
}
);
width = 659;
}
);
leftKerningGroup = uni20BA;
rightKerningGroup = uni20BA;
unicode = 20BA;
userData = {
com.typemytype.robofont.mark = (
0.6,
0.609,
1,
1
);
};
},
{
color = 4;
glyphname = manat;
lastChange = "2018-05-18 03:41:06 +0000";
layers = (
{
anchors = (
{
name = top;
position = "{314, 830}";
}
);
layerId = "B61D43DE-5272-4FF4-A680-608B6BF5ED9E";
paths = (
{
closed = 1;
nodes = (
"609 631 OFFCURVE",
"468 697 OFFCURVE",
"321 697 CURVE SMOOTH",
"188 697 OFFCURVE",
"40 631 OFFCURVE",
"40 431 CURVE SMOOTH",
"40 -18 LINE",
"170 -18 LINE",
"170 445 LINE SMOOTH",
"170 563 OFFCURVE",
"274 590 OFFCURVE",
"323 590 CURVE SMOOTH",
"380 590 OFFCURVE",
"479 563 OFFCURVE",
"479 445 CURVE SMOOTH",
"479 -18 LINE",
"609 -18 LINE",
"609 431 LINE"
);
},
{
closed = 1;
nodes = (
"384 109 LINE",
"384 830 LINE",
"262 830 LINE",
"262 109 LINE"
);
}
);
width = 649;
}
);
leftKerningGroup = uni20BC;
rightKerningGroup = uni20BC;
unicode = 20BC;
userData = {
com.typemytype.robofont.mark = (
0.6,
0.609,
1,
1
);
};
},
{
color = 4;
glyphname = naira;
lastChange = "2018-05-18 03:41:31 +0000";
layers = (
{
anchors = (
{
name = btm;
position = "{322, -83}";
},
{
name = top;
position = "{322, 830}";
}
);
layerId = "B61D43DE-5272-4FF4-A680-608B6BF5ED9E";
paths = (
{
closed = 1;
nodes = (
"203 0 LINE",
"203 504 LINE",
"124 476 LINE",
"569 -20 LINE",
"569 697 LINE",
"441 697 LINE",
"441 189 LINE",
"516 215 LINE",
"76 715 LINE",
"76 0 LINE"
);
},
{
closed = 1;
nodes = (
"660 170 LINE",
"660 253 LINE",
"-20 253 LINE",
"-20 170 LINE"
);
},
{
closed = 1;
nodes = (
"660 429 LINE",
"660 512 LINE",
"-20 512 LINE",
"-20 429 LINE"
);
}
);
width = 645;
}
);
leftKerningGroup = uni20A6;
rightKerningGroup = uni20A6;
unicode = 20A6;
userData = {
com.typemytype.robofont.mark = (
0.6,
0.986,
1,
1
);
};
},
{
color = 4;
glyphname = peseta;
lastChange = "2018-05-18 03:41:31 +0000";
layers = (
{
layerId = "B61D43DE-5272-4FF4-A680-608B6BF5ED9E";
paths = (
{
closed = 1;
nodes = (
"206 0 LINE",
"206 157 LINE",
"190 106 LINE",
"267 106 LINE",
"444 106 OFFCURVE",
"517 258 OFFCURVE",
"517 398 CURVE SMOOTH",
"517 604 OFFCURVE",
"405 697 OFFCURVE",
"263 697 CURVE SMOOTH",
"76 697 LINE",
"76 0 LINE"
);
},
{
closed = 1;
nodes = (
"206 197 LINE",
"206 614 LINE",
"190 596 LINE",
"260 596 LINE SMOOTH",
"360 596 OFFCURVE",
"390 512 OFFCURVE",
"390 392 CURVE SMOOTH",
"390 284 OFFCURVE",
"352 208 OFFCURVE",
"263 208 CURVE SMOOTH",
"188 208 LINE"
);
},
{
closed = 1;
nodes = (
"581 361 LINE",
"581 439 LINE",
"17 439 LINE",
"17 361 LINE"
);
}
);
width = 591;
}
);
leftKerningGroup = peseta;
rightKerningGroup = peseta;
unicode = 20A7;
userData = {
com.typemytype.robofont.mark = (
0.6,
0.986,
1,
1
);
};
},
{
color = 4;
glyphname = peso;
lastChange = "2018-05-18 03:41:31 +0000";
layers = (
{
anchors = (
{
name = top;
position = "{294, 830}";
}
);
layerId = "B61D43DE-5272-4FF4-A680-608B6BF5ED9E";
paths = (
{
closed = 1;
nodes = (
"206 0 LINE",
"206 157 LINE",
"190 106 LINE",
"267 106 LINE",
"444 106 OFFCURVE",
"517 258 OFFCURVE",
"517 398 CURVE SMOOTH",
"517 604 OFFCURVE",
"405 697 OFFCURVE",
"263 697 CURVE SMOOTH",
"76 697 LINE",
"76 0 LINE"
);
},
{
closed = 1;
nodes = (
"206 197 LINE",
"206 614 LINE",
"190 596 LINE",
"260 596 LINE SMOOTH",
"360 596 OFFCURVE",
"390 512 OFFCURVE",
"390 392 CURVE SMOOTH",
"390 284 OFFCURVE",
"352 208 OFFCURVE",
"263 208 CURVE SMOOTH",
"188 208 LINE"
);
},
{
closed = 1;
nodes = (
"581 433 LINE",
"581 511 LINE",
"17 511 LINE",
"17 433 LINE"
);
},
{
closed = 1;
nodes = (
"581 279 LINE",
"581 357 LINE",
"17 357 LINE",
"17 279 LINE"
);
}
);
width = 591;
}
);
leftKerningGroup = uni20B1;
rightKerningGroup = uni20B1;
unicode = 20B1;
userData = {
com.typemytype.robofont.mark = (
0.6,
0.986,
1,
1
);
};
},
{
color = 4;
glyphname = ruble;
lastChange = "2018-05-18 03:41:31 +0000";
layers = (
{
anchors = (
{
name = top;
position = "{299, 830}";
}
);
layerId = "B61D43DE-5272-4FF4-A680-608B6BF5ED9E";
paths = (
{
closed = 1;
nodes = (
"210 0 LINE",
"210 303 LINE",
"195 252 LINE",
"272 252 LINE",
"449 252 OFFCURVE",
"524 357 OFFCURVE",
"524 494 CURVE SMOOTH",
"524 656 OFFCURVE",
"410 697 OFFCURVE",
"268 697 CURVE SMOOTH",
"81 697 LINE",
"81 0 LINE"
);
},
{
closed = 1;
nodes = (
"210 343 LINE",
"210 614 LINE",
"195 596 LINE",
"265 596 LINE SMOOTH",
"365 596 OFFCURVE",
"395 562 OFFCURVE",
"395 487 CURVE SMOOTH",
"395 387 OFFCURVE",
"356 354 OFFCURVE",
"268 354 CURVE SMOOTH",
"192 354 LINE"
);
},
{
closed = 1;
nodes = (
"272 252 LINE",
"311 354 LINE",
"-16 354 LINE",
"-16 253 LINE"
);
},
{
closed = 1;
nodes = (
"361 104 LINE",
"361 205 LINE",
"-20 205 LINE",
"-20 104 LINE"
);
}
);
width = 542;
}
);
leftKerningGroup = uni20BD;
rightKerningGroup = uni20BD;
unicode = 20BD;
userData = {
com.typemytype.robofont.mark = (
0.6,
0.609,
1,
1
);
};
},
{
color = 0;
glyphname = rupeeIndian;
lastChange = "2018-05-17 12:52:36 +0000";
layers = (
{
anchors = (
{
name = btm;
position = "{291, 0}";
},
{
name = top;
position = "{307, 830}";
}
);
layerId = "B61D43DE-5272-4FF4-A680-608B6BF5ED9E";
paths = (
{
closed = 1;
nodes = (
"236 203 LINE",
"387 0 LINE",
"542 0 LINE",
"364 222 LINE",
"459 245 OFFCURVE",
"504 317 OFFCURVE",
"518 396 CURVE",
"584 396 LINE",
"584 494 LINE",
"521 494 LINE",
"516 535 OFFCURVE",
"503 569 OFFCURVE",
"485 597 CURVE",
"584 597 LINE",
"584 698 LINE",
"82 698 LINE",
"82 597 LINE",
"258 597 LINE SMOOTH",
"340 597 OFFCURVE",
"379 557 OFFCURVE",
"391 494 CURVE",
"82 494 LINE",
"82 396 LINE",
"389 396 LINE",
"375 343 OFFCURVE",
"338 307 OFFCURVE",
"280 301 CURVE",
"82 301 LINE",
"82 203 LINE"
);
}
);
width = 634;
}
);
leftKerningGroup = uni20B9;
rightKerningGroup = uni20B9;
unicode = 20B9;
userData = {
com.typemytype.robofont.mark = (
0.6,
0.609,
1,
1
);
};
},
{
color = 4;
glyphname = sheqel;
lastChange = "2018-05-18 03:41:31 +0000";
layers = (
{
layerId = "B61D43DE-5272-4FF4-A680-608B6BF5ED9E";
paths = (
{
closed = 1;
nodes = (
"659 105 LINE",
"480 105 LINE SMOOTH",
"395 105 OFFCURVE",
"380 124 OFFCURVE",
"380 193 CURVE SMOOTH",
"380 490 LINE",
"256 490 LINE",
"256 207 LINE SMOOTH",
"256 56 OFFCURVE",
"315 0 OFFCURVE",
"422 0 CURVE SMOOTH",
"780 0 LINE",
"780 697 LINE",
"659 697 LINE {name = hr00;}"
);
},
{
closed = 1;
nodes = (
"189 583 LINE",
"401 583 LINE",
"468 583 OFFCURVE",
"464 544 OFFCURVE",
"464 476 CURVE SMOOTH",
"464 193 LINE",
"586 193 LINE",
"586 491 LINE SMOOTH",
"586 644 OFFCURVE",
"554 697 OFFCURVE",
"455 697 CURVE",
"68 697 LINE",
"68 0 LINE",
"189 0 LINE"
);
}
);
width = 848;
}
);
leftKerningGroup = uni20AA;
rightKerningGroup = uni20AA;
unicode = 20AA;
},
{
color = 4;
glyphname = sterling;
lastChange = "2018-05-18 03:41:31 +0000";
layers = (
{
layerId = "B61D43DE-5272-4FF4-A680-608B6BF5ED9E";
paths = (
{
closed = 1;
nodes = (
"518 0 LINE",
"518 101 LINE",
"219 101 LINE",
"239 149 OFFCURVE",
"265 213 OFFCURVE",
"265 298 CURVE SMOOTH",
"265 376 OFFCURVE",
"232 425 OFFCURVE",
"232 496 CURVE SMOOTH",
"232 581 OFFCURVE",
"269 622 OFFCURVE",
"343 622 CURVE SMOOTH",
"398 622 OFFCURVE",
"457 591 OFFCURVE",
"479 554 CURVE",
"529 635 LINE",
"509 662 OFFCURVE",
"446 708 OFFCURVE",
"328 708 CURVE SMOOTH",
"158 708 OFFCURVE",
"94 630 OFFCURVE",
"94 518 CURVE SMOOTH",
"94 422 OFFCURVE",
"139 366 OFFCURVE",
"139 257 CURVE SMOOTH",
"139 144 OFFCURVE",
"87 40 OFFCURVE",
"70 0 CURVE"
);
},
{
closed = 1;
nodes = (
"432 288 LINE",
"432 371 LINE",
"47 371 LINE",
"47 288 LINE"
);
}
);
width = 592;
}
);
leftKerningGroup = sterling;
rightKerningGroup = sterling;
unicode = 00A3;
userData = {
com.typemytype.robofont.mark = (
0.656,
1,
0.6,
1
);
};
},
{
color = 4;
glyphname = tenge;
lastChange = "2018-05-18 03:41:31 +0000";
layers = (
{
anchors = (
{
name = btm;
position = "{244, 0}";
}
);
layerId = "B61D43DE-5272-4FF4-A680-608B6BF5ED9E";
paths = (
{
closed = 1;
nodes = (
"310 0 LINE",
"310 394 LINE",
"294 371 LINE",
"469 371 LINE",
"469 484 LINE",
"18 484 LINE",
"18 371 LINE",
"193 371 LINE",
"180 394 LINE",
"180 0 LINE"
);
},
{
closed = 1;
nodes = (
"475 583 LINE",
"475 696 LINE",
"24 696 LINE",
"24 583 LINE"
);
}
);
width = 487;
}
);
unicode = 20B8;
},
{
color = 4;
glyphname = tugrik;
lastChange = "2018-05-18 14:14:47 +0000";
layers = (
{
anchors = (
{
name = btm;
position = "{256, 0}";
},
{
name = top;
position = "{256, 830}";
}
);
layerId = "B61D43DE-5272-4FF4-A680-608B6BF5ED9E";
paths = (
{
closed = 1;
nodes = (
"194 584 LINE",
"194 380 LINE",
"71 323 LINE",
"71 253 LINE",
"194 309 LINE",
"194 202 LINE",
"76 148 LINE",
"76 78 LINE",
"194 132 LINE",
"194 0 LINE",
"320 0 LINE",
"320 191 LINE",
"435 246 LINE",
"435 315 LINE",
"320 260 LINE",
"320 367 LINE",
"445 426 LINE",
"445 496 LINE",
"320 438 LINE",
"320 584 LINE",
"481 584 LINE",
"481 697 LINE",
"30 697 LINE",
"30 584 LINE"
);
}
);
width = 523;
}
);
unicode = 20AE;
},
{
color = 4;
glyphname = won;
lastChange = "2018-05-18 03:41:31 +0000";
layers = (
{
anchors = (
{
name = top;
position = "{466, 830}";
}
);
layerId = "B61D43DE-5272-4FF4-A680-608B6BF5ED9E";
paths = (
{
closed = 1;
nodes = (
"340 218 LINE",
"194 697 LINE",
"56 697 LINE",
"297 -18 LINE",
"484 443 LINE",
"449 443 LINE",
"639 -18 LINE",
"876 697 LINE",
"740 697 LINE",
"600 210 LINE",
"658 210 LINE",
"469 714 LINE",
"291 230 LINE"
);
},
{
closed = 1;
nodes = (
"939 543 LINE",
"939 622 LINE",
"-7 622 LINE",
"-7 543 LINE"
);
},
{
closed = 1;
nodes = (
"939 390 LINE",
"939 468 LINE",
"-7 468 LINE",
"-7 390 LINE"
);
}
);
width = 933;
}
);
leftKerningGroup = won;
rightKerningGroup = won;
unicode = 20A9;
userData = {
com.typemytype.robofont.guides = (
{
angle = 0;
isGlobal = 0;
magnetic = 5;
x = 0;
y = 615;
}
);
};
},
{
color = 4;
glyphname = yen;
lastChange = "2018-05-18 03:41:36 +0000";
layers = (
{
layerId = "B61D43DE-5272-4FF4-A680-608B6BF5ED9E";
paths = (
{
closed = 1;
nodes = (
"402 0 LINE",
"402 295 LINE",
"616 697 LINE",
"474 697 LINE",
"324 383 LINE",
"341 383 LINE",
"187 697 LINE",
"44 697 LINE",
"264 299 LINE",
"264 0 LINE"
);
},
{
closed = 1;
nodes = (
"551 282 LINE",
"551 360 LINE",
"105 360 LINE",
"105 282 LINE"
);
},
{
closed = 1;
nodes = (
"551 129 LINE",
"551 207 LINE",
"105 207 LINE",
"105 129 LINE"
);
}
);
width = 660;
}
);
leftKerningGroup = yen;
rightKerningGroup = yen;
unicode = 00A5;
userData = {
com.typemytype.robofont.mark = (
0.656,
1,
0.6,
1
);
};
},
{
glyphname = bulletoperator;
lastChange = "2018-05-17 02:33:02 +0000";
layers = (
{
layerId = "B61D43DE-5272-4FF4-A680-608B6BF5ED9E";
paths = (
{
closed = 1;
nodes = (
"220 280 OFFCURVE",
"261 305 OFFCURVE",
"261 377 CURVE SMOOTH",
"261 446 OFFCURVE",
"219 475 OFFCURVE",
"168 475 CURVE SMOOTH",
"119 475 OFFCURVE",
"77 446 OFFCURVE",
"77 377 CURVE SMOOTH",
"77 305 OFFCURVE",
"118 280 OFFCURVE",
"168 280 CURVE SMOOTH"
);
}
);
width = 338;
}
);
leftKerningGroup = uni2219;
rightKerningGroup = uni2219;
unicode = 2219;
userData = {
com.typemytype.robofont.mark = (
0.6,
0.609,
1,
1
);
};
},
{
glyphname = commercialMinusSign;
lastChange = "2018-05-17 02:33:02 +0000";
layers = (
{
layerId = "B61D43DE-5272-4FF4-A680-608B6BF5ED9E";
paths = (
{
closed = 1;
nodes = (
"399 0 LINE",
"601 697 LINE",
"503 697 LINE",
"301 0 LINE"
);
},
{
closed = 1;
nodes = (
"342 502 OFFCURVE",
"383 527 OFFCURVE",
"383 599 CURVE SMOOTH",
"383 668 OFFCURVE",
"341 697 OFFCURVE",
"290 697 CURVE SMOOTH",
"241 697 OFFCURVE",
"199 668 OFFCURVE",
"199 599 CURVE SMOOTH",
"199 527 OFFCURVE",
"240 502 OFFCURVE",
"290 502 CURVE SMOOTH"
);
},
{
closed = 1;
nodes = (
"658 0 OFFCURVE",
"699 25 OFFCURVE",
"699 97 CURVE SMOOTH",
"699 166 OFFCURVE",
"657 195 OFFCURVE",
"606 195 CURVE SMOOTH",
"557 195 OFFCURVE",
"515 166 OFFCURVE",
"515 97 CURVE SMOOTH",
"515 25 OFFCURVE",
"556 0 OFFCURVE",
"606 0 CURVE SMOOTH"
);
}
);
width = 833;
}
);
leftKerningGroup = uni2052;
rightKerningGroup = uni2052;
unicode = 2052;
userData = {
com.typemytype.robofont.mark = (
0.6,
0.609,
1,
1
);
};
},
{
glyphname = divisionslash;
lastChange = "2018-05-17 04:09:30 +0000";
layers = (
{
layerId = "B61D43DE-5272-4FF4-A680-608B6BF5ED9E";
paths = (
{
closed = 1;
nodes = (
"132 0 LINE",
"304 697 LINE",
"206 697 LINE",
"34 1 LINE"
);
}
);
width = 349;
}
);
leftKerningGroup = uni2215;
rightKerningGroup = uni2215;
unicode = 2215;
userData = {
com.typemytype.robofont.mark = (
0.656,
1,
0.6,
1
);
};
},
{
glyphname = plus;
lastChange = "2018-05-17 03:53:43 +0000";
layers = (
{
layerId = "B61D43DE-5272-4FF4-A680-608B6BF5ED9E";
paths = (
{
closed = 1;
nodes = (
"337 44 LINE",
"337 273 LINE",
"319 246 LINE",
"531 246 LINE",
"531 344 LINE",
"320 344 LINE",
"337 320 LINE",
"337 544 LINE",
"229 544 LINE",
"229 321 LINE",
"245 344 LINE",
"42 344 LINE",
"42 246 LINE",
"247 246 LINE",
"229 273 LINE",
"229 44 LINE"
);
}
);
width = 572;
}
);
leftKerningGroup = plus;
rightKerningGroup = plus;
unicode = 002B;
userData = {
com.typemytype.robofont.mark = (
0.656,
1,
0.6,
1
);
};
},
{
glyphname = minus;
lastChange = "2018-05-17 03:53:43 +0000";
layers = (
{
layerId = "B61D43DE-5272-4FF4-A680-608B6BF5ED9E";
paths = (
{
closed = 1;
nodes = (
"405 246 LINE",
"405 344 LINE",
"62 344 LINE",
"62 246 LINE"
);
}
);
width = 467;
}
);
leftKerningGroup = minus;
rightKerningGroup = minus;
unicode = 2212;
userData = {
com.typemytype.robofont.mark = (
0.656,
1,
0.6,
1
);
};
},
{
glyphname = multiply;
lastChange = "2018-05-17 03:53:43 +0000";
layers = (
{
layerId = "B61D43DE-5272-4FF4-A680-608B6BF5ED9E";
paths = (
{
closed = 1;
nodes = (
"153 79 LINE",
"305 241 LINE",
"273 236 LINE",
"427 78 LINE",
"497 147 LINE",
"343 304 LINE",
"338 274 LINE",
"487 433 LINE",
"411 509 LINE",
"262 351 LINE",
"290 355 LINE",
"139 509 LINE",
"69 440 LINE",
"220 285 LINE",
"228 317 LINE",
"76 155 LINE"
);
}
);
width = 585;
}
);
leftKerningGroup = multiply;
rightKerningGroup = multiply;
unicode = 00D7;
userData = {
com.typemytype.robofont.mark = (
0.656,
1,
0.6,
1
);
};
},
{
glyphname = divide;
lastChange = "2018-05-18 17:45:15 +0000";
layers = (
{
layerId = "B61D43DE-5272-4FF4-A680-608B6BF5ED9E";
paths = (
{
closed = 1;
nodes = (
"337 0 LINE",
"337 129 LINE",
"204 129 LINE",
"204 0 LINE"
);
},
{
closed = 1;
nodes = (
"513 246 LINE",
"513 344 LINE",
"29 344 LINE",
"29 246 LINE"
);
},
{
closed = 1;
nodes = (
"337 462 LINE",
"337 591 LINE",
"204 591 LINE",
"204 462 LINE"
);
}
);
width = 542;
}
);
leftKerningGroup = divide;
rightKerningGroup = divide;
unicode = 00F7;
userData = {
com.typemytype.robofont.mark = (
0.656,
1,
0.6,
1
);
};
},
{
glyphname = equal;
lastChange = "2018-05-17 03:53:43 +0000";
layers = (
{
layerId = "B61D43DE-5272-4FF4-A680-608B6BF5ED9E";
paths = (
{
closed = 1;
nodes = (
"483 114 LINE",
"483 212 LINE",
"59 212 LINE",
"59 114 LINE"
);
},
{
closed = 1;
nodes = (
"483 378 LINE",
"483 476 LINE",
"59 476 LINE",
"59 378 LINE"
);
}
);
width = 572;
}
);
leftKerningGroup = equal;
rightKerningGroup = equal;
unicode = 003D;
userData = {
com.typemytype.robofont.mark = (
0.656,
1,
0.6,
1
);
};
},
{
glyphname = notequal;
lastChange = "2018-05-17 02:33:02 +0000";
layers = (
{
components = (
{
name = equal;
}
);
layerId = "B61D43DE-5272-4FF4-A680-608B6BF5ED9E";
paths = (
{
closed = 1;
nodes = (
"217 0 LINE",
"404 580 LINE",
"312 580 LINE",
"124 0 LINE"
);
}
);
width = 572;
}
);
leftKerningGroup = notequal;
rightKerningGroup = notequal;
unicode = 2260;
userData = {
com.typemytype.robofont.mark = (
0.6,
0.986,
1,
1
);
};
},
{
glyphname = less;
lastChange = "2018-05-17 03:53:43 +0000";
layers = (
{
layerId = "B61D43DE-5272-4FF4-A680-608B6BF5ED9E";
paths = (
{
closed = 1;
nodes = (
"452 457 LINE",
"452 568 LINE",
"80 341 LINE",
"80 250 LINE",
"452 22 LINE",
"452 134 LINE",
"162 311 LINE",
"162 280 LINE"
);
}
);
width = 532;
}
);
leftKerningGroup = less;
rightKerningGroup = less;
unicode = 003C;
userData = {
com.typemytype.robofont.mark = (
0.656,
1,
0.6,
1
);
};
},
{
glyphname = lessequal;
lastChange = "2018-05-17 02:33:02 +0000";
layers = (
{
layerId = "B61D43DE-5272-4FF4-A680-608B6BF5ED9E";
paths = (
{
closed = 1;
nodes = (
"468 573 LINE",
"468 685 LINE",
"97 457 LINE",
"97 366 LINE",
"468 139 LINE",
"468 250 LINE",
"179 427 LINE",
"179 396 LINE"
);
},
{
closed = 1;
nodes = (
"491 93 LINE",
"80 93 LINE",
"80 0 LINE",
"491 0 LINE"
);
}
);
width = 571;
}
);
leftKerningGroup = lessequal;
rightKerningGroup = lessequal;
unicode = 2264;
userData = {
com.typemytype.robofont.mark = (
0.6,
0.986,
1,
1
);
};
},
{
glyphname = plusminus;
lastChange = "2018-05-17 03:53:43 +0000";
layers = (
{
layerId = "B61D43DE-5272-4FF4-A680-608B6BF5ED9E";
paths = (
{
closed = 1;
nodes = (
"337 165 LINE",
"337 394 LINE",
"319 366 LINE",
"531 366 LINE",
"531 464 LINE",
"320 464 LINE",
"337 441 LINE",
"337 665 LINE",
"229 665 LINE",
"229 442 LINE",
"245 464 LINE",
"42 464 LINE",
"42 366 LINE",
"247 366 LINE",
"229 394 LINE",
"229 165 LINE"
);
},
{
closed = 1;
nodes = (
"531 93 LINE",
"42 93 LINE",
"42 0 LINE",
"531 0 LINE"
);
}
);
width = 572;
}
);
leftKerningGroup = plusminus;
rightKerningGroup = plusminus;
unicode = 00B1;
userData = {
com.typemytype.robofont.mark = (
0.656,
1,
0.6,
1
);
};
},
{
glyphname = asciitilde;
lastChange = "2018-05-17 03:53:43 +0000";
layers = (
{
layerId = "B61D43DE-5272-4FF4-A680-608B6BF5ED9E";
paths = (
{
closed = 1;
nodes = (
"316 328 OFFCURVE",
"290 413 OFFCURVE",
"190 413 CURVE SMOOTH",
"113 413 OFFCURVE",
"35 346 OFFCURVE",
"24 279 CURVE",
"96 230 LINE",
"111 273 OFFCURVE",
"137 311 OFFCURVE",
"182 310 CURVE SMOOTH",
"255 309 OFFCURVE",
"288 225 OFFCURVE",
"385 225 CURVE SMOOTH",
"463 225 OFFCURVE",
"541 292 OFFCURVE",
"551 359 CURVE",
"479 407 LINE",
"464 365 OFFCURVE",
"439 327 OFFCURVE",
"394 328 CURVE"
);
}
);
width = 576;
}
);
leftKerningGroup = asciitilde;
rightKerningGroup = asciitilde;
unicode = 007E;
userData = {
com.typemytype.robofont.mark = (
0.656,
1,
0.6,
1
);
};
},
{
glyphname = logicalnot;
lastChange = "2018-05-17 03:53:43 +0000";
layers = (
{
layerId = "B61D43DE-5272-4FF4-A680-608B6BF5ED9E";
paths = (
{
closed = 1;
nodes = (
"491 71 LINE",
"491 246 LINE",
"392 321 LINE",
"392 71 LINE"
);
},
{
closed = 1;
nodes = (
"491 344 LINE",
"80 344 LINE",
"80 246 LINE",
"491 246 LINE"
);
}
);
width = 571;
}
);
leftKerningGroup = logicalnot;
rightKerningGroup = logicalnot;
unicode = 00AC;
userData = {
com.typemytype.robofont.mark = (
0.656,
1,
0.6,
1
);
};
},
{
color = 4;
glyphname = asciicircum;
lastChange = "2018-05-18 17:45:04 +0000";
layers = (
{
background = {
paths = (
{
closed = 1;
nodes = (
"268 697 LINE",
"200 697 LINE",
"12 144 LINE",
"125 144 LINE",
"242 529 LINE",
"224 529 LINE",
"346 144 LINE",
"458 144 LINE"
);
}
);
};
layerId = "B61D43DE-5272-4FF4-A680-608B6BF5ED9E";
paths = (
{
closed = 1;
nodes = (
"124 144 LINE",
"244 529 LINE",
"226 529 LINE",
"345 144 LINE",
"458 144 LINE",
"270 697 LINE",
"200 697 LINE",
"12 144 LINE"
);
}
);
width = 470;
}
);
leftKerningGroup = asciicircum;
rightKerningGroup = asciicircum;
unicode = 005E;
userData = {
com.typemytype.robofont.mark = (
0.656,
1,
0.6,
1
);
};
},
